<svg xmlns="http://www.w3.org/2000/svg" width="29" height="15" viewBox="0 0 29 15">
    <g transform="translate(0 .417)">
        <path
            d="M27.129,6.10000097 C27.6812847,6.10000097 28.129,6.54771622 28.129,7.10000097 C28.129,7.61283681 27.7429598,8.03550813 27.2456211,8.09327324 L27.129,8.10000097 L1,8.10000097 C0.44771525,8.10000097 -5.5067062e-14,7.65228572 -5.5067062e-14,7.10000097 C-5.5067062e-14,6.58716513 0.38604019,6.16449381 0.883378875,6.1067287 L1,6.10000097 L27.129,6.10000097 Z" />
        <path
            d="M21.300452,0.280554569 C21.6672268,-0.0735268907 22.2348581,-0.0912655394 22.6217183,0.220618697 L22.7144464,0.30545301 L28.5724464,6.37345301 C28.9281376,6.74189515 28.944205,7.31261124 28.6286926,7.69928444 L28.5429112,7.79189494 L22.6849112,13.3748949 C22.2851156,13.7559224 21.6521335,13.7407078 21.271106,13.3409122 C20.9193884,12.9718701 20.9052971,12.4041365 21.2196604,12.0192882 L21.3050888,11.927107 L26.434,7.03800097 L21.2755536,1.69454893 C20.9214721,1.32777422 20.9037335,0.760142877 21.2156177,0.373282698 L21.300452,0.280554569 Z" />
    </g>
</svg>