<svg id="Component_24_31" data-name="Component 24 – 31" xmlns="http://www.w3.org/2000/svg" width="137.77" height="137.77" viewBox="0 0 137.77 137.77">
  <text id="_30_" data-name="30%" transform="translate(36 78.385)" font-size="26" font-family="Spartan-SemiBold, Spartan" font-weight="600"><tspan x="0" y="0">30%</tspan></text>
  <g id="Path_143" data-name="Path 143" transform="translate(137.77 32.258) rotate(107)" fill="none" stroke-linecap="round">
    <path d="M55.166,0A55.166,55.166,0,1,1,0,55.166,55.166,55.166,0,0,1,55.166,0Z" stroke="none"/>
    <path d="M 55.16644668579102 3 C 48.12269592285156 3 41.29124450683594 4.37884521484375 34.86183166503906 7.0982666015625 C 28.65024566650391 9.725547790527344 23.071044921875 13.48735046386719 18.27919769287109 18.27919769287109 C 13.48735046386719 23.071044921875 9.725547790527344 28.65024566650391 7.0982666015625 34.86183166503906 C 4.37884521484375 41.29124450683594 3 48.12269592285156 3 55.16644668579102 C 3 62.21019744873047 4.37884521484375 69.04164123535156 7.0982666015625 75.47106170654297 C 9.725547790527344 81.68264770507812 13.48735046386719 87.26184844970703 18.27919769287109 92.05369567871094 C 23.071044921875 96.84555053710938 28.65024566650391 100.6073455810547 34.86183166503906 103.2346267700195 C 41.29124450683594 105.9540481567383 48.12269592285156 107.332893371582 55.16644668579102 107.332893371582 C 62.21019744873047 107.332893371582 69.04164123535156 105.9540481567383 75.47106170654297 103.2346267700195 C 81.68264770507812 100.6073455810547 87.26184844970703 96.84555053710938 92.05369567871094 92.05369567871094 C 96.84555053710938 87.26184844970703 100.6073455810547 81.68264770507812 103.2346267700195 75.47106170654297 C 105.9540481567383 69.04164123535156 107.332893371582 62.21019744873047 107.332893371582 55.16644668579102 C 107.332893371582 48.12269592285156 105.9540481567383 41.29124450683594 103.2346267700195 34.86183166503906 C 100.6073455810547 28.65024566650391 96.84555053710938 23.071044921875 92.05369567871094 18.27919769287109 C 87.26184844970703 13.48735046386719 81.68264770507812 9.725547790527344 75.47106170654297 7.0982666015625 C 69.04164123535156 4.37884521484375 62.21019744873047 3 55.16644668579102 3 M 55.16644668579102 0 C 85.634033203125 0 110.332893371582 24.69886016845703 110.332893371582 55.16644668579102 C 110.332893371582 85.634033203125 85.634033203125 110.332893371582 55.16644668579102 110.332893371582 C 24.69886016845703 110.332893371582 0 85.634033203125 0 55.16644668579102 C 0 24.69886016845703 24.69886016845703 0 55.16644668579102 0 Z" stroke="none" fill="#cfcfcf"/>
  </g>
  <g id="Path_142" data-name="Path 142" transform="translate(13.847 9.883) rotate(2)" fill="none" stroke-linecap="round" stroke-dasharray="71 486">
    <path d="M57.046,0A57.046,57.046,0,1,1,0,57.046,57.046,57.046,0,0,1,57.046,0Z" stroke="none"/>
    <path d="M 57.04570388793945 7.62939453125e-06 C 57.054931640625 7.62939453125e-06 57.06460189819336 -2.288818359375e-05 57.07382583618164 1.52587890625e-05 C 57.08073425292969 1.52587890625e-05 57.0891227722168 1.52587890625e-05 57.09602737426758 2.288818359375e-05 C 57.10140609741211 3.814697265625e-05 57.11147689819336 4.57763671875e-05 57.11684036254883 4.57763671875e-05 C 57.12606048583984 5.340576171875e-05 57.13162994384766 5.340576171875e-05 57.14086532592773 8.392333984375e-05 C 57.15009307861328 9.1552734375e-05 57.15645217895508 7.62939453125e-05 57.16567993164062 0.00012969970703125 C 57.17258453369141 0.00014495849609375 57.18058013916016 0.00016021728515625 57.18748474121094 0.00017547607421875 C 57.19438934326172 0.00019073486328125 57.20206069946289 0.0001983642578125 57.20896530151367 0.00023651123046875 C 57.21818161010742 0.0002593994140625 57.22533798217773 0.0002593994140625 57.23453903198242 0.00031280517578125 C 57.2418327331543 0.00032806396484375 57.25061416625977 0.000396728515625 57.2579231262207 0.00038909912109375 C 57.26482772827148 0.00042724609375 57.27327728271484 0.00046539306640625 57.28017425537109 0.0004730224609375 C 57.28707885742188 0.00049591064453125 57.29384231567383 0.00052642822265625 57.30074691772461 0.0005645751953125 C 57.30995941162109 0.0006103515625 57.3161735534668 0.000640869140625 57.32539749145508 0.00067901611328125 C 57.33269119262695 0.00070953369140625 57.34242630004883 0.000762939453125 57.34971618652344 0.00080108642578125 C 57.35661315917969 0.000823974609375 57.3648567199707 0.00087738037109375 57.37176132202148 0.00091552734375 C 57.37866973876953 0.0009613037109375 57.38635635375977 0.001007080078125 57.39325714111328 0.00103759765625 C 57.40246963500977 0.00109100341796875 57.41071319580078 0.00112152099609375 57.419921875 0.0012054443359375 C 57.42529296875 0.00122833251953125 57.43709564208984 0.0012969970703125 57.44246292114258 0.0013580322265625 C 57.44935989379883 0.00140380859375 57.45722198486328 0.00147247314453125 57.46411895751953 0.0015106201171875 C 57.47101974487305 0.001556396484375 57.47797393798828 0.0016021728515625 57.48486709594727 0.0016632080078125 C 57.49407196044922 0.0017242431640625 57.50233840942383 0.00176239013671875 57.51154327392578 0.00186920166015625 C 57.51691436767578 0.001922607421875 57.52923202514648 0.00201416015625 57.53459548950195 0.0020599365234375 C 57.5414924621582 0.002105712890625 57.54890441894531 0.00217437744140625 57.55580520629883 0.00223541259765625 C 57.56117630004883 0.002288818359375 57.57162094116211 0.00237274169921875 57.57698440551758 0.0024261474609375 C 57.5861930847168 0.00251007080078125 57.5941047668457 0.00260162353515625 57.60329818725586 0.0026702880859375 C 57.61058044433594 0.00274658203125 57.61817169189453 0.00281524658203125 57.62546157836914 0.00289154052734375 C 57.63082885742188 0.002960205078125 57.64218902587891 0.00305938720703125 57.64756393432617 0.00311279296875 C 57.65485000610352 0.00319671630859375 57.66142272949219 0.0032501220703125 57.66870880126953 0.00333404541015625 C 57.67943954467773 0.003448486328125 57.68474197387695 0.003509521484375 57.69546508789062 0.003631591796875 C 57.70274353027344 0.0037078857421875 57.71092224121094 0.00377655029296875 57.71821975708008 0.0038909912109375 C 57.72358322143555 0.003936767578125 57.73445510864258 0.00403594970703125 57.73982620239258 0.00414276123046875 C 57.74710845947266 0.0042266845703125 57.75368499755859 0.00433349609375 57.76095199584961 0.00439453125 C 57.77167892456055 0.0045318603515625 57.77759552001953 0.004608154296875 57.78832626342773 0.00473785400390625 C 57.79521942138672 0.0048370361328125 57.80347442626953 0.00493621826171875 57.81035995483398 0.00502777099609375 C 57.81572723388672 0.00508880615234375 57.8265380859375 0.00524139404296875 57.83188247680664 0.00531005859375 C 57.8410758972168 0.00543212890625 57.84307861328125 0.00547027587890625 57.85227966308594 0.00559234619140625 C 57.86300277709961 0.0057373046875 57.86873245239258 0.00582122802734375 57.87944793701172 0.00597381591796875 C 57.88672637939453 0.006072998046875 57.89427947998047 0.00616455078125 57.90155029296875 0.00629425048828125 C 57.90691375732422 0.0063629150390625 57.91769027709961 0.00655364990234375 57.92303848266602 0.00661468505859375 C 57.93223190307617 0.00675201416015625 57.93537521362305 0.006805419921875 57.94453811645508 0.0069427490234375 C 57.95525741577148 0.00710296630859375 57.96142578125 0.0071868896484375 57.97214508056641 0.00737762451171875 C 57.97902297973633 0.00748443603515625 57.98709869384766 0.007598876953125 57.99398422241211 0.00772857666015625 C 57.99934387207031 0.0078125 58.01010513305664 0.00799560546875 58.01546859741211 0.00807952880859375 C 58.024658203125 0.0082244873046875 58.02699279785156 0.00829315185546875 58.03617858886719 0.00843048095703125 C 58.04689407348633 0.00861358642578125 58.05292510986328 0.00872039794921875 58.06363296508789 0.00890350341796875 C 58.07051849365234 0.009033203125 58.07871627807617 0.009185791015625 58.08559417724609 0.0092926025390625 C 58.09094619750977 0.0093841552734375 58.10190963745117 0.00957489013671875 58.10727310180664 0.00968170166015625 C 58.11492919921875 0.00982666015625 58.11867141723633 0.00989532470703125 58.12632751464844 0.01003265380859375 C 58.12632751464844 0.01003265380859375 58.12805938720703 0.01006317138671875 58.12805938720703 0.01006317138671875 C 58.13723754882812 0.0102386474609375 58.14665222167969 0.01041412353515625 58.15585708618164 0.010589599609375 C 58.16273498535156 0.0107269287109375 58.17060089111328 0.01087188720703125 58.1774787902832 0.01100921630859375 C 58.18283462524414 0.0111083984375 58.19343948364258 0.01131439208984375 58.19879531860352 0.0114288330078125 C 58.21563339233398 0.01175689697265625 58.22978210449219 0.011932373046875 58.24659729003906 0.01239776611328125 C 58.25539398193359 0.01258087158203125 58.2595100402832 0.01265716552734375 58.26828384399414 0.012847900390625 C 58.27554702758789 0.01299285888671875 58.2826042175293 0.0131072998046875 58.28986740112305 0.0133056640625 C 58.30669784545898 0.013671875 58.32189559936523 0.01404571533203125 58.33866119384766 0.01436614990234375 C 58.34554290771484 0.0145111083984375 58.35348510742188 0.0146942138671875 58.3603515625 0.01485443115234375 C 58.36569976806641 0.0149688720703125 58.37662506103516 0.0152130126953125 58.3819580078125 0.015350341796875 C 58.39878082275391 0.0157318115234375 58.41387176513672 0.01613616943359375 58.43074798583984 0.01648712158203125 C 58.43761444091797 0.0166473388671875 58.44570541381836 0.0168304443359375 58.45257186889648 0.0170135498046875 C 58.45943832397461 0.0171661376953125 58.46731567382812 0.017364501953125 58.47419738769531 0.01753997802734375 C 58.48336410522461 0.01776123046875 58.49020385742188 0.017913818359375 58.4993896484375 0.01816558837890625 C 58.50664901733398 0.01834869384765625 58.51649475097656 0.01861572265625 58.52375411987305 0.0187835693359375 C 58.53062057495117 0.0189361572265625 58.53778457641602 0.0191192626953125 58.54465866088867 0.019317626953125 C 58.55153274536133 0.01950836181640625 58.55899047851562 0.019683837890625 58.56584930419922 0.019866943359375 C 58.57501602172852 0.02010345458984375 58.58164596557617 0.020294189453125 58.59081268310547 0.0205230712890625 C 58.59767913818359 0.02071380615234375 58.60855102539062 0.02099609375 58.61541748046875 0.02118682861328125 C 58.62228393554688 0.02136993408203125 58.62941741943359 0.0215606689453125 58.63628005981445 0.02175140380859375 C 58.64315414428711 0.02194976806640625 58.65019989013672 0.0221405029296875 58.65706253051758 0.0223236083984375 C 58.66622543334961 0.0225830078125 58.67366409301758 0.0228424072265625 58.68281555175781 0.023040771484375 C 58.68815612792969 0.02320098876953125 58.70116424560547 0.02355194091796875 58.70650863647461 0.02371978759765625 C 58.71337890625 0.0239105224609375 58.72061157226562 0.02411651611328125 58.72747421264648 0.024322509765625 C 58.73433303833008 0.02451324462890625 58.74210357666016 0.02474212646484375 58.74897003173828 0.0249481201171875 C 58.75812911987305 0.02521514892578125 58.76384735107422 0.02539825439453125 58.77297210693359 0.02565765380859375 C 58.78022384643555 0.0258636474609375 58.79013824462891 0.0261688232421875 58.79739761352539 0.02639007568359375 C 58.80273818969727 0.02654266357421875 58.81347274780273 0.02687835693359375 58.81881713867188 0.02703857421875 C 58.8260612487793 0.02725982666015625 58.83275985717773 0.0274505615234375 58.83999252319336 0.02768707275390625 C 58.85067367553711 0.02800750732421875 58.85664749145508 0.02819061279296875 58.86732864379883 0.02854156494140625 C 58.87418746948242 0.02874755859375 58.88319778442383 0.0290374755859375 58.89005661010742 0.02925872802734375 C 58.89691162109375 0.0294647216796875 58.90389633178711 0.02970123291015625 58.91075134277344 0.02991485595703125 C 58.91761016845703 0.03012847900390625 58.92484664916992 0.030364990234375 58.93170547485352 0.0305938720703125 C 58.94086074829102 0.0308837890625 58.94792556762695 0.031097412109375 58.95707321166992 0.03142547607421875 C 58.96392822265625 0.03163909912109375 58.97380828857422 0.03197479248046875 58.98066329956055 0.03220367431640625 C 58.98600006103516 0.0323944091796875 58.99637603759766 0.03273773193359375 59.001708984375 0.0329132080078125 C 59.00894927978516 0.03314971923828125 59.01547622680664 0.03336334228515625 59.02273559570312 0.03362274169921875 C 59.03340148925781 0.0339813232421875 59.03883361816406 0.0341644287109375 59.04950332641602 0.03453826904296875 C 59.05636215209961 0.03478240966796875 59.06571960449219 0.03510284423828125 59.07255935668945 0.03533935546875 C 59.07789993286133 0.0355377197265625 59.08747482299805 0.0358734130859375 59.09280776977539 0.03604888916015625 C 59.10005187988281 0.03631591796875 59.10722351074219 0.03658294677734375 59.11443328857422 0.0368194580078125 C 59.12509918212891 0.03719329833984375 59.13013458251953 0.03736114501953125 59.14080429077148 0.0377655029296875 C 59.14764785766602 0.03800201416015625 59.15659713745117 0.038330078125 59.16344833374023 0.0385894775390625 C 59.16877746582031 0.03878021240234375 59.17947769165039 0.03917694091796875 59.18481826782227 0.03936767578125 C 59.19205093383789 0.039642333984375 59.19844818115234 0.0398712158203125 59.20569229125977 0.0401458740234375 C 59.21635818481445 0.0405426025390625 59.22220230102539 0.0407562255859375 59.23286056518555 0.04116058349609375 C 59.23971176147461 0.0414276123046875 59.24860763549805 0.04177093505859375 59.25545120239258 0.04201507568359375 C 59.26078414916992 0.042205810546875 59.2706298828125 0.04256439208984375 59.27595901489258 0.0428009033203125 C 59.28319931030273 0.0430755615234375 59.29058837890625 0.043365478515625 59.29780578613281 0.04364776611328125 C 59.30694198608398 0.0439910888671875 59.31454086303711 0.0442962646484375 59.32368469238281 0.04465484619140625 C 59.33052062988281 0.04492950439453125 59.33929824829102 0.04528045654296875 59.34615325927734 0.04553985595703125 C 59.35147857666016 0.04575347900390625 59.36191558837891 0.04616546630859375 59.36723327636719 0.04637908935546875 C 59.38398742675781 0.04705047607421875 59.39887619018555 0.0477142333984375 59.41561126708984 0.04833984375 C 59.42245101928711 0.048614501953125 59.43135833740234 0.04898834228515625 59.43820571899414 0.0492706298828125 C 59.44352722167969 0.04947662353515625 59.45330047607422 0.04990386962890625 59.45864105224609 0.05010986328125 C 59.46776962280273 0.0504913330078125 59.47314453125 0.0507049560546875 59.48227310180664 0.0511016845703125 C 59.48949813842773 0.0514068603515625 59.49971008300781 0.05184173583984375 59.5069465637207 0.05214691162109375 C 59.51379013061523 0.05243682861328125 59.521728515625 0.05277252197265625 59.52855682373047 0.05306243896484375 C 59.535400390625 0.0533599853515625 59.54284286499023 0.053680419921875 59.54967880249023 0.0539703369140625 C 59.55879974365234 0.05435943603515625 59.56613922119141 0.0547027587890625 59.57530212402344 0.055084228515625 C 59.58062744140625 0.05532073974609375 59.59368515014648 0.0559234619140625 59.59899139404297 0.056121826171875 C 59.60582733154297 0.056427001953125 59.61386108398438 0.056793212890625 59.62069702148438 0.0570831298828125 C 59.62753295898438 0.0573883056640625 59.63399887084961 0.05767822265625 59.64083480834961 0.0579833984375 C 59.64995574951172 0.05838775634765625 59.65649032592773 0.0587005615234375 59.66563415527344 0.0590972900390625 C 59.67285537719727 0.05942535400390625 59.68142318725586 0.059814453125 59.68862533569336 0.06014251708984375 C 59.69546127319336 0.060455322265625 59.70429992675781 0.06085968017578125 59.71112823486328 0.0611724853515625 C 59.71796035766602 0.06148529052734375 59.72528457641602 0.06183624267578125 59.73211669921875 0.06214141845703125 C 59.74123764038086 0.06256103515625 59.74700164794922 0.0628204345703125 59.75613021850586 0.063262939453125 C 59.76334762573242 0.06360626220703125 59.77349853515625 0.0641021728515625 59.78070449829102 0.06441497802734375 C 59.78753662109375 0.0647430419921875 59.79560852050781 0.06511688232421875 59.80243682861328 0.0654449462890625 C 59.80775833129883 0.065704345703125 59.8173828125 0.066162109375 59.82270050048828 0.06641387939453125 C 59.83181381225586 0.06685638427734375 59.83975601196289 0.06722259521484375 59.84885787963867 0.0676727294921875 C 59.85417938232422 0.06792449951171875 59.86698150634766 0.068572998046875 59.87229537963867 0.06880950927734375 C 59.87911605834961 0.06915283203125 59.88663482666016 0.06951904296875 59.89347457885742 0.06984710693359375 C 59.90030288696289 0.0701904296875 59.90743637084961 0.07053375244140625 59.91425704956055 0.0708770751953125 C 59.92488098144531 0.0713958740234375 59.93023681640625 0.0716552734375 59.94085693359375 0.07219696044921875 C 59.94768905639648 0.072540283203125 59.95648574829102 0.0729827880859375 59.96331024169922 0.07332611083984375 C 59.97013092041016 0.07367706298828125 59.97848129272461 0.07408905029296875 59.98530578613281 0.07444000244140625 C 59.99213409423828 0.0747833251953125 59.9989128112793 0.07514190673828125 60.00573348999023 0.07547760009765625 C 60.01635360717773 0.076019287109375 60.02170562744141 0.07630157470703125 60.03234100341797 0.07684326171875 C 60.03915786743164 0.0771942138671875 60.04787063598633 0.07763671875 60.05469512939453 0.0780029296875 C 60.06151580810547 0.0783538818359375 60.06930923461914 0.07877349853515625 60.07614135742188 0.0791168212890625 C 60.08296203613281 0.0794677734375 60.08988952636719 0.07982635498046875 60.09671401977539 0.0802001953125 C 60.10733032226562 0.08075714111328125 60.11236953735352 0.08103179931640625 60.12297439575195 0.0815887451171875 C 60.12979507446289 0.0819549560546875 60.13874053955078 0.08243560791015625 60.14556121826172 0.082794189453125 C 60.15238189697266 0.08316802978515625 60.16028213500977 0.08358001708984375 60.1671028137207 0.083953857421875 C 60.17391586303711 0.084320068359375 60.18043518066406 0.08466339111328125 60.187255859375 0.08504486083984375 C 60.19787216186523 0.0856170654296875 60.20460510253906 0.08597564697265625 60.21521759033203 0.08657073974609375 C 60.2220344543457 0.08693695068359375 60.22963333129883 0.0873565673828125 60.2364501953125 0.087738037109375 C 60.24175262451172 0.08803558349609375 60.25194931030273 0.08860015869140625 60.25724411010742 0.0888824462890625 C 60.26444625854492 0.08928680419921875 60.27070999145508 0.08962249755859375 60.27790451049805 0.09003448486328125 C 60.28850936889648 0.09062957763671875 60.29491424560547 0.09098052978515625 60.30551910400391 0.091583251953125 C 60.31233215332031 0.09195709228515625 60.32039642333984 0.09241485595703125 60.32720947265625 0.09281158447265625 C 60.33402252197266 0.0931854248046875 60.34210968017578 0.0936431884765625 60.34892654418945 0.09404754638671875 C 60.35423278808594 0.09435272216796875 60.36373519897461 0.094879150390625 60.3690299987793 0.0951995849609375 C 60.37963104248047 0.0958099365234375 60.38541412353516 0.09615325927734375 60.39601516723633 0.0967559814453125 C 60.40283203125 0.09714508056640625 60.41117477416992 0.0976409912109375 60.4179801940918 0.09803009033203125 C 60.42327880859375 0.09833526611328125 60.43376922607422 0.09896087646484375 60.43906402587891 0.09926605224609375 C 60.44626235961914 0.0996856689453125 60.45280838012695 0.1000595092773438 60.46000671386719 0.100494384765625 C 60.46910095214844 0.1010360717773438 60.47705078125 0.10150146484375 60.48612976074219 0.1020431518554688 C 60.49293899536133 0.1024551391601562 60.50168991088867 0.10296630859375 60.50849914550781 0.1033782958984375 C 60.5137939453125 0.1036911010742188 60.52463912963867 0.1043243408203125 60.52994155883789 0.1046676635742188 C 60.54660415649414 0.1056594848632812 60.5607795715332 0.1065292358398438 60.57746887207031 0.1075515747070312 C 60.58427810668945 0.1079635620117188 60.59247589111328 0.1084747314453125 60.59927749633789 0.10888671875 C 60.60457611083984 0.1092071533203125 60.61503601074219 0.1098709106445312 60.62031936645508 0.1101837158203125 C 60.62789535522461 0.1106491088867188 60.63277053833008 0.1109542846679688 60.64034271240234 0.1114273071289062 C 60.64034271240234 0.1114273071289062 60.64290618896484 0.1115798950195312 60.64290618896484 0.1115798950195312 C 60.65198516845703 0.112152099609375 60.65973281860352 0.1126174926757812 60.66881561279297 0.1132049560546875 C 60.67561721801758 0.1136245727539062 60.68358612060547 0.1141281127929688 60.69039535522461 0.1145553588867188 C 60.69718933105469 0.114990234375 60.70513916015625 0.1154937744140625 60.71194076538086 0.1159210205078125 C 60.72102355957031 0.1165008544921875 60.72671127319336 0.1168746948242188 60.73578262329102 0.1174392700195312 C 60.74296569824219 0.1178970336914062 60.75191116333008 0.1184463500976562 60.75909042358398 0.1189346313476562 C 60.76589202880859 0.119354248046875 60.77413940429688 0.1198959350585938 60.78093338012695 0.1203384399414062 C 60.78773498535156 0.1207809448242188 60.79522323608398 0.1212539672851562 60.80202484130859 0.1217041015625 C 60.81109619140625 0.1222991943359375 60.81666946411133 0.1226577758789062 60.82574844360352 0.1232528686523438 C 60.83293151855469 0.12371826171875 60.84341812133789 0.1243972778320312 60.8505973815918 0.1248855590820312 C 60.85738754272461 0.1253280639648438 60.86539077758789 0.1258468627929688 60.87218856811523 0.126312255859375 C 60.87898635864258 0.1267547607421875 60.88622665405273 0.1272506713867188 60.89303588867188 0.1276931762695312 C 60.90210723876953 0.1282958984375 60.90913772583008 0.12872314453125 60.9182014465332 0.1293792724609375 C 60.92538070678711 0.1298599243164062 60.9339599609375 0.1304244995117188 60.94112777709961 0.13092041015625 C 60.94792175292969 0.131378173828125 60.95557022094727 0.13189697265625 60.96236419677734 0.132354736328125 C 60.96916198730469 0.1328125 60.97663116455078 0.1333236694335938 60.98341369628906 0.1337814331054688 C 60.99248123168945 0.1344070434570312 61.00025939941406 0.1349105834960938 61.00933837890625 0.13555908203125 C 61.01612854003906 0.1360244750976562 61.02590560913086 0.136688232421875 61.03269577026367 0.1371688842773438 C 61.03948593139648 0.13763427734375 61.04660415649414 0.1381378173828125 61.05339431762695 0.1385955810546875 C 61.06018447875977 0.1390762329101562 61.06755447387695 0.13958740234375 61.07434463500977 0.1400527954101562 C 61.08490753173828 0.1407852172851562 61.09006118774414 0.1411361694335938 61.10062789916992 0.1418991088867188 C 61.10590744018555 0.1422653198242188 61.11703109741211 0.1430740356445312 61.12231826782227 0.1434249877929688 C 61.12910842895508 0.1439056396484375 61.13692474365234 0.1444473266601562 61.14371490478516 0.1449356079101562 C 61.1505012512207 0.145416259765625 61.15760040283203 0.1459274291992188 61.16438674926758 0.1464080810546875 C 61.17495727539062 0.1471710205078125 61.18011474609375 0.1475372314453125 61.19067001342773 0.1482925415039062 C 61.19745635986328 0.148773193359375 61.20631790161133 0.1494140625 61.21310424804688 0.14990234375 C 61.21838760375977 0.1502914428710938 61.22879791259766 0.1510543823242188 61.23408126831055 0.1514205932617188 C 61.24086761474609 0.15191650390625 61.2484130859375 0.1524734497070312 61.25519943237305 0.1529617309570312 C 61.26575469970703 0.1537322998046875 61.27088165283203 0.1541290283203125 61.28145217895508 0.1548843383789062 C 61.28823471069336 0.1553802490234375 61.2970085144043 0.1560211181640625 61.30379104614258 0.156524658203125 C 61.31057357788086 0.1570281982421875 61.31808853149414 0.1575851440429688 61.32487106323242 0.1580810546875 C 61.33165740966797 0.1585845947265625 61.33862686157227 0.159088134765625 61.34541320800781 0.1596145629882812 C 61.35596084594727 0.1603775024414062 61.36038970947266 0.16070556640625 61.3709716796875 0.1615219116210938 C 61.37775039672852 0.1620254516601562 61.38693237304688 0.1627120971679688 61.39372253417969 0.1632308959960938 C 61.39899826049805 0.16363525390625 61.4096794128418 0.1644439697265625 61.41496276855469 0.1648330688476562 C 61.42363357543945 0.165496826171875 61.4273796081543 0.1657867431640625 61.43605422973633 0.1664352416992188 C 61.44659805297852 0.1672439575195312 61.45204162597656 0.1676559448242188 61.46260452270508 0.1684646606445312 C 61.46938323974609 0.1689910888671875 61.47739791870117 0.1696090698242188 61.48416900634766 0.1701202392578125 C 61.48944091796875 0.1705322265625 61.50000762939453 0.1713180541992188 61.50528717041016 0.1717529296875 C 61.51244735717773 0.17230224609375 61.51897048950195 0.1728057861328125 61.526123046875 0.1733627319335938 C 61.53667068481445 0.1741867065429688 61.54219818115234 0.17462158203125 61.55273818969727 0.1754379272460938 C 61.55952453613281 0.1759796142578125 61.5678596496582 0.1766281127929688 61.57463073730469 0.177154541015625 C 61.57990646362305 0.1775741577148438 61.59033966064453 0.1784133911132812 61.59560012817383 0.178802490234375 C 61.60464096069336 0.1795196533203125 61.60712432861328 0.1797561645507812 61.61615371704102 0.1804275512695312 C 61.62519454956055 0.18115234375 61.63388442993164 0.1818466186523438 61.64291763305664 0.18255615234375 C 61.64968109130859 0.18310546875 61.65796279907227 0.1837539672851562 61.66473388671875 0.1843032836914062 C 61.67000579833984 0.1847152709960938 61.67998123168945 0.185516357421875 61.68524551391602 0.1859512329101562 C 61.7003173828125 0.187164306640625 61.71245574951172 0.188140869140625 61.72752380371094 0.1893692016601562 C 61.73276901245117 0.1897811889648438 61.74307250976562 0.1906280517578125 61.74835205078125 0.1910629272460938 C 61.7551155090332 0.191619873046875 61.76333999633789 0.1922988891601562 61.77010345458984 0.192840576171875 C 61.77912139892578 0.1935806274414062 61.78615570068359 0.1941604614257812 61.79518890380859 0.1949081420898438 C 61.79518890380859 0.1949081420898438 61.7986946105957 0.1951904296875 61.7986946105957 0.1951904296875 C 61.80772399902344 0.1959457397460938 61.81482315063477 0.1965560913085938 61.82387924194336 0.1972732543945312 C 61.83063888549805 0.1978302001953125 61.83816528320312 0.1984481811523438 61.84494018554688 0.1990280151367188 C 61.85020446777344 0.1994705200195312 61.8607177734375 0.2003631591796875 61.86599731445312 0.2007827758789062 C 61.8735237121582 0.201416015625 61.8792839050293 0.2018966674804688 61.88681030273438 0.2025299072265625 C 61.88681030273438 0.2025299072265625 61.88850784301758 0.2026748657226562 61.88850784301758 0.2026748657226562 C 61.89753723144531 0.2034378051757812 61.90469360351562 0.2040328979492188 61.91371917724609 0.2047958374023438 C 61.92047119140625 0.2053680419921875 61.92890167236328 0.2060775756835938 61.9356689453125 0.2066574096679688 C 61.94243240356445 0.2072296142578125 61.94986724853516 0.2078628540039062 61.95662689208984 0.2084426879882812 C 61.96564865112305 0.2092132568359375 61.97288513183594 0.2098236083984375 61.98190307617188 0.210601806640625 C 61.98904800415039 0.211212158203125 61.99766540527344 0.211944580078125 62.00481033325195 0.2125701904296875 C 62.01157760620117 0.2131423950195312 62.01941299438477 0.2138290405273438 62.02617263793945 0.21441650390625 C 62.03292465209961 0.2149887084960938 62.0400505065918 0.215606689453125 62.04681777954102 0.2162017822265625 C 62.05583953857422 0.2169876098632812 62.06272888183594 0.217620849609375 62.07177352905273 0.2183761596679688 C 62.07703399658203 0.2188339233398438 62.09016799926758 0.2199783325195312 62.09543228149414 0.2204437255859375 C 62.10218048095703 0.2210311889648438 62.11003875732422 0.2217330932617188 62.11680221557617 0.222320556640625 C 62.12355804443359 0.2229232788085938 62.13019943237305 0.2235107421875 62.13695526123047 0.2241058349609375 C 62.14746475219727 0.22503662109375 62.15425109863281 0.2256240844726562 62.16477203369141 0.2265701293945312 C 62.17152404785156 0.2271728515625 62.17925262451172 0.2278594970703125 62.18601226806641 0.2284622192382812 C 62.19276428222656 0.22906494140625 62.19970703125 0.2296905517578125 62.20645904541016 0.2302932739257812 C 62.21321105957031 0.23089599609375 62.22044372558594 0.2315521240234375 62.22719573974609 0.2321548461914062 C 62.23771286010742 0.2331085205078125 62.24320983886719 0.2336044311523438 62.25370788574219 0.2345504760742188 C 62.25896072387695 0.235015869140625 62.26985549926758 0.2360153198242188 62.27512741088867 0.2364883422851562 C 62.28187561035156 0.2371063232421875 62.28971099853516 0.2378158569335938 62.29645156860352 0.238433837890625 C 62.30319976806641 0.2390518188476562 62.31034088134766 0.2397003173828125 62.31708908081055 0.2403182983398438 C 62.32759475708008 0.2412796020507812 62.33412933349609 0.2418746948242188 62.34464645385742 0.2428512573242188 C 62.35139465332031 0.24346923828125 62.35911560058594 0.2441787719726562 62.3658561706543 0.24481201171875 C 62.37260818481445 0.2454299926757812 62.37990188598633 0.2461166381835938 62.38664627075195 0.246734619140625 C 62.39339828491211 0.2473602294921875 62.40044021606445 0.2480087280273438 62.40719223022461 0.2486495971679688 C 62.41769409179688 0.2496261596679688 62.42416381835938 0.2502517700195312 62.43466186523438 0.2512130737304688 C 62.44140243530273 0.2518386840820312 62.44977569580078 0.25262451171875 62.45652389526367 0.253265380859375 C 62.4632682800293 0.2539215087890625 62.47051239013672 0.2545852661132812 62.47725296020508 0.255218505859375 C 62.48400115966797 0.2558670043945312 62.49068832397461 0.2564849853515625 62.49742889404297 0.2571334838867188 C 62.50791168212891 0.25811767578125 62.51604843139648 0.2588882446289062 62.52656555175781 0.2599029541015625 C 62.5333137512207 0.26055908203125 62.53969192504883 0.2611618041992188 62.54642868041992 0.2617950439453125 C 62.55316543579102 0.2624435424804688 62.56000900268555 0.2630996704101562 62.56675338745117 0.2637481689453125 C 62.57349395751953 0.2643890380859375 62.58054351806641 0.2650604248046875 62.58727645874023 0.2657241821289062 C 62.5977668762207 0.2667236328125 62.60503768920898 0.2674331665039062 62.61553955078125 0.2684555053710938 C 62.62228012084961 0.26910400390625 62.62893295288086 0.2697601318359375 62.63566589355469 0.2704086303710938 C 62.64091110229492 0.2709197998046875 62.65131759643555 0.2719345092773438 62.65657043457031 0.2724456787109375 C 62.66479873657227 0.2732467651367188 62.67485046386719 0.2742233276367188 62.68308639526367 0.2750396728515625 C 62.69130706787109 0.2758407592773438 62.69789123535156 0.2764892578125 62.70612716674805 0.2773056030273438 C 62.71286010742188 0.2779617309570312 62.71978759765625 0.2786407470703125 62.72652435302734 0.2793197631835938 C 62.7347526550293 0.2801132202148438 62.73881149291992 0.2805252075195312 62.74704360961914 0.2813491821289062 C 62.75487518310547 0.2820968627929688 62.76559448242188 0.2831878662109375 62.7734489440918 0.2839736938476562 C 62.78355026245117 0.2849884033203125 62.78619766235352 0.2852554321289062 62.79630661010742 0.2862548828125 C 62.80303192138672 0.2869415283203125 62.80978775024414 0.2876129150390625 62.8165283203125 0.2882843017578125 C 62.82475280761719 0.28912353515625 62.82842254638672 0.2894744873046875 62.83664703369141 0.290313720703125 C 62.84636688232422 0.2912979125976562 62.85467147827148 0.2921371459960938 62.86438751220703 0.2931137084960938 C 62.8707275390625 0.2937545776367188 62.88059234619141 0.2947540283203125 62.88694381713867 0.2954025268554688 C 62.89181137084961 0.2958984375 62.90177536010742 0.2969131469726562 62.90662384033203 0.2974090576171875 C 62.91485595703125 0.2982559204101562 62.91838073730469 0.2986068725585938 62.92658996582031 0.2994537353515625 C 62.9344367980957 0.300262451171875 62.94817352294922 0.301666259765625 62.95600891113281 0.3024749755859375 C 62.96236419677734 0.3031234741210938 62.9692268371582 0.3038406372070312 62.97557067871094 0.3044891357421875 C 62.98229217529297 0.3051910400390625 62.9883918762207 0.3058013916015625 62.99512100219727 0.3065109252929688 C 63.00185012817383 0.3072052001953125 63.00917816162109 0.3079681396484375 63.01590347290039 0.3086700439453125 C 63.02561187744141 0.3096847534179688 63.03533172607422 0.3106842041015625 63.04504013061523 0.31170654296875 C 63.05138778686523 0.3123703002929688 63.05906295776367 0.3131790161132812 63.06539916992188 0.3138351440429688 C 63.07212066650391 0.314544677734375 63.07846069335938 0.315216064453125 63.08518218994141 0.31591796875 C 63.09191131591797 0.316619873046875 63.09894561767578 0.317352294921875 63.10566711425781 0.3180770874023438 C 63.11574935913086 0.3191375732421875 63.12205123901367 0.3198089599609375 63.13213348388672 0.3208770751953125 C 63.14034652709961 0.3217544555664062 63.14630889892578 0.3223800659179688 63.15451812744141 0.3232574462890625 C 63.1612434387207 0.323974609375 63.16823196411133 0.32470703125 63.17494964599609 0.3254318237304688 C 63.18166732788086 0.3261642456054688 63.1885986328125 0.326904296875 63.19531631469727 0.3276138305664062 C 63.20539093017578 0.328704833984375 63.21416854858398 0.3296432495117188 63.22425079345703 0.330718994140625 C 63.2305908203125 0.3314132690429688 63.23917388916016 0.33233642578125 63.24551010131836 0.3330154418945312 C 63.25222778320312 0.3337478637695312 63.25836181640625 0.33441162109375 63.26506423950195 0.3351287841796875 C 63.27141189575195 0.3358154296875 63.27871704101562 0.3366012573242188 63.28504943847656 0.3373031616210938 C 63.29474258422852 0.338348388671875 63.30368804931641 0.3393325805664062 63.31338119506836 0.34039306640625 C 63.31972503662109 0.3410797119140625 63.32736206054688 0.3419265747070312 63.33369445800781 0.3426132202148438 C 63.34041213989258 0.343353271484375 63.34685897827148 0.34405517578125 63.35356140136719 0.3447952270507812 C 63.36027526855469 0.3455352783203125 63.36754608154297 0.3463363647460938 63.37427139282227 0.347076416015625 C 63.38471984863281 0.3482284545898438 63.39194107055664 0.3490371704101562 63.40237808227539 0.350189208984375 C 63.41057586669922 0.3510971069335938 63.41484069824219 0.3515625 63.42303848266602 0.3524856567382812 C 63.42975616455078 0.3532333374023438 63.43650817871094 0.3539962768554688 63.44320678710938 0.3547286987304688 C 63.44991683959961 0.3554763793945312 63.45700454711914 0.3562774658203125 63.46371459960938 0.3570175170898438 C 63.47415924072266 0.3581924438476562 63.48151779174805 0.3590316772460938 63.49195098876953 0.3601913452148438 C 63.49866485595703 0.3609466552734375 63.5067024230957 0.3618545532226562 63.51340866088867 0.36260986328125 C 63.52012634277344 0.363372802734375 63.52661514282227 0.3640899658203125 63.53331756591797 0.3648605346679688 C 63.54263305664062 0.3658905029296875 63.55391311645508 0.3671875 63.56321334838867 0.3682479858398438 C 63.57140350341797 0.3691787719726562 63.57474899291992 0.3695526123046875 63.58294296264648 0.3704986572265625 C 63.58926010131836 0.3712234497070312 63.59695816040039 0.372100830078125 63.60328674316406 0.3728256225585938 C 63.61149215698242 0.3737716674804688 63.61479949951172 0.3741378784179688 63.62298965454102 0.3750839233398438 C 63.63229370117188 0.3761520385742188 63.6402702331543 0.3770675659179688 63.64956283569336 0.3781356811523438 C 63.65775299072266 0.37908935546875 63.66373825073242 0.3797683715820312 63.67193222045898 0.3807220458984375 C 63.67677688598633 0.3812789916992188 63.68721389770508 0.3824996948242188 63.69204330444336 0.3830490112304688 C 63.69874572753906 0.3838272094726562 63.70469665527344 0.3845291137695312 63.71139907836914 0.3852996826171875 C 63.71957397460938 0.3862457275390625 63.72983551025391 0.3874435424804688 63.73803329467773 0.3884048461914062 C 63.74807739257812 0.3895721435546875 63.75102996826172 0.3899154663085938 63.76108169555664 0.3911056518554688 C 63.76778793334961 0.3918914794921875 63.77460861206055 0.3926849365234375 63.78130340576172 0.3934783935546875 C 63.78948974609375 0.3944549560546875 63.79297256469727 0.3948593139648438 63.8011589050293 0.3958206176757812 C 63.80934524536133 0.3967819213867188 63.81643676757812 0.3976287841796875 63.82461547851562 0.398590087890625 C 63.83318328857422 0.3996047973632812 63.84032821655273 0.4004669189453125 63.84886932373047 0.4014663696289062 C 63.85556793212891 0.4022598266601562 63.86371994018555 0.4032440185546875 63.87041473388672 0.4040298461914062 C 63.87859344482422 0.4050064086914062 63.88229751586914 0.40545654296875 63.89048767089844 0.4064254760742188 C 63.89828109741211 0.4073715209960938 63.90944290161133 0.40869140625 63.91724014282227 0.409637451171875 C 63.92728042602539 0.41082763671875 63.92920303344727 0.4110641479492188 63.93925476074219 0.4122848510742188 C 63.94594192504883 0.4130783081054688 63.95329284667969 0.413970947265625 63.95998764038086 0.4147796630859375 C 63.96815490722656 0.4157638549804688 63.97149276733398 0.416168212890625 63.97967147827148 0.4171676635742188 C 63.98784255981445 0.4181594848632812 63.99402618408203 0.4188995361328125 64.00220489501953 0.4198989868164062 C 64.01075744628906 0.4209442138671875 64.01884460449219 0.42193603515625 64.02738952636719 0.4229660034179688 C 64.03407287597656 0.4237899780273438 64.04198455810547 0.4247589111328125 64.04868316650391 0.425567626953125 C 64.05685424804688 0.42657470703125 64.06048583984375 0.4270172119140625 64.06866455078125 0.4280166625976562 C 64.07831573486328 0.4291915893554688 64.08745574951172 0.4303131103515625 64.09711456298828 0.4315185546875 C 64.10342407226562 0.4322891235351562 64.1114501953125 0.43328857421875 64.11776733398438 0.4340667724609375 C 64.12445068359375 0.434906005859375 64.13130187988281 0.4357376098632812 64.13800048828125 0.4365768432617188 C 64.14616394042969 0.4375839233398438 64.14997863769531 0.4380569458007812 64.15814208984375 0.4390792846679688 C 64.16741943359375 0.4402084350585938 64.17947387695312 0.4417190551757812 64.18873596191406 0.4428863525390625 C 64.19504547119141 0.4436874389648438 64.20110321044922 0.4444351196289062 64.20741271972656 0.4452285766601562 C 64.21410369873047 0.446075439453125 64.22068786621094 0.4468917846679688 64.22737121582031 0.4477310180664062 C 64.23553466796875 0.4487457275390625 64.23905944824219 0.4491958618164062 64.24723815917969 0.450225830078125 C 64.25502777099609 0.4512176513671875 64.26850128173828 0.452911376953125 64.27628326416016 0.4538955688476562 C 64.28258514404297 0.4547042846679688 64.29086303710938 0.45574951171875 64.29716491699219 0.45654296875 C 64.30532836914062 0.4575729370117188 64.30929565429688 0.4580841064453125 64.31745910644531 0.4591140747070312 C 64.31931304931641 0.4593505859375 64.32147216796875 0.459625244140625 64.32333374023438 0.459869384765625 C 64.33815002441406 0.4617538452148438 64.35416412353516 0.4637985229492188 64.36897277832031 0.4656982421875 C 64.37527465820312 0.4665145874023438 64.38076782226562 0.4672164916992188 64.38706970214844 0.468017578125 C 64.39335632324219 0.4687957763671875 64.40023803710938 0.469696044921875 64.40653991699219 0.47052001953125 C 64.412841796875 0.4713287353515625 64.41923522949219 0.4721450805664062 64.42552947998047 0.4729690551757812 C 64.42738342285156 0.4732131958007812 64.429931640625 0.473541259765625 64.43178558349609 0.4737777709960938 C 64.440673828125 0.4749298095703125 64.44656372070312 0.4756927490234375 64.4554443359375 0.4768447875976562 C 64.46171569824219 0.4776382446289062 64.46926116943359 0.4786376953125 64.47556304931641 0.4794540405273438 C 64.48371887207031 0.48052978515625 64.48692321777344 0.4809494018554688 64.49507141113281 0.48199462890625 C 64.49693298339844 0.48223876953125 64.50018310546875 0.482666015625 64.50204467773438 0.48291015625 C 64.51683807373047 0.4848403930664062 64.52976989746094 0.4865341186523438 64.5445556640625 0.4884719848632812 C 64.55084991455078 0.4893035888671875 64.55693054199219 0.4900894165039062 64.56321716308594 0.4909286499023438 C 64.57136535644531 0.4919967651367188 64.57557678222656 0.4925460815429688 64.58372497558594 0.4936294555664062 C 64.5855712890625 0.4938735961914062 64.58932495117188 0.4943695068359375 64.5911865234375 0.4946136474609375 C 64.60597229003906 0.4965667724609375 64.61907958984375 0.4983062744140625 64.63386535644531 0.500274658203125 C 64.64015197753906 0.5011062622070312 64.64714813232422 0.502044677734375 64.65343475341797 0.5028762817382812 C 64.66158294677734 0.50396728515625 64.66511535644531 0.5044326782226562 64.67325592041016 0.505523681640625 C 64.67510986328125 0.505767822265625 64.67671966552734 0.5059814453125 64.67857360839844 0.5062332153320312 C 64.693359375 0.508209228515625 64.70822906494141 0.5102005004882812 64.72300720214844 0.5121917724609375 C 64.72930145263672 0.513031005859375 64.73612213134766 0.5139541625976562 64.74240875244141 0.5148086547851562 C 64.74870300292969 0.5156173706054688 64.75588989257812 0.5166168212890625 64.76217651367188 0.5174713134765625 C 64.76403045654297 0.5177230834960938 64.76548767089844 0.5179214477539062 64.76734161376953 0.5181732177734375 C 64.78211975097656 0.520172119140625 64.79758453369141 0.5222702026367188 64.81235504150391 0.5242843627929688 C 64.81864929199219 0.5251541137695312 64.82479858398438 0.5259780883789062 64.83108520507812 0.5268325805664062 C 64.8392333984375 0.5279541015625 64.84228515625 0.5283584594726562 64.85041809082031 0.52947998046875 C 64.85227203369141 0.5297317504882812 64.85523986816406 0.5301361083984375 64.85708618164062 0.5303878784179688 C 64.87185668945312 0.53240966796875 64.88604736328125 0.53436279296875 64.90081787109375 0.5363922119140625 C 64.9071044921875 0.5372772216796875 64.91353607177734 0.5381546020507812 64.91981506347656 0.5390167236328125 C 64.92608642578125 0.5398635864257812 64.9337158203125 0.5409317016601562 64.94000244140625 0.54180908203125 C 64.94000244140625 0.54180908203125 64.94235229492188 0.5421295166015625 64.94235229492188 0.5421295166015625 C 64.95858764648438 0.5443801879882812 64.97267150878906 0.5463333129882812 64.98890686035156 0.5485992431640625 C 64.99371337890625 0.5492706298828125 65.00379180908203 0.5506668090820312 65.00859069824219 0.5513458251953125 C 65.01487731933594 0.552215576171875 65.02207183837891 0.5532302856445312 65.02835083007812 0.554107666015625 C 65.03019714355469 0.5543670654296875 65.03044128417969 0.5543975830078125 65.03228759765625 0.554656982421875 C 65.0411376953125 0.5559005737304688 65.05215454101562 0.5574417114257812 65.06100463867188 0.558685302734375 C 65.06100463867188 0.558685302734375 65.06466674804688 0.5592041015625 65.06466674804688 0.5592041015625 C 65.07094573974609 0.5600967407226562 65.07807159423828 0.5611038208007812 65.08434295654297 0.5619735717773438 C 65.08914184570312 0.5626678466796875 65.09922790527344 0.564056396484375 65.10403442382812 0.56475830078125 C 65.11030578613281 0.565643310546875 65.11641693115234 0.5665130615234375 65.12269592285156 0.5673980712890625 C 65.13154602050781 0.5686492919921875 65.13995361328125 0.5698471069335938 65.1488037109375 0.57110595703125 C 65.1488037109375 0.57110595703125 65.15317535400391 0.5717239379882812 65.15317535400391 0.5717239379882812 C 65.15945434570312 0.5726165771484375 65.16682434082031 0.5736618041992188 65.173095703125 0.5745620727539062 C 65.17788696289062 0.57525634765625 65.18731689453125 0.5765914916992188 65.19210815429688 0.5772781372070312 C 65.19837951660156 0.5781707763671875 65.20428466796875 0.57904052734375 65.21055603027344 0.5799179077148438 C 65.21940612792969 0.5811843872070312 65.22825622558594 0.58245849609375 65.23710632324219 0.5837326049804688 C 65.24337005615234 0.5846176147460938 65.24845886230469 0.585357666015625 65.25473022460938 0.5862655639648438 C 65.25952911376953 0.5869674682617188 65.26892852783203 0.5883102416992188 65.27372741699219 0.5890121459960938 C 65.27998352050781 0.5899124145507812 65.28775787353516 0.591033935546875 65.29402160644531 0.5919418334960938 C 65.29402160644531 0.5919418334960938 65.297119140625 0.5923919677734375 65.297119140625 0.5923919677734375 C 65.30743408203125 0.5938873291015625 65.31744384765625 0.5953369140625 65.32775115966797 0.5968399047851562 C 65.32775115966797 0.5968399047851562 65.3299560546875 0.5971603393554688 65.3299560546875 0.5971603393554688 C 65.33622741699219 0.5980682373046875 65.34367370605469 0.599151611328125 65.34991455078125 0.600067138671875 C 65.35618591308594 0.600982666015625 65.36192321777344 0.6017990112304688 65.36817932128906 0.6027374267578125 C 65.38290405273438 0.604888916015625 65.39822387695312 0.6071319580078125 65.41294860839844 0.6092987060546875 C 65.41920471191406 0.6101913452148438 65.42532348632812 0.6111221313476562 65.43159484863281 0.6120376586914062 C 65.43785858154297 0.6129608154296875 65.4449462890625 0.6139984130859375 65.45120239257812 0.6149368286132812 C 65.45304870605469 0.615203857421875 65.45556640625 0.6155776977539062 65.45741271972656 0.6158523559570312 C 65.47213745117188 0.6180267333984375 65.48832702636719 0.6204299926757812 65.50304412841797 0.6226119995117188 C 65.50930023193359 0.6235580444335938 65.51425170898438 0.6242828369140625 65.5205078125 0.625213623046875 C 65.52677154541016 0.6261444091796875 65.533447265625 0.6271438598632812 65.53971099853516 0.6280746459960938 C 65.54155731201172 0.6283493041992188 65.54389953613281 0.6287002563476562 65.54574584960938 0.6289749145507812 C 65.56045532226562 0.6311721801757812 65.57562255859375 0.6334457397460938 65.59032440185547 0.635650634765625 C 65.59658813476562 0.6366043090820312 65.60270690917969 0.6375045776367188 65.60896301269531 0.638458251953125 C 65.61521911621094 0.6393814086914062 65.6220703125 0.6404342651367188 65.62832641601562 0.6413726806640625 C 65.63017272949219 0.6416549682617188 65.63160705566406 0.6418685913085938 65.63344573974609 0.64215087890625 C 65.64814758300781 0.6443710327148438 65.66500854492188 0.6469192504882812 65.67970275878906 0.6491546630859375 C 65.68598175048828 0.6500930786132812 65.69052124023438 0.6508026123046875 65.69677734375 0.6517486572265625 C 65.70486450195312 0.6529617309570312 65.70860290527344 0.6535415649414062 65.71670532226562 0.6547775268554688 C 65.71854400634766 0.655059814453125 65.71971130371094 0.655242919921875 65.7215576171875 0.655517578125 C 65.73625183105469 0.6577606201171875 65.75222778320312 0.6602096557617188 65.76692199707031 0.6624603271484375 C 65.77317810058594 0.6634292602539062 65.77944946289062 0.6643829345703125 65.78569030761719 0.66534423828125 C 65.79379272460938 0.6665878295898438 65.79679870605469 0.6670455932617188 65.80489349365234 0.6682968139648438 C 65.80673980712891 0.6685867309570312 65.8082275390625 0.6688156127929688 65.81007385253906 0.669097900390625 C 65.82476043701172 0.6713638305664062 65.84032440185547 0.67376708984375 65.85501098632812 0.6760482788085938 C 65.86126708984375 0.6769943237304688 65.86729431152344 0.6779556274414062 65.87355041503906 0.678924560546875 C 65.88163757324219 0.68017578125 65.88526916503906 0.6807479858398438 65.89336395263672 0.6820068359375 C 65.89520263671875 0.6822891235351562 65.8958740234375 0.6823959350585938 65.89771270751953 0.6826858520507812 C 65.91239929199219 0.684967041015625 65.92762756347656 0.687347412109375 65.94230651855469 0.6896438598632812 C 65.94854736328125 0.690643310546875 65.95484161376953 0.691619873046875 65.96109008789062 0.6925888061523438 C 65.96917724609375 0.6938552856445312 65.97235107421875 0.6943511962890625 65.98043823242188 0.6956329345703125 C 65.98228454589844 0.6959228515625 65.98695373535156 0.6966552734375 65.98880004882812 0.6969451904296875 C 66.00347900390625 0.6992568969726562 66.01628112792969 0.7012786865234375 66.03096008300781 0.7036056518554688 C 66.03720092773438 0.7045822143554688 66.04349517822266 0.7055892944335938 66.04973602294922 0.706573486328125 C 66.05781555175781 0.7078628540039062 66.06178283691406 0.7084808349609375 66.06985473632812 0.7097702026367188 C 66.07170104980469 0.7100601196289062 66.07138061523438 0.7100143432617188 66.07322692871094 0.7103042602539062 C 66.087890625 0.7126388549804688 66.10330200195312 0.7150955200195312 66.11796569824219 0.717437744140625 C 66.12272644042969 0.7182159423828125 66.13324737548828 0.719879150390625 66.13801574707031 0.7206497192382812 C 66.14425659179688 0.7216339111328125 66.15116882324219 0.722747802734375 66.15740966796875 0.7237548828125 C 66.15924072265625 0.7240524291992188 66.16150665283203 0.7244110107421875 66.16334533691406 0.7247085571289062 C 66.17214202880859 0.7261199951171875 66.17845153808594 0.7271347045898438 66.18724060058594 0.7285537719726562 C 66.1953125 0.7298355102539062 66.19749450683594 0.7302017211914062 66.20556640625 0.73150634765625 C 66.21218872070312 0.7325820922851562 66.21878051757812 0.7336349487304688 66.22537231445312 0.734710693359375 C 66.23345947265625 0.73602294921875 66.23750305175781 0.7366790771484375 66.24558258056641 0.73797607421875 C 66.24742126464844 0.73828125 66.24970245361328 0.7386474609375 66.25154113769531 0.7389450073242188 C 66.26033020019531 0.7403717041015625 66.26701354980469 0.741455078125 66.27580261230469 0.742889404296875 C 66.28202819824219 0.7438812255859375 66.28802490234375 0.744873046875 66.29425048828125 0.7458953857421875 C 66.29902648925781 0.746673583984375 66.30949401855469 0.7483901977539062 66.31426239013672 0.7491607666015625 C 66.32048797607422 0.7501449584960938 66.32733917236328 0.7512893676757812 66.33357238769531 0.7523193359375 C 66.33541870117188 0.7526168823242188 66.33650207519531 0.7527999877929688 66.33833312988281 0.7530975341796875 C 66.34858703613281 0.7547760009765625 66.35734558105469 0.7562103271484375 66.36759948730469 0.7578964233398438 C 66.36759948730469 0.7578964233398438 66.36981201171875 0.7582626342773438 66.36981201171875 0.7582626342773438 C 66.37604522705078 0.7592926025390625 66.38275146484375 0.7603836059570312 66.38898468017578 0.7614212036132812 C 66.39668273925781 0.7626800537109375 66.40035247802734 0.7632675170898438 66.40803527832031 0.7645645141601562 C 66.42853546142578 0.7679443359375 66.45156860351562 0.7717666625976562 66.47206115722656 0.7751693725585938 C 66.47976684570312 0.77642822265625 66.48329162597656 0.77703857421875 66.49098205566406 0.7783203125 C 66.4971923828125 0.7793655395507812 66.5037841796875 0.7804489135742188 66.510009765625 0.781494140625 C 66.510009765625 0.781494140625 66.51022338867188 0.781524658203125 66.51022338867188 0.781524658203125 C 66.52046203613281 0.7832412719726562 66.53021240234375 0.7848663330078125 66.54045104980469 0.7865829467773438 C 66.54666137695312 0.7876129150390625 66.55295562744141 0.7886734008789062 66.55917358398438 0.7897262573242188 C 66.56687164306641 0.7910079956054688 66.57081604003906 0.7916793823242188 66.57850646972656 0.79296875 C 66.58033752441406 0.7932815551757812 66.58193969726562 0.793548583984375 66.58377838134766 0.7938613891601562 C 66.59986877441406 0.79656982421875 66.61626434326172 0.7993316650390625 66.63234710693359 0.8020553588867188 C 66.63234710693359 0.8020553588867188 66.63300323486328 0.8021697998046875 66.63300323486328 0.8021697998046875 C 66.63922119140625 0.8032073974609375 66.64630126953125 0.8044357299804688 66.65253448486328 0.8054733276367188 C 66.66021728515625 0.8067703247070312 66.66363525390625 0.807373046875 66.67131042480469 0.8086624145507812 C 66.68592834472656 0.8111495971679688 66.70323181152344 0.8140945434570312 66.71784973144531 0.81658935546875 C 66.72406768798828 0.817626953125 66.72915649414062 0.8185272216796875 66.73537445068359 0.8195877075195312 C 66.74306488037109 0.8209152221679688 66.74666595458984 0.821533203125 66.75434875488281 0.8228378295898438 C 66.75617980957031 0.823150634765625 66.75680541992188 0.8232574462890625 66.75863647460938 0.823577880859375 C 66.77325439453125 0.826080322265625 66.79114532470703 0.8291549682617188 66.80574798583984 0.8316726684570312 C 66.81197357177734 0.8327560424804688 66.81627655029297 0.8334884643554688 66.82249450683594 0.834564208984375 C 66.82868957519531 0.8356475830078125 66.83570861816406 0.8368453979492188 66.84193420410156 0.8379287719726562 C 66.84376525878906 0.8382415771484375 66.84515380859375 0.8384857177734375 66.84698486328125 0.8387985229492188 C 66.86158752441406 0.8413314819335938 66.87831115722656 0.8442306518554688 66.89290618896484 0.846771240234375 C 66.89912414550781 0.8478622436523438 66.90495300292969 0.848876953125 66.91116333007812 0.8499526977539062 C 66.91116333007812 0.8499526977539062 66.91533660888672 0.850677490234375 66.91533660888672 0.850677490234375 C 66.92117309570312 0.8516998291015625 66.92436981201172 0.8522567749023438 66.93020629882812 0.853271484375 C 66.93203735351562 0.8535919189453125 66.93093872070312 0.8534011840820312 66.93276977539062 0.8537216186523438 C 66.95027923583984 0.856781005859375 66.9649658203125 0.8593521118164062 66.98248291015625 0.8624343872070312 C 66.98248291015625 0.8624343872070312 66.98371887207031 0.8626480102539062 66.98371887207031 0.8626480102539062 C 66.98954772949219 0.8636703491210938 66.99320983886719 0.86431884765625 66.99905395507812 0.8653411865234375 C 66.99905395507812 0.8653411865234375 67.00279235839844 0.8660049438476562 67.00279235839844 0.8660049438476562 C 67.00863647460938 0.867034912109375 67.01225280761719 0.8676681518554688 67.01808929443359 0.8686981201171875 C 67.01808929443359 0.8686981201171875 67.01956176757812 0.86895751953125 67.01956176757812 0.86895751953125 C 67.03706359863281 0.8720474243164062 67.05197906494141 0.8746795654296875 67.06947326660156 0.8777847290039062 C 67.07130432128906 0.8781051635742188 67.06965637207031 0.8778152465820312 67.07148742675781 0.8781356811523438 C 67.07731628417969 0.8791732788085938 67.08135986328125 0.8798904418945312 67.08719635009766 0.8809280395507812 C 67.08719635009766 0.8809280395507812 67.08981323242188 0.8813934326171875 67.08981323242188 0.8813934326171875 C 67.09564971923828 0.8824310302734375 67.09954833984375 0.88311767578125 67.10537719726562 0.8841552734375 C 67.10537719726562 0.8841552734375 67.10765075683594 0.8845596313476562 67.10765075683594 0.8845596313476562 C 67.1309814453125 0.8887100219726562 67.15135192871094 0.8923492431640625 67.17466735839844 0.8965301513671875 C 67.17466735839844 0.8965301513671875 67.17735290527344 0.8970108032226562 67.17735290527344 0.8970108032226562 C 67.20066833496094 0.9011917114257812 67.22078704833984 0.9048080444335938 67.24409484863281 0.9090118408203125 C 67.24592590332031 0.9093475341796875 67.24478149414062 0.9091415405273438 67.24661254882812 0.9094696044921875 C 67.25244140625 0.9105224609375 67.25666046142578 0.911285400390625 67.26248168945312 0.9123382568359375 C 67.26248168945312 0.9123382568359375 67.26433563232422 0.9126739501953125 67.26433563232422 0.9126739501953125 C 67.28764343261719 0.9168853759765625 67.30845642089844 0.9206619262695312 67.33174896240234 0.9249038696289062 C 67.33357238769531 0.9252395629882812 67.33210754394531 0.9249725341796875 67.33393859863281 0.9253005981445312 C 67.33975982666016 0.9263687133789062 67.34305572509766 0.9269638061523438 67.348876953125 0.9280319213867188 C 67.35507965087891 0.9291610717773438 67.36177062988281 0.9303817749023438 67.36795043945312 0.9315109252929688 C 67.36795043945312 0.9315109252929688 67.36927795410156 0.9317550659179688 67.36927795410156 0.9317550659179688 C 67.38674926757812 0.9349441528320312 67.4012451171875 0.9376068115234375 67.41871643066406 0.9408111572265625 C 67.4205322265625 0.9411468505859375 67.419677734375 0.9409866333007812 67.42149353027344 0.9413223266601562 C 67.42732238769531 0.9423904418945312 67.43113708496094 0.9430923461914062 67.43696594238281 0.9441680908203125 C 67.43878173828125 0.9445037841796875 67.43777465820312 0.9443206787109375 67.43960571289062 0.9446563720703125 C 67.46288299560547 0.9489364624023438 67.48324584960938 0.95269775390625 67.50651550292969 0.9570159912109375 C 67.50833892822266 0.9573516845703125 67.50682067871094 0.9570693969726562 67.50863647460938 0.9574050903320312 C 67.51445770263672 0.9584884643554688 67.51781463623047 0.9591064453125 67.52363586425781 0.9601898193359375 C 67.52545166015625 0.9605255126953125 67.52597045898438 0.9606246948242188 67.52779388427734 0.9609603881835938 C 67.54960632324219 0.9650115966796875 67.57204437255859 0.9691925048828125 67.59384918212891 0.9732666015625 C 67.59567260742188 0.9736099243164062 67.59403991699219 0.9733047485351562 67.59586334228516 0.9736480712890625 C 67.60167694091797 0.9747314453125 67.60640716552734 0.975616455078125 67.61222076416016 0.9767074584960938 C 67.61222076416016 0.9767074584960938 67.61294555664062 0.9768447875976562 67.61294555664062 0.9768447875976562 C 67.63619995117188 0.981201171875 67.65855407714844 0.9853973388671875 67.68179321289062 0.9897842407226562 C 67.68179321289062 0.9897842407226562 67.68254852294922 0.9899215698242188 67.68254852294922 0.9899215698242188 C 67.68836212158203 0.9910202026367188 67.69364929199219 0.9920196533203125 67.699462890625 0.9931182861328125 C 67.70128631591797 0.9934616088867188 67.69825744628906 0.992889404296875 67.70008850097656 0.9932327270507812 C 67.72332763671875 0.9976272583007812 67.74592590332031 1.001907348632812 67.7691650390625 1.006332397460938 C 67.7691650390625 1.006332397460938 67.76956176757812 1.006401062011719 67.76956176757812 1.006401062011719 C 67.82763671875 1.017448425292969 67.88423156738281 1.028305053710938 67.94224548339844 1.039527893066406 C 67.94224548339844 1.039527893066406 67.94471740722656 1.040008544921875 67.94471740722656 1.040008544921875 C 88.18163299560547 4.954719543457031 104.6037292480469 19.56504821777344 111.0954818725586 38.75356292724609 C 111.62646484375 40.32304382324219 110.7846069335938 42.02578735351562 109.2151260375977 42.5567626953125 C 107.6456680297852 43.08775329589844 105.9429244995117 42.24587249755859 105.4119415283203 40.67640686035156 C 98.39496612548828 19.93538665771484 78.95806884765625 6.000007629394531 57.04570388793945 6.000007629394531 C 55.38884353637695 6.000007629394531 54.04570388793945 4.6568603515625 54.04570388793945 3.000007629394531 C 54.04570388793945 1.343147277832031 55.38884353637695 7.62939453125e-06 57.04570388793945 7.62939453125e-06 C 57.04570388793945 7.62939453125e-06 57.04570388793945 7.62939453125e-06 57.04570388793945 7.62939453125e-06 Z" stroke="none" fill="#ffa200"/>
  </g>
</svg>
