<svg id="direction-sign" xmlns="http://www.w3.org/2000/svg" width="64" height="64" viewBox="0 0 64 64">
  <g id="Group_371" data-name="Group 371" transform="translate(34.5 7)">
    <path id="Path_682" data-name="Path 682" d="M304.25,262.25l-7.5,6.25H276V256h20.75Z" transform="translate(-276 -231)" fill="#ffa200"/>
    <path id="Path_683" data-name="Path 683" d="M304.25,62.25l-7.5,6.25H276V56h20.75Z" transform="translate(-276 -56)" fill="#ffa200"/>
  </g>
  <path id="Path_685" data-name="Path 685" d="M38.25,156v12.5H17.5L10,162.25,17.5,156Z" transform="translate(-8.75 -136.5)" fill="#ffa200"/>
  <path id="Path_690" data-name="Path 690" d="M55.25,20.75a1.249,1.249,0,0,0,.8-.29l7.5-6.25a1.25,1.25,0,0,0,0-1.92l-7.5-6.25a1.249,1.249,0,0,0-.8-.29H35.75v-2a3.75,3.75,0,0,0-7.5,0v14.5H8.75a1.25,1.25,0,0,0-.8.29L.45,24.79a1.25,1.25,0,0,0,0,1.921l7.5,6.25a1.25,1.25,0,0,0,.8.29h19.5V54H21.3a3.745,3.745,0,0,0-3.558,2.565L16.1,61.5H12A1.25,1.25,0,0,0,12,64H53a1.25,1.25,0,0,0,0-2.5H47.9l-1.645-4.935A3.745,3.745,0,0,0,42.7,54H35.75V45.75h19.5a1.249,1.249,0,0,0,.8-.29l7.5-6.25a1.25,1.25,0,0,0,0-1.921l-7.5-6.25a1.249,1.249,0,0,0-.8-.29H35.75v-10ZM54.8,8.25l6,5-6,5H35.75v-10ZM9.2,30.75l-6-5,6-5H28.25v10ZM43.884,57.355,45.266,61.5H18.734l1.382-4.145A1.249,1.249,0,0,1,21.3,56.5H42.7A1.249,1.249,0,0,1,43.884,57.355ZM30.75,54V3.75a1.25,1.25,0,0,1,2.5,0V54ZM54.8,33.25l6,5-6,5H35.75v-10Z" fill="#016d53"/>
</svg>
