<svg xmlns="http://www.w3.org/2000/svg" width="16" height="13" viewBox="0 0 16 13">
    <path
        d="M13.4214299,5.32907052e-15 C14.4886575,0.00296235006 15.3530806,0.867385475 15.356043,1.936 L15.356043,1.936 L15.356043,10.550387 C15.3530806,11.6176145 14.4886575,12.4820376 13.420043,12.485 L13.420043,12.485 L1.93465599,12.485 C0.867428431,12.4820376 0.00300530567,11.6176145 4.29556081e-05,10.549 L4.29556081e-05,10.549 L4.29556081e-05,1.93461303 C6.63106228e-05,1.92619907 0.000143211145,1.91779771 0.000273335087,1.90940927 C0.00100739137,1.90323971 0.00143489342,1.89719729 0.00197286731,1.89115882 C0.0264866845,0.844100053 0.881919262,0.00292217944 1.93604296,5.32907052e-15 L1.93604296,5.32907052e-15 Z M14.356043,2.895 L7.96477796,7.36961328 C7.81721916,7.47290649 7.62779786,7.48766818 7.46827338,7.41389598 L7.39133476,7.36963205 L0.999042956,2.895 L1.00004103,10.547613 C1.00137301,11.0277868 1.36261442,11.4232312 1.82713048,11.4784219 L1.93604296,11.4850019 L13.418656,11.4850019 C13.9357663,11.4835675 14.3546104,11.0647233 14.3560449,10.549 L14.3560449,10.549 L14.356043,2.895 Z M13.418656,0.999998076 L1.93742992,0.999998076 C1.50260382,1.00120426 1.13725911,1.29755005 1.03114658,1.69846 L7.67704296,6.349 L14.324671,1.69827124 C14.2182122,1.29705177 13.8531164,1.00120324 13.418656,0.999998076 L13.418656,0.999998076 Z"
        transform="translate(.196)" />
</svg>