<svg xmlns="http://www.w3.org/2000/svg" width="20" viewBox="0 0 384 278">
    <path
        d="M368 154.667969L16 154.667969C7.167969 154.667969 0 147.5 0 138.667969 0 129.835938 7.167969 122.667969 16 122.667969L368 122.667969C376.832031 122.667969 384 129.835938 384 138.667969 384 147.5 376.832031 154.667969 368 154.667969zM368 32L16 32C7.167969 32 0 24.832031 0 16 0 7.167969 7.167969 0 16 0L368 0C376.832031 0 384 7.167969 384 16 384 24.832031 376.832031 32 368 32zM368 277.332031L16 277.332031C7.167969 277.332031 0 270.164062 0 261.332031 0 252.5 7.167969 245.332031 16 245.332031L368 245.332031C376.832031 245.332031 384 252.5 384 261.332031 384 270.164062 376.832031 277.332031 368 277.332031z" />
</svg>