<svg id="lifebuoy" xmlns="http://www.w3.org/2000/svg" width="63.145" height="63.145" viewBox="0 0 63.145 63.145">
  <path id="Path_712" data-name="Path 712" d="M68.885,38.237a24.908,24.908,0,0,0-16.144,0,14.49,14.49,0,0,1-12.17,14.3h0a14.318,14.318,0,0,1-2.318.186h0A24.915,24.915,0,0,0,38.128,68.5c.04.123.081.244.123.366h0l.41,0,.331-.006c.149,0,.3-.008.443-.014l.378-.016.035,0c.124-.006.248-.012.37-.021s.235-.015.351-.024A30.637,30.637,0,0,0,68.886,38.238h0ZM38.25,7.6h0A30.634,30.634,0,0,0,7.617,38.237h0a24.9,24.9,0,0,1,16.144,0A14.489,14.489,0,0,1,38.25,23.748a24.914,24.914,0,0,1-.123-15.777C38.168,7.848,38.209,7.727,38.25,7.6Z" transform="translate(-6.678 -6.665)" fill="#ffa200"/>
  <path id="Path_714" data-name="Path 714" d="M49.655,5.688A.938.938,0,0,0,48.58,7.225,29.75,29.75,0,0,1,61.238,30.288a26.019,26.019,0,0,0-14.29.024A15.449,15.449,0,0,0,32.259,16.161a24.12,24.12,0,0,1-.008-14.277,29.7,29.7,0,0,1,13.889,3.8.938.938,0,0,0,.922-1.634,31.619,31.619,0,1,0,2.593,1.633ZM10.574,10.574A29.484,29.484,0,0,1,30.289,1.9,26.019,26.019,0,0,0,30.312,16.2,15.452,15.452,0,0,0,16.2,30.311,26.018,26.018,0,0,0,1.9,30.289,29.482,29.482,0,0,1,10.574,10.574ZM1.884,32.252a24.119,24.119,0,0,1,14.278.007,15.455,15.455,0,0,0,.43,3.013.938.938,0,1,0,1.821-.448,13.551,13.551,0,1,1,1.114,2.965.938.938,0,1,0-1.666.861,15.377,15.377,0,0,0,12.451,8.3,26.019,26.019,0,0,0-.023,14.294,29.694,29.694,0,0,1-28.4-28.989ZM52.571,52.571a29.491,29.491,0,0,1-20.32,8.69,24.12,24.12,0,0,1,.007-14.277A15.447,15.447,0,0,0,46.984,32.259a24.12,24.12,0,0,1,14.277-.008A29.491,29.491,0,0,1,52.571,52.571Z" fill="#016d53"/>
</svg>
