<svg xmlns="http://www.w3.org/2000/svg" width="15" height="14" viewBox="0 0 15 14">
    <path
        d="M9.744 4.416C7.27970545 4.416 5.282 6.41370545 5.282 8.878L5.282 13.5C5.282 13.7761424 5.50585763 14 5.782 14L8.423 14C8.69914237 14 8.923 13.7761424 8.923 13.5L8.923 8.878C8.91459314 8.56565553 9.06919347 8.28616298 9.32649635 8.13444578 9.58379923 7.98272858 9.90320077 7.98272858 10.1605037 8.13444578 10.4178065 8.28616298 10.5724069 8.56565553 10.5641893 8.86424446L10.564 13.5C10.564 13.7761424 10.7878576 14 11.064 14L13.706 14C13.9821424 14 14.206 13.7761424 14.206 13.5L14.206 8.878C14.206 6.41370545 12.2082946 4.416 9.744 4.416zM9.93395025 5.42112264C11.7576203 5.51973492 13.206 7.02972386 13.206 8.878L13.206 12.999 11.564 12.999 11.564 8.878C11.5820376 8.22947728 11.23913 7.60955531 10.6684253 7.27304249 10.0977206 6.93652967 9.3892794 6.93652967 8.81857472 7.27304249L8.69097807 7.35562051C8.19725191 7.70517855 7.90636444 8.28042176 7.92318925 8.89175554L7.923 12.999 6.282 12.999 6.282 8.878C6.282 6.9659902 7.8319902 5.416 9.744 5.416L9.93395025 5.42112264zM3.5 5L.5 5C.223857625 5 0 5.22385763 0 5.5L0 13.5C0 13.7761424.223857625 14 .5 14L3.5 14C3.77614237 14 4 13.7761424 4 13.5L4 5.5C4 5.22385763 3.77614237 5 3.5 5zM3 6L3 13 1 13 1 6 3 6zM2 0C.8954305 0 0 .8954305 0 2 0 3.1045695.8954305 4 2 4 3.1045695 4 4 3.1045695 4 2 4 .8954305 3.1045695 0 2 0zM2 1C2.55228475 1 3 1.44771525 3 2 3 2.55228475 2.55228475 3 2 3 1.44771525 3 1 2.55228475 1 2 1 1.44771525 1.44771525 1 2 1z" />
</svg>