<svg xmlns="http://www.w3.org/2000/svg" width="124.642" height="20.906" viewBox="0 0 124.642 20.906">
  <g id="Group_271" data-name="Group 271" transform="translate(-133 -16.159)">
    <g id="_1951853643024" transform="translate(133 16.159)">
      <circle id="Ellipse_1" data-name="Ellipse 1" cx="9.871" cy="9.871" r="9.871" transform="translate(0 0)" fill="#016d53"/>
      <path id="Path_2" data-name="Path 2" d="M896.639,1176.956a.8.8,0,0,1,.871-1.341,7.889,7.889,0,0,1,3.4,5.374,15.491,15.491,0,0,1-.6,7.646,7.488,7.488,0,0,1-1.652-.093,15.61,15.61,0,0,0,.683-7.259,6.34,6.34,0,0,0-2.694-4.327Z" transform="translate(-890.198 -1168.9)" fill="#fff"/>
      <path id="Path_3" data-name="Path 3" d="M990.288,1270.886a.8.8,0,0,1,.031,1.6,5.689,5.689,0,0,0-3.525.989,4.775,4.775,0,0,0-1.506,3.368.8.8,0,0,1-1.592-.176,6.265,6.265,0,0,1,2.089-4.434A7.176,7.176,0,0,1,990.288,1270.886Z" transform="translate(-974.306 -1260.691)" fill="#fff"/>
      <path id="Path_4" data-name="Path 4" d="M812.462,1078.9a.8.8,0,1,1,1.579.276,7.306,7.306,0,1,1-2.109-6.5.8.8,0,0,1-1.116,1.147,5.707,5.707,0,1,0,1.645,5.08Z" transform="translate(-797.141 -1067.993)" fill="#fff"/>
    </g>
    <path id="Path_155" data-name="Path 155" d="M1422.39,1094.561a6.445,6.445,0,0,1-2.637-.541,6.562,6.562,0,0,1-2.137-1.511,7.062,7.062,0,0,1-1.43-2.265,7.545,7.545,0,0,1-.515-2.811,7.716,7.716,0,0,1,.482-2.733,6.9,6.9,0,0,1,1.389-2.27,6.453,6.453,0,0,1,2.187-1.547,7.074,7.074,0,0,1,2.869-.56,8.463,8.463,0,0,1,1.81.2,8.548,8.548,0,0,1,1.749.585,6.9,6.9,0,0,1,1.514.945l-1.264,2.088a5.028,5.028,0,0,0-1.749-1.045,5.946,5.946,0,0,0-2.026-.369,4.12,4.12,0,0,0-1.733.344,3.545,3.545,0,0,0-1.27.97,4.318,4.318,0,0,0-.782,1.458,6.414,6.414,0,0,0,.033,3.765,4.609,4.609,0,0,0,.837,1.506,3.724,3.724,0,0,0,1.256.973,3.567,3.567,0,0,0,1.55.341,3.822,3.822,0,0,0,1.286-.222,3.6,3.6,0,0,0,1.1-.618,3.032,3.032,0,0,0,.765-.94,2.51,2.51,0,0,0,.283-1.181v-.208h-3.6v-2.087h6.346v2.079a5.028,5.028,0,0,1-.518,2.29,5.577,5.577,0,0,1-1.42,1.788,6.7,6.7,0,0,1-2.029,1.164,6.8,6.8,0,0,1-2.345.413Zm8.136-.266v-8.516h2.554V1087a3.385,3.385,0,0,1,1.161-1.1,2.948,2.948,0,0,1,1.475-.385,3.511,3.511,0,0,1,.931.133,2.953,2.953,0,0,1,.807.341l-1.064,2.154a2.368,2.368,0,0,0-.66-.3,2.48,2.48,0,0,0-.7-.111,1.875,1.875,0,0,0-.948.258,2.124,2.124,0,0,0-.724.668,1.571,1.571,0,0,0-.274.887v4.757h-2.554Zm11.954.266a5.493,5.493,0,0,1-2.537-.579,4.6,4.6,0,0,1-1.8-1.6,4.487,4.487,0,0,1,0-4.7,4.561,4.561,0,0,1,1.8-1.6,5.89,5.89,0,0,1,5.084,0,4.575,4.575,0,0,1,1.794,1.6,4.515,4.515,0,0,1,0,4.7,4.575,4.575,0,0,1-1.794,1.6,5.509,5.509,0,0,1-2.545.579Zm.008-2.179a2.37,2.37,0,0,0,1.181-.3,2.213,2.213,0,0,0,.84-.829,2.566,2.566,0,0,0,0-2.437,2.206,2.206,0,0,0-.84-.826,2.484,2.484,0,0,0-2.365,0,2.213,2.213,0,0,0-.837.826,2.565,2.565,0,0,0,0,2.437,2.226,2.226,0,0,0,.837.829A2.358,2.358,0,0,0,1442.489,1092.382Zm17.751,2.179a7.739,7.739,0,0,1-2.919-.549,7.634,7.634,0,0,1-2.4-1.527,7.064,7.064,0,0,1-1.622-2.265,6.883,6.883,0,0,1,.005-5.553,7.154,7.154,0,0,1,1.622-2.271,7.592,7.592,0,0,1,2.4-1.525,7.694,7.694,0,0,1,2.905-.549,8.031,8.031,0,0,1,2.409.358,6.873,6.873,0,0,1,1.957.94l-1.164,2.287a4.164,4.164,0,0,0-1.356-.69,5.566,5.566,0,0,0-1.672-.25,5.138,5.138,0,0,0-1.891.341,4.671,4.671,0,0,0-1.514.948,4.38,4.38,0,0,0,0,6.37,4.669,4.669,0,0,0,1.514.948,5.131,5.131,0,0,0,1.891.341,5.566,5.566,0,0,0,1.672-.25,4.166,4.166,0,0,0,1.356-.69l1.164,2.287a6.812,6.812,0,0,1-1.921.931A7.892,7.892,0,0,1,1460.24,1094.561Zm9.2,0a4.014,4.014,0,0,1-2.132-.588,4.227,4.227,0,0,1-1.522-1.613,5.156,5.156,0,0,1-.022-4.641,4.167,4.167,0,0,1,1.495-1.614,4.029,4.029,0,0,1,2.182-.593,4.17,4.17,0,0,1,1.694.344,3.36,3.36,0,0,1,1.284.962v-1.04h2.553v8.516h-2.553v-1.123a4.051,4.051,0,0,1-1.339,1.031,3.789,3.789,0,0,1-1.639.357Zm.757-2.171a2.286,2.286,0,0,0,1.181-.3,2.145,2.145,0,0,0,.807-.835,2.681,2.681,0,0,0,0-2.434,2.2,2.2,0,0,0-.807-.832,2.438,2.438,0,0,0-2.351,0,2.212,2.212,0,0,0-.815.837,2.436,2.436,0,0,0-.3,1.214,2.466,2.466,0,0,0,.3,1.214,2.166,2.166,0,0,0,.81.835,2.284,2.284,0,0,0,1.181.3Zm7.246,6.229v-12.841H1480v1.04a3.46,3.46,0,0,1,1.28-.965,4,4,0,0,1,1.647-.341,4.1,4.1,0,0,1,2.193.591,4.2,4.2,0,0,1,1.514,1.613,5.135,5.135,0,0,1,0,4.627,4.209,4.209,0,0,1-1.5,1.622,3.982,3.982,0,0,1-2.151.6,3.841,3.841,0,0,1-1.647-.363,3.917,3.917,0,0,1-1.339-1.026v5.447h-2.553Zm4.782-6.229a2.268,2.268,0,0,0,1.178-.3,2.162,2.162,0,0,0,.8-.832,2.633,2.633,0,0,0-.008-2.423,2.254,2.254,0,0,0-.807-.84,2.2,2.2,0,0,0-1.164-.308,2.247,2.247,0,0,0-2,1.142,2.615,2.615,0,0,0,0,2.425,2.144,2.144,0,0,0,.818.835,2.314,2.314,0,0,0,1.181.3Zm6.773,1.9v-8.516h2.553v8.516Zm1.28-10.288a1.464,1.464,0,0,1-.76-.2,1.559,1.559,0,0,1-.555-.552,1.47,1.47,0,0,1-.208-.765,1.427,1.427,0,0,1,.208-.757,1.583,1.583,0,0,1,.555-.546,1.463,1.463,0,0,1,.76-.2,1.446,1.446,0,0,1,.757.2,1.554,1.554,0,0,1,.546.546,1.444,1.444,0,0,1,.2.757,1.487,1.487,0,0,1-.2.765,1.532,1.532,0,0,1-.546.552A1.452,1.452,0,0,1,1490.28,1084.007Zm6.69,10.554a2.488,2.488,0,0,1-1.979-.812,3.334,3.334,0,0,1-.707-2.265v-3.768h-1.14v-1.937h1.14v-3.194h2.553v3.194h1.871v1.937h-1.871v3.585a1.17,1.17,0,0,0,.2.732.659.659,0,0,0,.552.249,1.283,1.283,0,0,0,.765-.266l.64,2.046a4.118,4.118,0,0,1-.967.366,4.365,4.365,0,0,1-1.054.133Zm7.213,0a4.013,4.013,0,0,1-2.132-.588,4.224,4.224,0,0,1-1.522-1.613,5.154,5.154,0,0,1-.022-4.641,4.164,4.164,0,0,1,1.494-1.614,4.03,4.03,0,0,1,2.182-.593,4.171,4.171,0,0,1,1.694.344,3.359,3.359,0,0,1,1.284.962v-1.04h2.553v8.516h-2.553v-1.123a4.05,4.05,0,0,1-1.339,1.031,3.789,3.789,0,0,1-1.639.357Zm.757-2.171a2.285,2.285,0,0,0,1.181-.3,2.145,2.145,0,0,0,.807-.835,2.489,2.489,0,0,0,.291-1.214,2.463,2.463,0,0,0-.294-1.22,2.2,2.2,0,0,0-.807-.832,2.438,2.438,0,0,0-2.351,0,2.212,2.212,0,0,0-.815.837,2.436,2.436,0,0,0-.3,1.214,2.465,2.465,0,0,0,.3,1.214,2.165,2.165,0,0,0,.81.835,2.284,2.284,0,0,0,1.181.3Zm7.247,1.9V1079.99h2.553V1094.3Z" transform="translate(-1257.097 -1061.556)"/>
  </g>
</svg>
