<svg xmlns="http://www.w3.org/2000/svg" width="30" height="30" viewBox="0 0 30 30">
    <g fill="none" fillRule="evenodd" transform="translate(1 1)">
        <circle cx="14" cy="14" r="14" />
        <path fill="#CFCFCF" fillRule="nonzero"
            d="M14,0 C6.2680135,0 0,6.2680135 0,14 C0,21.7319865 6.2680135,28 14,28 C21.7319865,28 28,21.7319865 28,14 C28,6.2680135 21.7319865,0 14,0 Z M14,2 C20.627417,2 26,7.372583 26,14 C26,20.627417 20.627417,26 14,26 C7.372583,26 2,20.627417 2,14 C2,7.372583 7.372583,2 14,2 Z" />
        <g transform="translate(9 6)">
            <circle cx="5" cy="5" r="5" />
            <path fill="#CFCFCF" fillRule="nonzero"
                d="M5,-1.11022302e-16 C2.23857625,-1.11022302e-16 -1.11022302e-16,2.23857625 -1.11022302e-16,5 C-1.11022302e-16,7.76142375 2.23857625,10 5,10 C7.76142375,10 10,7.76142375 10,5 C10,2.23857625 7.76142375,-1.11022302e-16 5,-1.11022302e-16 Z M5,2 C6.65685425,2 8,3.34314575 8,5 C8,6.65685425 6.65685425,8 5,8 C3.34314575,8 2,6.65685425 2,5 C2,3.34314575 3.34314575,2 5,2 Z" />
        </g>
        <path fill="#CFCFCF" fillRule="nonzero"
            d="M14.028,17.501 C16.6098382,17.501 19.3161865,18.3132408 22.0028801,19.6600317 C22.9330203,20.1262941 23.7952091,20.6253984 24.5696067,21.125269 L25.0410584,21.436869 L25.4882248,21.7507024 L25.5660156,21.8085156 L24.3619844,23.4054844 L24.1301506,23.2379295 L23.7803285,22.9992308 L23.4849558,22.805606 C22.7684941,22.3431328 21.968261,21.8798934 21.1066199,21.4479683 C18.6739385,20.2285092 16.2499118,19.501 14.028,19.501 L13.9150787,19.5016333 C11.7206232,19.526179 9.31949744,20.2508946 6.90264737,21.4498298 C6.03107104,21.8821957 5.22029515,22.3459156 4.49334493,22.8088996 L4.06212326,23.0898138 L3.83797601,23.2419724 L3.60199791,23.409986 L2.41000209,21.804014 L2.68818826,21.60551 L2.94167071,21.4331281 L3.41896757,21.1219754 C4.20303297,20.6226156 5.07483521,20.1239918 6.01385263,19.6581702 C8.52016727,18.4148541 11.0358993,17.6269093 13.4427331,17.5148043 L13.8927094,17.5017584 L14.028,17.501 Z" />
    </g>
</svg>