<svg id="Page-1" xmlns="http://www.w3.org/2000/svg" width="116.498" height="22.483" viewBox="0 0 116.498 22.483">
  <g id="Logotype" transform="translate(0 0)">
    <g id="qb-logo" transform="translate(0 0)">
      <g id="Group">
        <path id="Shape" d="M213.606,38.81c0-.238-.2-.324-.41-.324h-.388v1.106h.2v-.462h.142l.259.462h.241l-.3-.484a.294.294,0,0,0,.254-.3Zm-.6.159v-.315h.181c.1,0,.22.03.22.151s-.129.164-.241.164h-.16Zm.185-.907a.976.976,0,1,0,.983.98.979.979,0,0,0-.983-.98Zm0,1.809a.829.829,0,1,1,.828-.829.831.831,0,0,1-.828.829ZM149.98,38.228a2.3,2.3,0,0,1-2.162-2.531,2.171,2.171,0,0,1,3.782-1.736l1.521-1.519a4.565,4.565,0,1,0-3.159,7.806,4.354,4.354,0,0,0,3.2-1.143l-1.48-1.591a2.354,2.354,0,0,1-1.7.714Zm-8.509,1.779h2.361V31.442h-2.361v8.566Zm-4.293-3.869a1.959,1.959,0,0,1-1.875,2.09c-.941,0-1.443-.672-1.443-2.056V31.442H131.5v5.316c0,1.769.881,3.491,3.237,3.491a3.4,3.4,0,0,0,2.51-1.523h.035v1.282h2.257V31.442h-2.361v4.7Zm-9.938-3.609h-.052a3.644,3.644,0,0,0-2.7-1.328,4.273,4.273,0,0,0-4.262,4.489c0,2.641,1.712,4.558,4.149,4.558a3.825,3.825,0,0,0,2.748-1.271h.035v5.247h2.361V31.442h-2.275v1.088Zm-2.292,5.7a2.38,2.38,0,0,1-2.29-2.537,2.339,2.339,0,0,1,2.29-2.5,2.429,2.429,0,0,1,2.275,2.538,2.38,2.38,0,0,1-2.274,2.5ZM178.721,31.2a4.415,4.415,0,0,0-4.636,4.49,4.636,4.636,0,0,0,9.271,0,4.414,4.414,0,0,0-4.636-4.49Zm0,7.027a2.313,2.313,0,0,1-2.241-2.537,2.255,2.255,0,1,1,4.481,0,2.313,2.313,0,0,1-2.241,2.537Zm29.515-3.493c-1.215-.291-1.643-.447-1.643-.94,0-.68.86-.829,1.249-.829a2.637,2.637,0,0,1,1.871.855l1.392-1.338a4.2,4.2,0,0,0-3.246-1.282c-1.709,0-3.5.861-3.5,2.784,0,1.652,1.292,2.15,2.556,2.453,1.333.311,1.808.538,1.808,1.076,0,.793-.9.922-1.207.922a3.054,3.054,0,0,1-2.15-1.017l-1.433,1.456a4.782,4.782,0,0,0,3.5,1.393c2.308,0,3.677-1.1,3.677-2.921,0-1.74-1.676-2.325-2.869-2.612Zm-4.463-3.294h-3.045L197.68,35h-.053V26.721h-2.361V40.007h2.361V35.783h.053l3.163,4.225h3.106l-3.675-4.681,3.5-3.884ZM168.765,31.2a3.7,3.7,0,0,0-2.626,1.178h-.044V26.721h-2.36V40.007h2.257V38.8h.035a3.189,3.189,0,0,0,2.687,1.452A4.309,4.309,0,0,0,173,35.69a4.25,4.25,0,0,0-4.233-4.49Zm-.464,7.028a2.38,2.38,0,0,1-2.275-2.5,2.429,2.429,0,0,1,2.275-2.538,2.337,2.337,0,0,1,2.287,2.5,2.379,2.379,0,0,1-2.287,2.537Zm-5.455-6.786H159.8L156.753,35H156.7V26.721H154.34V40.007H156.7V35.783h.053l3.163,4.225h3.106l-3.675-4.681,3.5-3.884Zm26.249-.241a4.415,4.415,0,0,0-4.636,4.49,4.636,4.636,0,0,0,9.271,0,4.414,4.414,0,0,0-4.636-4.49Zm0,7.028a2.314,2.314,0,0,1-2.241-2.538,2.254,2.254,0,1,1,4.481,0,2.313,2.313,0,0,1-2.241,2.537Z" transform="translate(-97.677 -21.742)" fill-rule="evenodd"/>
        <ellipse id="Oval" cx="9.945" cy="9.964" rx="9.945" ry="9.964" fill="#2ca01c"/>
        <path id="Shape-2" data-name="Shape" d="M15.108,25.033a3.871,3.871,0,0,0,3.867,3.875h.552V27.469h-.552a2.436,2.436,0,0,1,0-4.871H20.3v7.528a1.438,1.438,0,0,0,1.436,1.439V21.159H18.975a3.871,3.871,0,0,0-3.867,3.875Zm10.5-3.874h-.552V22.6h.552a2.436,2.436,0,0,1,0,4.871H24.279V19.942A1.438,1.438,0,0,0,22.843,18.5V28.909h2.765a3.875,3.875,0,0,0,0-7.749Z" transform="translate(-12.346 -15.07)" fill="#fff" fill-rule="evenodd"/>
        <path id="Shape-3" data-name="Shape" d="M135.187,6.641a.658.658,0,1,0-.657-.658.658.658,0,0,0,.657.658Zm-3.921.443a1.48,1.48,0,0,0-1.35.826H129.9v-.7h-1.033v4.358h1.087v-2.4a1.065,1.065,0,0,1,1.014-1.18c.7,0,.816.644.816,1.162v2.415h1.087V8.847a1.585,1.585,0,0,0-1.6-1.762Zm-4.6,4.485h1.087V7.212h-1.087V11.57Zm19.775-4.929a.658.658,0,1,0-.657-.658.658.658,0,0,0,.657.658Zm-1.763.568v.965h1.219v3.4h1.088V8.175H148.2V7.21h-3.526Zm-1.849,4.36h1.087V7.212h-1.087V11.57Zm-9.4-3.395h1.219v3.4h1.087v-3.4h1.219V7.21h-3.526v.965Zm7.2,1.434a1.065,1.065,0,0,1-1.015,1.18c-.7,0-.815-.644-.815-1.162V7.212h-1.088V9.936a1.585,1.585,0,0,0,1.6,1.762,1.48,1.48,0,0,0,1.35-.826h.018v.7h1.033V7.212h-1.087v2.4Z" transform="translate(-102.907 -4.373)" fill-rule="evenodd"/>
      </g>
    </g>
  </g>
</svg>
