<svg xmlns="http://www.w3.org/2000/svg" width="63.173" height="69.003" viewBox="0 0 63.173 69.003">
  <g id="smartphone" transform="translate(-21.492)">
    <g id="Group_376" data-name="Group 376" transform="translate(22.509 1.017)">
      <path id="Path_691" data-name="Path 691" d="M35.141,110.609l-5.017-4.074a3.057,3.057,0,1,1,3.855-4.746l1.162.944,5.954,5.206-2.582,5.432Z" transform="translate(-28.994 -88.408)" fill="#edf5f5"/>
      <g id="Group_375" data-name="Group 375" transform="translate(0.623)">
        <path id="Subtraction_3" data-name="Subtraction 3" d="M27.883,55.641H4.441A4.437,4.437,0,0,1,0,51.2V4.441A4.437,4.437,0,0,1,4.441,0H27.08a4.437,4.437,0,0,1,4.441,4.441V52a3.634,3.634,0,0,1-3.637,3.637ZM4.441,4.069a.372.372,0,0,0-.372.371V51.2a.372.372,0,0,0,.372.372H27.452V4.441a.372.372,0,0,0-.372-.372H22.117a.64.64,0,0,0-.612.448l-.112.353a1.543,1.543,0,0,1-1.47,1.076H12.06a1.543,1.543,0,0,1-1.47-1.076l-.112-.353a.64.64,0,0,0-.612-.448Z" transform="translate(5.523)" fill="#ffa200"/>
        <path id="Path_693" data-name="Path 693" d="M74.883,160.64c-.192,0-.382.011-.571.03v28.341a5.76,5.76,0,0,0,6.536-1.752l.173-.213a5.784,5.784,0,0,0,.721-6.144,5.848,5.848,0,0,0,.454-.5l.1-.119a5.776,5.776,0,0,0,.754-6.065,5.853,5.853,0,0,0,.54-.577l.08-.1a5.77,5.77,0,0,0-.842-8.116l-4.307-3.5A5.784,5.784,0,0,0,74.883,160.64Z" transform="translate(-68.789 -139.868)" fill="#edf5f5"/>
        <path id="Path_694" data-name="Path 694" d="M225.715,185.381V158.567l-3.863-4.1a4.261,4.261,0,0,0-6.312.122l-.252.289a8.437,8.437,0,0,0-.295,10.715l4.515,5.791-4.872,8.548a12.4,12.4,0,0,0-1.375,8.642l.091.442h8.727A3.637,3.637,0,0,0,225.715,185.381Z" transform="translate(-188.671 -133.377)" fill="#edf5f5"/>
        <path id="Path_696" data-name="Path 696" d="M213.409,184.949h8.585V154.266a4.259,4.259,0,0,0-6.106.324l-.252.289a8.437,8.437,0,0,0-.295,10.715l4.515,5.791-4.872,8.548a12.4,12.4,0,0,0-1.574,5.015Z" transform="translate(-189.019 -133.377)" fill="#edf5f5"/>
        <path id="Path_697" data-name="Path 697" d="M104.312,169.373v27.206a5.752,5.752,0,0,0,2.467-1.771l.173-.213a5.784,5.784,0,0,0,.721-6.144,5.841,5.841,0,0,0,.454-.5l.1-.119a5.776,5.776,0,0,0,.754-6.065,5.849,5.849,0,0,0,.54-.577l.08-.1a5.77,5.77,0,0,0-.842-8.116l-4.307-3.5C104.4,169.443,104.358,169.408,104.312,169.373Z" transform="translate(-94.719 -147.417)" fill="#edf5f5"/>
        <g id="Group_374" data-name="Group 374" transform="translate(0 22.466)">
          <path id="Path_698" data-name="Path 698" d="M265.831,216.876l-11.739-13.809a2.456,2.456,0,0,1-.585-1.591v-5.237a13.314,13.314,0,0,0-3.625-9.132l-12.716-13.491a1.549,1.549,0,0,0-2.294.044l-.252.289a5.71,5.71,0,0,0-.2,7.264l4.713,6.046a2.231,2.231,0,0,1,.179,2.476l-5.032,8.828a9.7,9.7,0,0,0-1.074,6.753l.375,1.826a9.7,9.7,0,0,0,7.952,7.623l1.8,2.345a1.333,1.333,0,0,0,1.058.522h21.092a.46.46,0,0,0,.35-.757Z" transform="translate(-205.96 -173.13)" fill="#edf5f5"/>
          <path id="Path_699" data-name="Path 699" d="M60.815,189.667l-4.308-3.5a3.057,3.057,0,0,1-.446-4.3l.08-.1a3.057,3.057,0,0,1,4.3-.446l4.308,3.5a3.057,3.057,0,0,1,.446,4.3l-.08.1A3.057,3.057,0,0,1,60.815,189.667Z" transform="translate(-52.422 -179.621)" fill="#edf5f5"/>
          <path id="Path_700" data-name="Path 700" d="M50.333,239.191l-4.344-3.528a3.057,3.057,0,0,1-.446-4.3l.1-.118a3.057,3.057,0,0,1,4.3-.446l4.344,3.528a3.057,3.057,0,0,1,.446,4.3l-.1.118A3.057,3.057,0,0,1,50.333,239.191Z" transform="translate(-43.331 -222.385)" fill="#edf5f5"/>
          <path id="Path_701" data-name="Path 701" d="M39.243,288.2l-4.523-3.673a3.057,3.057,0,0,1-.446-4.3l.173-.214a3.057,3.057,0,0,1,4.3-.446l4.523,3.673a3.057,3.057,0,0,1,.446,4.3l-.173.214A3.057,3.057,0,0,1,39.243,288.2Z" transform="translate(-33.59 -264.541)" fill="#edf5f5"/>
        </g>
      </g>
    </g>
    <g id="Group_377" data-name="Group 377" transform="translate(21.492)">
      <path id="Path_703" data-name="Path 703" d="M46.428,81.572H33.1a3.427,3.427,0,0,1-3.423-3.423V74.4a4.05,4.05,0,0,0,.919.108,4.1,4.1,0,0,0,1.115-.154v3.794A1.39,1.39,0,0,0,33.1,79.537H46.161a1.017,1.017,0,0,0,0-2.035H33.742V73.026L33.763,73a4.079,4.079,0,0,0-.327-5.493,4.07,4.07,0,0,0,1.4-6.735A4.072,4.072,0,0,0,35.969,53.8l-2.227-1.808V32.035h4.5l.029.092a2.551,2.551,0,0,0,2.44,1.786h7.862a2.551,2.551,0,0,0,2.44-1.786l.029-.092H55.09V46.152a1.017,1.017,0,1,0,2.035,0V31.389A1.39,1.39,0,0,0,55.736,30H50.774a1.654,1.654,0,0,0-1.582,1.158l-.112.353a.524.524,0,0,1-.5.367H40.716a.524.524,0,0,1-.5-.366l-.112-.353A1.654,1.654,0,0,0,38.521,30H33.1a1.39,1.39,0,0,0-1.389,1.389V50.344a4.041,4.041,0,0,0-2.035-.787V39.2a1.017,1.017,0,0,0-2.034-.01A4.075,4.075,0,0,0,23,45.865l4.641,3.769v.248a4.075,4.075,0,0,0-1.2,6.654,4.075,4.075,0,0,0-1.4,6.739,4.071,4.071,0,0,0-1.134,6.973l3.731,3.03v4.871A5.464,5.464,0,0,0,33.1,83.606H46.428a1.017,1.017,0,0,0,0-2.034ZM24.281,44.285a2.04,2.04,0,1,1,2.572-3.167l.786.638v5.256Zm3.413,8.042a2.027,2.027,0,0,1,1.373-.743,2.067,2.067,0,0,1,.214-.011,2.025,2.025,0,0,1,1.282.457l4.124,3.349a2.04,2.04,0,1,1-2.572,3.167L27.991,55.2a2.04,2.04,0,0,1-.3-2.869Zm-1.4,6.735a2.036,2.036,0,0,1,2.816-.337l1.723,1.4c.02.016.04.029.06.044l2.394,1.944a2.04,2.04,0,1,1-2.572,3.167L26.59,61.932a2.042,2.042,0,0,1-.3-2.87Zm-1.846,8.232a2.039,2.039,0,0,1,3.253-1.84l1.731,1.406c.02.016.041.03.061.045l2.393,1.944a2.04,2.04,0,1,1-2.572,3.167l-4.124-3.349A2.026,2.026,0,0,1,24.447,67.295Z" transform="translate(-21.492 -25.931)" fill="#016d53"/>
      <path id="Path_704" data-name="Path 704" d="M67.829,9.954a1.017,1.017,0,0,0,1.017-1.017V5.458A3.427,3.427,0,0,1,72.27,2.035H94.909a3.427,3.427,0,0,1,3.423,3.423V24.23a1.017,1.017,0,1,0,2.035,0V5.458A5.464,5.464,0,0,0,94.909,0H72.27a5.464,5.464,0,0,0-5.458,5.458V8.937A1.017,1.017,0,0,0,67.829,9.954Z" transform="translate(-60.665)" fill="#016d53"/>
      <path id="Path_705" data-name="Path 705" d="M429.809,442.068l-6.94-8.164a1.017,1.017,0,1,0-1.55,1.318l6.94,8.164a1.017,1.017,0,1,0,1.55-1.318Z" transform="translate(-366.878 -374.741)" fill="#016d53"/>
      <path id="Path_706" data-name="Path 706" d="M235.856,207.663a1.017,1.017,0,0,0-.645-.385,8.727,8.727,0,0,1-7.118-6.823l-.375-1.826a8.676,8.676,0,0,1,.962-6.045l5.032-8.828a3.238,3.238,0,0,0-.26-3.606l-4.713-6.046a4.7,4.7,0,0,1,.164-5.97l.252-.289a.527.527,0,0,1,.39-.182.52.52,0,0,1,.4.167l7.118,7.664a1.017,1.017,0,1,0,1.481-1.4l-7.118-7.664a2.566,2.566,0,0,0-3.8.073l-.252.289a6.738,6.738,0,0,0-.235,8.558l4.713,6.046a1.21,1.21,0,0,1,.1,1.347l-5.032,8.828a10.71,10.71,0,0,0-1.187,7.462l.375,1.826a10.775,10.775,0,0,0,8.38,8.348l1.959,2.556a1.017,1.017,0,0,0,1.615-1.238Z" transform="translate(-197.834 -143.163)" fill="#016d53"/>
      <path id="Path_707" data-name="Path 707" d="M322.5,249.549a1.44,1.44,0,0,1-.343-.932v-5.237a14.278,14.278,0,0,0-3.9-9.829l-5.243-5.563a1.017,1.017,0,1,0-1.481,1.4l5.243,5.563a12.251,12.251,0,0,1,3.348,8.434v5.237a3.477,3.477,0,0,0,.827,2.25l5.368,6.262a1.017,1.017,0,1,0,1.55-1.318Z" transform="translate(-271.955 -196.787)" fill="#016d53"/>
      <path id="Path_708" data-name="Path 708" d="M162.057,81.718a4.731,4.731,0,1,0,2.213,8.912l1.562,1.562a1.017,1.017,0,0,0,1.439-1.439l-1.446-1.446a4.728,4.728,0,0,0-3.768-7.589Zm-2.7,4.732a2.7,2.7,0,1,1,2.7,2.7A2.7,2.7,0,0,1,159.361,86.45Z" transform="translate(-138.902 -70.634)" fill="#016d53"/>
      <path id="Path_709" data-name="Path 709" d="M146,293.122h-7.956a.3.3,0,0,1-.3-.3v-4.353a.3.3,0,0,1,.3-.3H148.26a1.017,1.017,0,1,0,0-2.035H138.049a2.335,2.335,0,0,0-2.333,2.333v4.353a2.335,2.335,0,0,0,2.333,2.333H146a1.017,1.017,0,1,0,0-2.035Z" transform="translate(-120.223 -247.328)" fill="#016d53"/>
    </g>
  </g>
</svg>
