<svg xmlns="http://www.w3.org/2000/svg" width="15" height="12" viewBox="0 0 15 12">
    <path
        d="M8.61005139,0.335501942 C7.50478556,0.834433073 6.77136843,1.91236688 6.71255299,3.12304223 L6.709,3.42 L6.67466628,3.41988019 C4.86079685,3.30864986 3.18327444,2.3784713 2.1294346,0.875009922 C1.90487754,0.554645421 1.41598208,0.604655945 1.2609391,0.963850827 L1.25389368,0.980173279 C1.14070656,1.2464543 1.00983093,1.63058508 0.89745234,2.10635058 C0.721373963,2.85179523 0.641144003,3.62836219 0.696759163,4.4077159 L0.717635665,4.64258429 C0.908518559,6.43165096 1.81059716,7.95159339 3.56962335,9.02766079 L3.728,9.121 L3.70891413,9.13152351 C2.72369229,9.61883851 1.62769902,9.8545506 0.519913091,9.81039669 C-0.00631908879,9.78942223 -0.203185185,10.4913583 0.257205579,10.7470937 C6.3095222,14.1090017 13.2,10.442412 13.2,3.296 L13.1930335,3.09417275 L13.18,2.96 L13.002152,3.1459386 C13.6893355,2.4679962 14.1745782,1.61240654 14.4037102,0.674682865 C14.5134122,0.225726993 14.0074993,-0.118970944 13.6298203,0.147401845 L13.3550486,0.33035072 C12.9825383,0.564190359 12.5860043,0.757384223 12.1722688,0.906608443 L12.142,0.916 L12.0978212,0.873925243 C11.2052302,0.0734431117 9.92892868,-0.174071153 8.78811465,0.261408544 L8.61005139,0.335501942 Z M11.6255722,1.81694545 C11.7546157,1.96545985 11.95876,2.0244919 12.1471514,1.96776964 L12.4599357,1.86568623 C12.5633178,1.82929199 12.6657945,1.79054401 12.7672879,1.74948029 L12.894,1.694 L12.7990742,1.84130495 C12.6518757,2.05293345 12.4849266,2.25147169 12.299848,2.4340614 C12.18101,2.55130128 12.1285215,2.72011528 12.1599289,2.88407026 C12.1860594,3.0204778 12.1994751,3.1590159 12.2000036,3.29790268 L12.1965194,3.56097876 C12.0529547,8.95716396 7.49578537,11.9976032 2.79459093,10.7153012 L2.479,10.622 L2.7147805,10.5659611 C3.54242323,10.3484144 4.33261872,9.99128724 5.04972071,9.50475824 C5.37428855,9.28455014 5.33050378,8.79342749 4.97210012,8.63410796 C2.81026327,7.67311653 1.82607471,6.18422258 1.69422268,4.33653629 L1.68031253,4.04765356 C1.6662662,3.49016999 1.72621048,2.95907016 1.82777618,2.48396607 L1.9,2.179 L1.99131652,2.27730814 C3.34300938,3.68642335 5.23734631,4.47963957 7.22179616,4.42883623 C7.49286511,4.42189667 7.709,4.20015776 7.709,3.929 L7.709,3.319 C7.69588222,2.37513006 8.2693649,1.52981048 9.144742,1.19565526 C10.0201191,0.861500052 11.0110109,1.10965542 11.6255722,1.81694545 Z" />
</svg>