<?xml version="1.0" standalone="no"?>
<!DOCTYPE svg PUBLIC "-//W3C//DTD SVG 1.1//EN" "http://www.w3.org/Graphics/SVG/1.1/DTD/svg11.dtd" >
<svg xmlns="http://www.w3.org/2000/svg">
<metadata>Generated by IcoMoon</metadata>
<defs>
<font id="icomoon" horiz-adv-x="1024">
<font-face units-per-em="1024" ascent="960" descent="-64" />
<missing-glyph horiz-adv-x="1024" />
<glyph unicode="&#x20;" horiz-adv-x="512" d="" />
<glyph unicode="&#xe900;" glyph-name="close" d="M899.137 938.577c28.564 28.564 74.876 28.564 103.44 0 26.367-26.367 28.395-67.855 6.085-96.549l-6.085-6.891-877.714-877.714c-28.564-28.564-74.876-28.564-103.44 0-26.367 26.367-28.395 67.855-6.085 96.549l6.085 6.891 877.714 877.714zM21.423 938.577c26.367 26.367 67.855 28.395 96.549 6.085l6.891-6.085 877.714-877.714c28.564-28.564 28.564-74.876 0-103.44-26.367-26.367-67.855-28.395-96.549-6.085l-6.891 6.085-877.714 877.714c-28.564 28.564-28.564 74.876 0 103.44z" />
<glyph unicode="&#xe901;" glyph-name="email" d="M894.992 864.275c71.168-0.198 128.81-57.84 129.008-129.1v0-574.443c-0.198-71.168-57.84-128.81-129.1-129.008v0h-765.892c-71.168 0.198-128.81 57.84-129.008 129.1v0 574.443c0.002 0.561 0.007 1.122 0.015 1.681 0.049 0.411 0.077 0.815 0.114 1.217 1.635 69.822 58.679 125.915 128.971 126.11v0zM957.316 671.224l-426.195-298.386c-9.839-6.888-22.472-7.873-33.109-2.953l-5.13 2.952-426.264 298.387 0.067-510.307c0.089-32.020 24.178-58.39 55.153-62.070l7.263-0.438h765.708c34.483 0.096 62.413 28.026 62.509 62.416v0 510.4zM894.807 797.592h-765.615c-28.996-0.080-53.359-19.842-60.435-46.576l443.176-310.116 443.291 310.129c-7.099 26.755-31.445 46.484-60.417 46.563v0z" />
<glyph unicode="&#xe902;" glyph-name="hamburger" d="M981.333 405.329h-938.663c-23.552 0-42.668 19.116-42.668 42.668s19.116 42.668 42.668 42.668h938.663c23.552 0 42.668-19.116 42.668-42.668s-19.116-42.668-42.668-42.668zM981.333 732.443h-938.663c-23.552 0-42.668 19.116-42.668 42.668s19.116 42.668 42.668 42.668h938.663c23.552 0 42.668-19.116 42.668-42.668s-19.116-42.668-42.668-42.668zM981.333 78.223h-938.663c-23.552 0-42.668 19.116-42.668 42.668s19.116 42.668 42.668 42.668h938.663c23.552 0 42.668-19.116 42.668-42.668s-19.116-42.668-42.668-42.668z" />
<glyph unicode="&#xe903;" glyph-name="linkedin" d="M702.37 634.26c-177.633 0-321.631-143.999-321.631-321.631v-333.164c0-19.905 16.137-36.041 36.041-36.041h190.369c19.905 0 36.041 16.137 36.041 36.041v333.164c-0.606 22.515 10.538 42.661 29.085 53.597s41.57 10.936 60.118 0c18.547-10.936 29.691-31.083 29.099-52.606l-0.014-334.156c0-19.905 16.137-36.041 36.041-36.041h190.441c19.905 0 36.041 16.137 36.041 36.041v333.164c0 177.633-143.999 321.631-321.631 321.631zM716.063 561.809c131.454-7.108 235.857-115.952 235.857-249.18v-297.052h-118.36v297.052c1.3 46.747-23.417 91.433-64.555 115.689s-92.203 24.257-133.341 0l-9.198-5.952c-35.589-25.197-56.557-66.662-55.344-110.728l-0.014-296.060h-118.287v297.052c0 137.822 111.727 249.549 249.549 249.549l13.693-0.37zM252.288 592.164h-216.247c-19.905 0-36.041-16.137-36.041-36.041v-576.659c0-19.905 16.137-36.041 36.041-36.041h216.247c19.905 0 36.041 16.137 36.041 36.041v576.659c0 19.905-16.137 36.041-36.041 36.041zM216.247 520.081v-504.576h-144.165v504.576h144.165zM144.165 952.575c-79.62 0-144.165-64.544-144.165-144.165s64.544-144.165 144.165-144.165c79.62 0 144.165 64.544 144.165 144.165s-64.544 144.165-144.165 144.165zM144.165 880.493c39.81 0 72.082-32.272 72.082-72.082s-32.272-72.082-72.082-72.082c-39.81 0-72.082 32.272-72.082 72.082s32.272 72.082 72.082 72.082z" />
<glyph unicode="&#xe904;" glyph-name="plant" d="M411.692 812.856c-89.468 89.417-264.64 99.774-388.434 99.774-12.845 0-23.258-10.413-23.258-23.258v0c0-123.922 10.331-298.966 99.774-388.434 38.060-33.952 88.536-54.7 143.858-54.7 3.227 0 6.437 0.071 9.629 0.211l-0.454-0.015c2.714-0.114 5.897-0.178 9.096-0.178 57.256 0 109.665 20.749 150.12 55.136l-0.331-0.274c66.694 66.516 78.857 232.857 0 311.74zM378.816 533.814c-49.747-49.696-187.894-58.221-246.114 0-72.216 72.216-84.71 218.837-86.059 332.173 113.261-1.349 259.957-13.868 332.173-86.059 58.221-58.221 49.696-196.392 0-246.114zM1000.769 820.667c-123.922 0-298.966-10.331-388.434-99.774-78.882-78.882-66.643-245.224 0-311.867 40.124-34.083 92.519-54.81 149.756-54.81 3.192 0 6.37 0.064 9.531 0.193l-0.453-0.015c2.695-0.12 5.857-0.188 9.033-0.188 55.388 0 105.923 20.775 144.238 54.957l-0.213-0.187c89.417 89.468 99.774 264.64 99.774 388.434 0 12.836-10.398 23.243-23.231 23.258h-0.002zM891.351 441.903c-58.221-58.221-196.392-49.696-246.114 0s-58.221 187.894 0 246.114c72.216 72.216 218.837 84.71 332.173 86.059-1.45-113.312-13.919-260.008-86.135-332.173zM832.876 619.44c-4.405 7.635-12.525 12.691-21.827 12.691-3.983 0-7.749-0.927-11.095-2.577l0.147 0.065c-178.327-83.845-265.912-230.032-305.709-380.291-49.238 319.527-191.66 416.934-252.069 458.284-6.295 3.968-11.726 7.967-16.854 12.313l0.213-0.175c-4.153 3.916-9.765 6.323-15.941 6.323-12.845 0-23.258-10.413-23.258-23.258 0-6.175 2.407-11.788 6.333-15.953l-0.011 0.012c6.928-6.178 14.53-11.984 22.556-17.191l0.727-0.442c68.068-46.541 248.888-170.285 248.888-663.379 0.427-12.51 10.671-22.489 23.245-22.489s22.818 9.979 23.244 22.45l0.001 0.039c0 199.243 53.437 461.897 308.406 581.672 0 0 3.766 1.806 3.766 1.806 7.223 3.583 12.099 10.906 12.099 19.369 0 3.95-1.063 7.652-2.918 10.836l0.055-0.103z" />
<glyph unicode="&#xe905;" glyph-name="profile" d="M512 960c-282.769 0-512-229.23-512-512s229.23-512 512-512c282.769 0 512 229.23 512 512s-229.23 512-512 512zM512 886.857c242.374 0 438.857-196.483 438.857-438.857s-196.483-438.857-438.857-438.857c-242.374 0-438.857 196.483-438.857 438.857s196.483 438.857 438.857 438.857zM512 740.572c-100.99 0-182.857-81.868-182.857-182.857s81.868-182.857 182.857-182.857c100.99 0 182.857 81.868 182.857 182.857s-81.868 182.857-182.857 182.857zM512 667.428c60.594 0 109.714-49.121 109.714-109.714s-49.121-109.714-109.714-109.714c-60.594 0-109.714 49.121-109.714 109.714s49.121 109.714 109.714 109.714zM513.024 319.963c94.422 0 193.396-29.704 291.652-78.959 34.017-17.052 65.548-35.305 93.869-53.585l17.241-11.396 16.353-11.477 2.845-2.114-44.034-58.404-8.478 6.127-12.794 8.73-10.802 7.081c-26.202 16.914-55.468 33.855-86.98 49.651-88.967 44.597-177.617 71.204-258.875 71.204l-4.129-0.024c-80.254-0.898-168.067-27.402-256.455-71.248-31.875-15.812-61.526-32.771-88.112-49.704l-15.77-10.274-8.197-5.565-8.63-6.145-43.593 58.732 10.173 7.26 9.27 6.304 17.456 11.38c28.675 18.262 60.557 36.498 94.899 53.534 91.66 45.47 183.663 74.286 271.684 78.386l16.456 0.477 4.948 0.028z" />
<glyph unicode="&#xe906;" glyph-name="expansion" d="M751.049 377.154v230.504c0 73.493-66.011 176.271-94.389 217.046-21.952 31.988-46.377 62.209-73.050 90.382-30.194 31.057-52.285 44.914-71.611 44.914s-41.417-13.857-71.632-44.914c-26.674-28.173-51.099-58.393-73.050-90.382-28.378-40.775-94.389-143.62-94.389-217.046v-230.504c-98.156-2.153-176.637-82.276-176.758-180.455v-230.615c0-16.565 13.429-29.995 29.995-29.995h24.35c64.85-0.050 127.417 23.941 175.607 67.339l25.589-50.914c5.092-10.122 15.455-16.513 26.785-16.513h266.963c11.331 0 21.692 6.392 26.785 16.513l25.612 50.914c48.191-43.395 110.757-67.386 175.607-67.339h24.35c7.958-0.006 15.594 3.152 21.224 8.777s8.793 13.258 8.793 21.218v230.615c-0.109 98.183-78.598 178.313-176.758 180.455h-0.022zM332.916 577.664h358.143v-431.435h-358.143v431.435zM410.394 781.627c27.388 44.133 61.694 83.574 101.605 116.813 39.865-33.249 74.126-72.69 101.473-116.813 31.547-43.935 56.141-92.465 72.917-143.886h-348.8c16.775 51.421 41.369 99.951 72.917 143.886h-0.111zM156.159-3.811v200.51c0.074 65.064 51.738 118.344 116.769 120.422v-200.864c-0.001-4.69 1.098-9.315 3.21-13.503l21.76-43.21c-36.966-39.091-87.957-61.883-141.739-63.354v0zM626.975-3.811h-229.952l-45.402 90.139h320.754l-45.402-90.139zM867.839-3.811c-53.763 1.489-104.728 24.288-141.672 63.376l21.76 43.188c2.111 4.188 3.211 8.813 3.21 13.503v200.864c65.030-2.078 116.695-55.358 116.769-120.422v-200.51h-0.066zM543.433 391.41c-17.735 5.371-34.644 13.162-50.249 23.154-1.38 2.597-1.705 5.626-0.907 8.456 0.81 5.638 4.616 10.393 9.939 12.419 10.418 3.675 21.972 2.066 30.991-4.317 13.271-9.921 32.072-7.206 41.992 6.066s7.206 32.072-6.066 41.992c-8.212 5.985-17.351 10.585-27.050 13.614v2.457c0 16.565-13.429 29.995-29.995 29.995s-29.995-13.429-29.995-29.995v-3.365c-25.413-9.116-43.997-31.146-48.7-57.731-5.462-24.775 3.35-50.528 22.844-66.763 20.619-14.228 43.31-25.189 67.272-32.496 4.926-1.092 9.21-4.11 11.897-8.381s3.552-9.44 2.403-14.353c-2.041-13.444-13.675-23.331-27.272-23.176-13.53-1.899-27.262 1.643-38.185 9.85-13.864 9.071-32.457 5.187-41.528-8.678s-5.187-32.457 8.678-41.528c12.703-9.002 27.226-15.107 42.546-17.886v-2.058c0-16.565 13.429-29.995 29.995-29.995s29.995 13.429 29.995 29.995v6.176c28.932 11.148 49.817 36.756 54.92 67.339 7.11 38.961-15.801 77.147-53.526 89.21v0z" />
<glyph unicode="&#xe907;" glyph-name="twitter" d="M611.495 852.22c-78.488-35.43-130.57-111.977-134.747-197.951l-0.252-21.087-2.438 0.008c-128.808 7.899-247.933 73.953-322.769 180.718-15.946 22.75-50.664 19.198-61.675-6.309l-0.5-1.159c-8.038-18.91-17.332-46.188-25.312-79.972-12.504-52.936-18.201-108.082-14.252-163.426l1.482-16.679c13.555-127.046 77.614-234.982 202.528-311.396l11.247-6.628-1.356-0.747c-69.963-34.605-147.793-51.344-226.459-48.209-37.369 1.49-51.349-48.357-18.656-66.517 429.791-238.738 919.103 21.637 919.103 529.122l-0.494 14.333-0.925 9.528-12.629-13.204c48.799 48.142 83.257 108.9 99.529 175.49 7.79 31.882-28.136 56.359-54.956 37.444l-19.512-12.992c-26.453-16.605-54.612-30.325-83.993-40.922l-2.15-0.667-3.137 2.988c-63.385 56.845-154.019 74.421-235.031 43.496l-12.645-5.262zM825.635 747.018c9.164-10.546 23.661-14.739 37.039-10.71l22.212 7.249c7.341 2.585 14.619 5.336 21.826 8.252l8.998 3.94-6.741-10.46c-10.453-15.028-22.308-29.127-35.452-42.093-8.439-8.325-12.166-20.314-9.936-31.957 1.856-9.687 2.809-19.525 2.846-29.388l-0.247-18.682c-10.195-383.197-333.811-599.107-667.656-508.047l-22.411 6.626 16.743 3.979c58.774 15.449 114.887 40.809 165.81 75.359 23.048 15.637 19.939 50.513-5.512 61.827-153.518 68.243-223.408 173.973-232.771 305.182l-0.988 20.514c-0.998 39.588 3.26 77.303 10.472 111.042l5.129 21.657 6.484-6.981c95.987-100.065 230.51-156.393 371.43-152.786 19.249 0.493 34.598 16.239 34.598 35.495v43.317c-0.931 67.027 39.793 127.056 101.956 150.784s132.529 6.107 176.171-44.12z" />
<glyph unicode="&#xe908;" glyph-name="inventoryorequipment" d="M545.027 483.776c-19.501 5.909-38.089 14.496-55.231 25.513-2.39 3.379-3.097 7.668-1.917 11.634 1.072 7.039 5.876 12.943 12.549 15.425 12.045 4.185 25.369 2.294 35.775-5.076 13.272-9.921 32.074-7.204 41.995 6.068s7.204 32.074-6.068 41.995c-9.598 6.945-20.364 12.111-31.788 15.251v4.14c0 16.569-13.432 30.001-30.001 30.001s-30.001-13.432-30.001-30.001v-5.948c-26.846-9.521-46.491-32.753-51.418-60.808-5.753-25.942 3.44-52.926 23.835-69.959 22.158-15.259 46.533-27.017 72.268-34.86 12.317-2.863 20.002-15.145 17.19-27.474-2.504-15.752-16.121-27.325-32.071-27.256-15.182-2.050-30.563 1.94-42.834 11.111-13.787 8.048-31.461 3.89-40.214-9.46s-5.519-31.216 7.359-40.651c13.653-9.755 29.329-16.308 45.862-19.173v-4.575c0-16.569 13.432-30.001 30.001-30.001s30.001 13.432 30.001 30.001v7.822c31.912 11.316 55.235 38.97 61.004 72.334 7.486 41.009-16.605 81.21-56.298 93.947v0zM993.997 574.214h-66.56c-8.471 26.96-19.639 52.996-33.334 77.715l63.532 63.183c5.637 5.628 8.805 13.266 8.805 21.232s-3.168 15.604-8.805 21.232l-135.647 135.974c-11.71 11.682-30.666 11.682-42.376 0l-66.93-66.451c-23.927 12.26-48.936 22.281-74.708 29.936v72.965c0 16.569-13.432 30.001-30.001 30.001h-191.967c-16.569 0-30.001-13.432-30.001-30.001v-72.9c-25.767-7.677-50.769-17.72-74.687-30.001l-66.93 66.56c-11.71 11.682-30.666 11.682-42.376 0l-135.756-136.148c-5.637-5.628-8.805-13.266-8.805-21.232s3.168-15.604 8.805-21.232l63.532-63.183c-13.696-24.719-24.864-50.755-33.334-77.715h-66.451c-16.544 0-29.965-13.392-30.001-29.936v-192.403c0-16.569 13.432-30.001 30.001-30.001h66.56c8.47-26.96 19.638-52.997 33.334-77.715l-63.532-63.183c-5.637-5.628-8.805-13.266-8.805-21.232s3.168-15.604 8.805-21.232l135.734-136.061c11.71-11.682 30.666-11.682 42.376 0l66.843 66.516c23.927-12.26 48.936-22.281 74.708-29.936v-72.9c-0.017-7.964 3.133-15.609 8.756-21.248s13.259-8.818 21.223-8.818h191.967c16.569 0 30.001 13.432 30.001 30.001v72.9c25.775 7.675 50.784 17.719 74.708 30.001l66.93-66.495c11.71-11.682 30.666-11.682 42.376 0l135.734 136.061c5.637 5.628 8.805 13.266 8.805 21.232s-3.168 15.604-8.805 21.232l-63.532 63.183c13.696 24.719 24.864 50.755 33.334 77.715h66.56c16.518 0.048 29.89 13.439 29.914 29.957v192.425c0 16.569-13.432 30.001-30.001 30.001zM963.996 381.811h-59.218c-13.734 0.001-25.715-9.323-29.086-22.637-9.325-36.773-24.39-71.846-44.642-103.925-7.487-11.888-5.721-27.38 4.249-37.278l58.826-58.368-93.358-93.685-61.571 61.179c-9.63 9.576-24.492 11.488-36.232 4.662-31.78-18.482-66.096-32.208-101.855-40.742-13.501-3.226-23.026-15.292-23.029-29.173v-65.928h-132.074v66.015c-0.003 13.881-9.528 25.947-23.029 29.173-35.759 8.534-70.075 22.261-101.855 40.742-11.741 6.826-26.602 4.913-36.232-4.662l-61.571-61.179-93.358 93.576 58.826 58.368c9.97 9.898 11.735 25.39 4.249 37.278-20.251 32.080-35.317 67.152-44.642 103.925-3.371 13.314-15.352 22.638-29.086 22.637h-59.305v132.423h59.218c13.734-0.001 25.715 9.323 29.086 22.637 9.324 36.773 24.39 71.846 44.642 103.925 7.487 11.888 5.721 27.38-4.249 37.278l-58.826 58.368 93.358 93.576 61.571-61.179c9.63-9.576 24.492-11.488 36.232-4.662 31.78 18.481 66.096 32.208 101.855 40.742 13.501 3.226 23.026 15.292 23.029 29.173v65.928h131.965v-65.928c0.003-13.881 9.528-25.947 23.029-29.173 35.759-8.534 70.075-22.261 101.855-40.742 11.741-6.826 26.602-4.913 36.232 4.662l61.571 61.179 93.358-93.576-58.826-58.368c-9.97-9.898-11.735-25.39-4.249-37.278 20.251-32.080 35.317-67.152 44.642-103.925 3.371-13.314 15.352-22.638 29.086-22.637h59.218l0.196-132.401zM513.741 739.623c-119.473 0.945-227.707-70.298-274.081-180.407s-21.721-237.32 62.429-322.134c84.15-84.814 211.162-110.467 321.633-64.96s182.558 153.178 182.558 272.654c0.398 162.104-130.436 293.971-292.538 294.847v0zM513.741 209.91c-95.201-0.945-181.555 55.675-218.643 143.36s-17.574 189.085 49.41 256.74c66.984 67.656 168.184 88.181 256.235 51.969s145.529-121.997 145.535-217.202c0.445-128.975-103.564-233.987-232.537-234.779v-0.087z" />
<glyph unicode="&#xe909;" glyph-name="marketing" d="M680.311 892.547h-123.905c-16.601 0-30.058-13.458-30.058-30.058v-51.714c-112.505-13.485-225.681-20.63-338.988-21.4-96.209 0.004-176.781-72.869-186.408-168.595s54.821-183.183 149.105-202.337v-384.931c0-7.972 3.167-15.618 8.804-21.254s13.282-8.804 21.254-8.804h174.599c7.983-0.016 15.643 3.144 21.292 8.783s8.825 13.293 8.825 21.276v199.101h5.007c16.296 0.416 29.29 13.747 29.29 30.049s-12.994 29.632-29.29 30.049h-5.007v114.246c50.673-3.475 100.915-8.069 141.595-13.744v-51.675c0-16.601 13.458-30.058 30.058-30.058h123.827c16.601 0 30.058 13.458 30.058 30.058v520.95c0 16.601-13.458 30.058-30.058 30.058zM324.654 63.551h-114.56v350.965c32.021-0.452 72.094-1.787 114.501-3.927l0.059-347.038zM187.359 474.79c-45.833-0.57-88.43 23.556-111.512 63.156s-23.083 88.555 0 128.155c23.083 39.6 65.679 63.725 111.512 63.156 113.291 0.881 226.451 7.874 338.988 20.948v-296.345c-112.53 13.153-225.696 20.14-338.988 20.929v0zM650.253 371.617h-63.808v460.754h63.808v-460.754zM955.099 638.375c-26.199 7.945-51.149 19.537-74.116 34.437-5.896 6.361-8.059 15.329-5.713 23.678 1.952 12.386 10.561 22.693 22.402 26.819 18.295 6.245 38.477 3.285 54.207-7.952 8.584-6.685 20.111-8.209 30.138-3.986s16.988 13.536 18.202 24.349c1.214 10.812-3.511 21.436-12.352 27.777-13.377 9.705-28.618 16.537-44.764 20.066v12.232c-0.416 16.296-13.747 29.29-30.049 29.29s-29.632-12.994-30.049-29.29v-14.195l-2.67-0.746c-33.408-10.472-58.163-38.736-64.142-73.232-6.833-30.391 3.843-62.057 27.683-82.106 27.856-19.386 58.638-34.18 91.177-43.821 19.955-5.258 32.284-25.237 28.037-45.432-3.906-24.69-25.244-42.835-50.242-42.722-21.425-2.666-43.053 3.007-60.412 15.844-8.986 6.112-20.572 6.897-30.3 2.054s-16.085-14.56-16.626-25.415c-0.54-10.854 4.821-21.155 14.021-26.94 18.699-13.485 40.562-21.912 63.474-24.463v-13.744c0.416-16.296 13.747-29.29 30.049-29.29s29.632 12.994 30.049 29.29v16.629c16.615 4.562 31.893 13.046 44.548 24.738 18.344 16.918 30.558 39.441 34.731 64.044 8.932 48.962-19.872 96.946-67.283 112.086v0z" />
<glyph unicode="&#xe90a;" glyph-name="notsure" d="M993.995 776.080h-963.991c-16.571 0-30.005-13.433-30.005-30.005v-596.149c0-16.571 13.433-30.005 30.005-30.005h963.991c16.571 0 30.005 13.433 30.005 30.005v596.149c0 16.571-13.433 30.005-30.005 30.005zM60.009 523.034c100.419 13.669 179.391 92.64 193.060 193.060h517.864c13.669-100.419 92.64-179.391 193.060-193.060v-149.977c-100.419-13.669-179.391-92.64-193.060-193.060h-517.886c-13.669 100.419-92.64 179.391-193.060 193.060l0.022 149.977zM963.991 583.808c-67.18 12.534-119.739 65.085-132.285 132.262h132.285v-132.262zM192.272 716.071c-12.543-67.171-65.092-119.72-132.262-132.262v132.262h132.262zM60.009 312.283c67.171-12.543 119.72-65.092 132.262-132.262h-132.262v132.262zM831.728 180.020c12.546 67.178 65.105 119.728 132.285 132.262v-132.262h-132.285zM546.9 477.724c-21.084 6.389-41.175 15.685-59.694 27.619-3.227 4.092-4.275 9.493-2.814 14.496 1.265 8.31 6.974 15.262 14.878 18.119 13.523 4.677 28.473 2.531 40.134-5.762 13.271-9.945 32.090-7.249 42.035 6.021s7.249 32.090-6.021 42.035c-10.49 7.629-22.316 13.225-34.867 16.499v6.010c0 16.571-13.433 30.005-30.005 30.005s-30.005-13.433-30.005-30.005v-7.856c-28.705-9.586-49.843-34.137-55.057-63.948-6.002-26.992 3.548-55.078 24.76-72.816 23.533-16.185 49.412-28.657 76.733-36.982 14.103-3.472 22.869-17.55 19.763-31.738-2.832-17.872-18.279-31.006-36.374-30.927-16.656-2.241-33.525 2.148-46.976 12.222-13.856 8.775-32.189 4.799-41.165-8.926s-5.269-32.115 8.325-41.291c14.847-10.643 31.987-17.651 50.037-20.461v-6.753c0-16.571 13.433-30.005 30.005-30.005s30.005 13.433 30.005 30.005v9.904c34.087 11.527 59.135 40.782 65.276 76.238 7.853 42.932-17.397 85.019-58.973 98.296z" />
<glyph unicode="&#xe90b;" glyph-name="payrent" d="M993.567 423.461h-34.504l-110.878 211.715c-6.235 181.174-154.914 324.823-336.196 324.823s-329.959-143.649-336.196-324.823l-110.834-211.715h-34.526c-16.552 0-29.97-13.418-29.97-29.97s13.418-29.97 29.97-29.97h22.693v-397.551c0-16.552 13.418-29.97 29.97-29.97h857.784c7.952 0 15.581 3.149 21.206 8.77s8.786 13.247 8.786 21.2v397.551h22.693c16.552 0 29.97 13.418 29.97 29.97s-13.418 29.97-29.97 29.97v0zM891.381 423.461h-109.374c24.052 32.207 42.102 68.486 53.283 107.096l56.091-107.096zM511.989 899.133c152.165-0.427 275.212-124.052 274.928-276.217s-123.794-275.328-275.959-275.187c-152.165 0.142-275.445 123.536-275.445 275.701 0.427 152.391 124.085 275.702 276.477 275.702zM188.71 530.579c11.181-38.611 29.23-74.889 53.283-107.096h-109.374l56.091 107.096zM378.926-4.016v175.685h266.169v-175.64l-266.169-0.045zM910.956-4.016h-205.919v205.698c-0.061 16.509-13.462 29.859-29.97 29.859h-326.153c-16.543-0.012-29.948-13.426-29.948-29.97v-205.698h-205.898v367.648h186.323c123.736-101.008 301.462-101.008 425.199 0h186.323l0.045-367.537zM426.768 486.852c15.749-11.366 34.015-18.75 53.238-21.521v-8.515c0-16.552 13.418-29.97 29.97-29.97s29.97 13.418 29.97 29.97v11.612c13.901 4.293 26.661 11.656 37.336 21.543 16.512 15.281 27.507 35.593 31.275 57.773 8.15 44.369-17.866 87.904-60.802 101.743-22.286 6.784-43.512 16.656-63.058 29.329-3.931 4.704-5.259 11.058-3.539 16.942 1.427 9.317 7.833 17.107 16.7 20.304 14.622 5.060 30.788 2.718 43.374-6.282 13.248-9.955 32.057-7.287 42.014 5.96s7.287 32.057-5.96 42.014c-11.171 8.151-23.811 14.069-37.225 17.429v7.631c0 16.552-13.418 29.97-29.97 29.97s-29.97-13.418-29.97-29.97v-9.467c-30.091-9.665-52.341-35.22-57.773-66.354-6.244-27.834 3.529-56.827 25.347-75.201 24.559-16.941 51.58-30.004 80.111-38.729 15.645-3.948 25.291-19.648 21.742-35.389-3.055-19.525-19.895-33.904-39.658-33.862-17.769-2.316-35.742 2.39-50.098 13.116-13.84 9.082-32.422 5.225-41.505-8.615s-5.225-32.422 8.615-41.505l-0.133 0.045z" />
<glyph unicode="&#xe90c;" glyph-name="workingcapital" d="M897.931 270.579c-14.677 7.686-32.806 2.025-40.498-12.648-81.623-156.075-259.178-236.349-430.272-194.532s-291.601 194.945-292.028 371.074l24.089-24.089c11.719-11.719 30.719-11.719 42.438 0s11.719 30.719 0 42.438l-75.217 75.217c-5.627 5.628-13.261 8.789-21.219 8.789s-15.591-3.162-21.219-8.789l-75.217-75.217c-11.719-11.719-11.719-30.719 0-42.438s30.719-11.719 42.438 0l23.852 24.030c0.405-203.762 139.761-380.964 337.684-429.393s403.354 44.408 497.797 224.962c3.724 7.055 4.485 15.303 2.115 22.921s-7.675 13.979-14.744 17.676zM1015.329 485.54c-5.627 5.628-13.261 8.789-21.219 8.789s-15.591-3.162-21.219-8.789l-24.030-24.030c-0.37 203.792-139.736 381.036-337.689 429.47s-403.41-44.44-497.831-225.038c-4.975-9.497-4.506-20.927 1.232-29.984s15.871-14.365 26.584-13.925c10.712 0.44 20.376 6.562 25.351 16.059 81.632 156.090 259.213 236.364 430.319 194.52s291.599-195.012 291.98-371.16l-24.069 24.069c-7.478 8.045-18.753 11.361-29.397 8.647s-18.952-11.028-21.662-21.672c-2.71-10.644 0.611-21.918 8.66-29.393l75.217-75.217c5.627-5.628 13.261-8.789 21.219-8.789s15.591 3.162 21.219 8.789l75.217 75.217c5.628 5.627 8.789 13.261 8.789 21.219s-3.162 15.591-8.789 21.219h0.119zM553.022 482.414c-26.16 7.931-51.075 19.506-74.009 34.382-5.889 6.355-8.048 15.314-5.701 23.653 1.95 12.367 10.546 22.659 22.367 26.781 18.26 6.242 38.41 3.294 54.116-7.917 13.276-9.92 32.082-7.2 42.002 6.076s7.2 32.082-6.076 42.002c-13.356 9.694-28.573 16.521-44.695 20.052v12.213c0 16.573-13.435 30.007-30.007 30.007s-30.007-13.435-30.007-30.007v-14.173l-2.672-0.752c-33.359-10.462-58.073-38.69-64.033-73.139-6.808-30.36 3.879-61.983 27.712-81.987 27.818-19.354 58.559-34.122 91.052-43.745 19.923-5.244 32.24-25.185 28.009-45.348-3.9-24.657-25.214-42.776-50.178-42.656-21.398-2.667-43.002 3.003-60.332 15.835-8.971 6.009-20.478 6.733-30.133 1.899s-15.968-14.483-16.531-25.265c-0.564-10.782 4.709-21.037 13.806-26.852 18.659-13.458 40.476-21.872 63.341-24.425v-13.717c0-16.573 13.435-30.007 30.007-30.007s30.007 13.435 30.007 30.007v16.607c16.589 4.557 31.842 13.029 44.477 24.703 18.317 16.894 30.514 39.386 34.679 63.954 8.81 48.85-19.929 96.67-67.201 111.816v0z" />
<glyph unicode="&#xe90d;" glyph-name="info" d="M870.043 617.813h-855.375c-3.884 0.008-7.613-1.528-10.364-4.27s-4.304-6.466-4.304-10.35v-410.604c0-3.884 1.528-7.613 4.27-10.364s6.466-4.304 10.35-4.304h581.629c7.909 0.26 14.185 6.747 14.185 14.66s-6.276 14.4-14.185 14.66h-566.929v381.237h826.024v-36.662c-0.008-3.884 1.528-7.613 4.27-10.364s6.466-4.3 10.35-4.304v0c8.086-0.009 14.65 6.534 14.668 14.62v51.377c0 8.074-6.515 14.633-14.588 14.668v0zM770.578 685.877l-684.272 153.973c-7.899 1.755-15.725-3.225-17.481-11.124l-34.214-153.957c-1.422-5.216 0.14-10.792 4.066-14.51s9.58-4.974 14.711-3.269c5.131 1.705 8.908 6.094 9.829 11.423l31.020 139.607 669.906-150.747c1.042-0.244 2.109-0.367 3.178-0.366 7.427 0.072 13.628 5.684 14.438 13.067s-4.026 14.206-11.26 15.888l0.079 0.016zM687.482 770.721l-410.573 171.056c-7.135 2.973-15.353-0.081-18.816-6.992l-34.214-68.429c-3.812-7.142-1.139-16.023 5.981-19.873s16.016-1.227 19.906 5.873c0.159 0.286 0.302 0.572 0.429 0.858v0l28.064 56.176 397.891-165.78c4.857-2.081 10.457-1.394 14.667 1.797s6.385 8.397 5.695 13.635c-0.69 5.238-4.138 9.703-9.031 11.695v-0.016zM697.859 549.385h-135.777c-5.352 0.176-10.376-2.578-13.105-7.187s-2.728-10.337 0-14.946c2.728-4.609 7.752-7.364 13.105-7.187h135.777c7.909 0.26 14.185 6.747 14.185 14.66s-6.276 14.4-14.185 14.66zM425.225 548.415c-83.141 0-150.54-67.399-150.54-150.54s67.399-150.54 150.54-150.54c83.141 0 150.54 67.399 150.54 150.54s-67.399 150.54-150.54 150.54zM425.225 274.7c-68.027 0-123.175 55.147-123.175 123.175s55.147 123.175 123.175 123.175c68.027 0 123.175-55.147 123.175-123.175 0.013-32.676-12.96-64.019-36.060-87.129s-54.438-36.094-87.115-36.094v0.048zM835.829 500.518c-90.661 0-188.171-21.422-188.171-68.429v-410.573c0-47.007 97.51-68.429 188.171-68.429s188.171 21.422 188.171 68.429v410.573c-0.032 47.007-97.59 68.429-188.171 68.429zM989.754 21.755c-2.59-9.535-53.888-34.469-153.957-34.469s-151.382 24.981-153.957 34.214v26.888c36.407-18.339 96.541-26.888 153.957-26.888s117.597 8.645 153.957 26.904v-26.65zM989.754 90.184c-2.59-9.535-53.888-34.469-153.957-34.469s-151.382 24.981-153.957 34.214v26.888c36.407-18.339 96.541-26.888 153.957-26.888s117.597 8.645 153.957 26.904v-26.65zM989.754 158.613c-2.59-9.535-53.888-34.469-153.957-34.469s-151.382 24.981-153.957 34.214v26.92c36.407-18.339 96.541-26.888 153.957-26.888s117.597 8.645 153.957 26.904v-26.682zM989.754 227.042c-2.59-9.535-53.888-34.469-153.957-34.469s-151.382 24.981-153.957 34.214v26.984c36.407-18.339 96.541-26.888 153.957-26.888s117.597 8.645 153.957 26.904v-26.745zM989.754 295.47c-2.59-9.535-53.888-34.469-153.957-34.469s-151.382 24.981-153.957 34.214v26.888c36.407-18.259 96.541-26.888 153.957-26.888s117.597 8.645 153.957 26.904v-26.65zM989.754 363.899c-2.59-9.535-53.888-34.469-153.957-34.469s-151.382 24.981-153.957 34.214v26.888c36.407-18.259 96.541-26.888 153.957-26.888s117.597 8.645 153.957 26.904v-26.65zM835.797 397.859c-99.926 0-151.208 24.902-153.957 33.912v0.095c2.749 9.535 54.031 34.421 153.957 34.421 99.226 0 150.54-24.536 153.957-34.214-3.433-9.662-54.746-34.198-153.925-34.198l-0.032-0.016zM288.367 275.686h-129.245l-61.309 67.062v111.24l67.714 66.124h122.921c7.909 0.26 14.185 6.747 14.185 14.66s-6.276 14.4-14.185 14.66h-128.944c-3.835 0.007-7.52-1.487-10.266-4.164l-76.422-74.531c-2.858-3.337-4.426-7.588-4.418-11.982v-121.665c0-3.657 1.366-7.182 3.83-9.885l69.509-76.025c2.777-3.039 6.705-4.767 10.822-4.767h135.793c7.909 0.26 14.185 6.747 14.185 14.66s-6.276 14.4-14.185 14.66l0.016-0.048zM433.79 414.975h-17.099c-5.324 0-8.55 2.972-8.55 4.275s3.178 4.275 8.55 4.275h42.764c9.448 0 17.107 7.659 17.107 17.107s-7.659 17.107-17.107 17.107h-17.099c0 9.448-7.659 17.107-17.107 17.107s-17.107-7.659-17.107-17.107v-0.795c-18.972-2.68-33.347-18.49-34.214-37.631 1.232-22.425 20.332-39.65 42.764-38.569h17.099c5.324 0 8.55-2.972 8.55-4.275s-3.178-4.275-8.55-4.275h-42.764c-9.448 0-17.107-7.659-17.107-17.107s7.659-17.107 17.107-17.107h17.099c0-9.448 7.659-17.107 17.107-17.107s17.107 7.659 17.107 17.107v0.763c18.972 2.68 33.347 18.49 34.214 37.631-1.215 22.437-20.32 39.682-42.764 38.6v0z" />
<glyph unicode="&#xe90e;" glyph-name="clock" d="M580.797 3.046c207.553 0 375.808 168.256 375.808 375.808s-168.256 375.808-375.808 375.808c-207.553 0-375.808-168.256-375.808-375.808 0-99.67 39.594-195.259 110.071-265.737s166.066-110.071 265.737-110.071v0zM290.399 395.94h-50.375c8.899 174.958 148.747 314.806 323.705 323.705v-50.375c0-9.435 7.65-17.085 17.085-17.085s17.085 7.65 17.085 17.085v50.375c174.946-8.906 314.783-148.743 323.689-323.689h-67.461c-6.104 0-11.744-3.256-14.796-8.543s-3.051-11.799 0-17.085c3.051-5.286 8.693-8.543 14.796-8.543h67.461c-8.906-174.946-148.743-314.783-323.689-323.689v50.375c0 9.435-7.65 17.085-17.085 17.085s-17.085-7.65-17.085-17.085v-50.375c-174.952 8.898-314.798 148.737-323.705 323.689h50.375c6.104 0 11.744 3.256 14.796 8.543s3.051 11.799 0 17.085c-3.051 5.286-8.693 8.543-14.796 8.543v-0.016zM965.42 600.641c-5.098 8.82-10.489 17.458-16.173 25.916l42.169 42.169c6.668 6.672 6.668 17.484 0 24.156l-96.512 96.512c-6.672 6.668-17.484 6.668-24.156 0l-42.249-42.105c-68.333 46.14-148.222 72.225-230.617 75.299v102.911h119.58c9.435 0 17.085 7.65 17.085 17.085s-7.65 17.085-17.085 17.085h-273.314c-9.435 0-17.085-7.65-17.085-17.085s7.65-17.085 17.085-17.085h119.58v-103.071c-152.355-5.815-291.050-89.459-367.282-221.499h-93.952c-9.435 0-17.085-7.65-17.085-17.085s7.65-17.085 17.085-17.085h102.495c0.448 0 0.816 0.224 1.264 0.256 6.154-0.078 11.865 3.193 14.909 8.543 89.9 164.33 279.745 246.832 461.222 200.437s308.431-209.889 308.431-397.204c0-187.313-126.955-350.808-308.431-397.204s-371.321 36.107-461.222 200.437c-3.018 5.369-8.718 8.673-14.877 8.623-0.448 0-0.832 0.256-1.296 0.256h-102.495c-9.435 0-17.085-7.65-17.085-17.085s7.65-17.085 17.085-17.085h93.952c123.126-211.162 393.782-283.071 605.479-160.864s284.781 392.548 163.495 604.773zM856.415 726.764l26.412 26.412 72.356-72.356-26.444-26.444c-21.269 26.807-45.535 51.094-72.324 72.388v0zM170.819 378.855c0 9.429-7.64 17.076-17.069 17.085h-136.665c-9.435 0-17.085-7.65-17.085-17.085s7.65-17.085 17.085-17.085h136.665c9.429 0.009 17.069 7.656 17.069 17.085zM51.255 464.264h119.58c9.435 0 17.085 7.65 17.085 17.085s-7.65 17.085-17.085 17.085h-119.58c-9.435 0-17.085-7.65-17.085-17.085s7.65-17.085 17.085-17.085zM187.92 276.36c0 9.435-7.65 17.085-17.085 17.085h-119.58c-9.435 0-17.085-7.65-17.085-17.085s7.65-17.085 17.085-17.085h119.58c9.435 0 17.085 7.65 17.085 17.085zM534.565 264.298c6.672-6.668 17.484-6.668 24.156 0l237.448 237.448c6.418 6.712 6.299 17.321-0.268 23.888s-17.176 6.686-23.888 0.268l-225.37-225.37-101.647 101.647c-6.712 6.418-17.321 6.299-23.888-0.268s-6.686-17.176-0.268-23.888l113.725-113.725z" />
<glyph unicode="&#xe90f;" glyph-name="security" d="M900.567 752.657l-384.968 205.086c-5.7 3.046-12.554 3.006-18.218-0.106l-374.143-205.086c-6.133-3.365-9.94-9.807-9.94-16.803v-267.894c0.245-220.216 130.742-419.432 332.524-507.63l51.948-22.64c4.863-2.112 10.384-2.112 15.247 0l58.528 25.275c205.459 86.332 339.121 287.442 339.157 510.301v262.57c0 7.078-3.906 13.579-10.153 16.909l0.018 0.018zM872.391 473.195c-0.033-207.537-124.55-394.804-315.916-475.12h-0.124l-50.975-22.003-44.219 19.314c-187.835 82.1-309.309 267.545-309.531 472.539v256.468l355.129 194.668 365.636-194.81v-251.056zM365.432 480.288c-6.873 8.050-18.969 9.003-27.017 2.131s-9.003-18.969-2.131-27.017l101.208-118.506c6.753-7.91 18.586-8.986 26.655-2.423l235.72 191.785c5.312 4.319 7.914 11.143 6.829 17.903s-5.693 12.427-12.089 14.866c-6.396 2.44-13.608 1.282-18.92-3.037l-221.2-179.988-89.057 104.285z" />
<glyph unicode="&#xe910;" glyph-name="convertibledebt" d="M463.288 960c-254.586-0.273-460.902-206.588-461.175-461.175 0-9.793 7.939-17.732 17.732-17.732h443.443c4.703 0 9.213 1.869 12.538 5.194s5.194 7.836 5.194 12.538v443.443c0 4.703-1.869 9.213-5.194 12.538s-7.836 5.194-12.538 5.194zM445.541 516.572h-407.573c9.484 221.074 186.544 398.134 407.618 407.618l-0.045-407.618zM1020.874 461.861c-16.495 258.152-230.691 459.089-489.369 459.076-9.42 0-17.058-7.637-17.058-17.058v-456.229h-456.213c-4.524 0-8.863-1.797-12.062-4.997s-4.997-7.538-4.997-12.062c0.208-95.938 28.463-189.721 81.286-269.806-1.65-9.217 4.438-18.041 13.64-19.771 89.621-123.222 231.735-197.415 384.070-200.511 6.437-6.052 16.486-5.999 22.859 0.12 6.565 0.149 13.13 0.21 19.756 0.614 270.262 17.272 475.352 250.36 458.087 520.622v0zM75.591 413.551h401.532l-329.764-229.441c-44.244 68.577-69.048 147.875-71.769 229.441v0zM514.461-25.275c-110.175 3.704-215.196 47.557-295.288 123.302-19.021 17.9-36.5 37.37-52.252 58.203l347.541 241.732v-423.237zM987.493 413.536c-0.149-3.997-0.355-7.994-0.614-11.991-14.464-229.157-197.080-411.805-426.235-426.31-4.032-0.239-8.049-0.285-12.082-0.449v911.737c120.928-4.515 235.109-56.884 317.425-145.587s126.023-206.472 121.505-327.4zM753.211 771.705h-153.491c-6.094 0-11.725-3.251-14.773-8.529s-3.047-11.78 0-17.058c3.047-5.277 8.678-8.529 14.773-8.529h153.491c6.094 0 11.725 3.251 14.773 8.529s3.047 11.78 0 17.058c-3.047 5.277-8.678 8.529-14.773 8.529v0zM804.339 703.488h-204.619c-9.42 0-17.058-7.637-17.058-17.058s7.637-17.058 17.058-17.058h204.619c9.42 0 17.058 7.637 17.058 17.058s-7.637 17.058-17.058 17.058zM804.339 635.273h-204.619c-9.42 0-17.058-7.637-17.058-17.058s7.637-17.058 17.058-17.058h204.619c9.42 0 17.058 7.637 17.058 17.058s-7.637 17.058-17.058 17.058zM463.288 89.513h-119.389c-9.42 0-17.058-7.637-17.058-17.058s7.637-17.058 17.058-17.058h119.389c9.42 0 17.058 7.637 17.058 17.058s-7.637 17.058-17.058 17.058zM463.288 157.73h-119.389c-9.42 0-17.058-7.637-17.058-17.058s7.637-17.058 17.058-17.058h119.389c9.42 0 17.058 7.637 17.058 17.058s-7.637 17.058-17.058 17.058zM463.288 225.945h-85.274c-9.42 0-17.058-7.637-17.058-17.058s7.637-17.058 17.058-17.058h85.274c9.42 0 17.058 7.637 17.058 17.058s-7.637 17.058-17.058 17.058z" />
<glyph unicode="&#xe911;" glyph-name="equityfinancing" d="M262.559-16.62c3.214-0.065 6.316 1.183 8.591 3.455s3.525 5.373 3.463 8.587v56.079h15.053c3.149-0.141 6.214 1.041 8.453 3.259s3.45 5.272 3.339 8.423v66.417c0.149 3.26-1.016 6.444-3.232 8.84s-5.299 3.805-8.561 3.911h-15.053v55.010c0.2 6.913-5.149 12.724-12.054 13.099h-250.753c-6.834-0.434-12.057-6.271-11.731-13.112v-66.404c-0.337-6.915 4.89-12.842 11.793-13.373h15.053v-43.354h-15.115c-3.234-0.024-6.319-1.363-8.544-3.71s-3.399-5.499-3.249-8.73v-66.404c-0.124-3.186 1.071-6.283 3.302-8.562s5.303-3.537 8.491-3.481l250.753 0.052zM152.813 117.558v-41.288h-16.545v41.288h16.545zM177.581 76.269v41.288h14.455v-41.288h-14.455zM111.524 117.558v-41.288h-16.545v41.288h16.545zM206.491 49.436v-41.288h-16.545v41.288h16.545zM216.816 76.269v41.288h16.521v-41.288h-16.521zM189.983 142.326v43.354h16.471v-43.354h-16.471zM165.215 142.326h-16.558v43.354h16.521l0.037-43.354zM123.927 142.326h-14.492v43.354h14.455l0.037-43.354zM84.704 142.326h-16.558v43.354h16.521l0.037-43.354zM70.249 76.269h-18.623v41.288h18.585l0.037-41.288zM84.704 49.436v-41.288h-16.558v41.288h16.558zM109.472 49.436h14.455v-41.288h-14.492l0.037 41.288zM148.695 49.436h16.521v-41.288h-16.558l0.037 41.288zM249.845 8.148h-18.61v41.288h18.585l0.025-41.288zM276.678 76.269h-18.61v41.288h18.585l0.025-41.288zM249.845 142.326h-18.61v43.354h18.585l0.025-43.354zM24.792 185.692h18.585v-43.354h-18.585v43.354zM24.792 49.449h18.585v-41.288h-18.585v41.288zM640.573 185.68c6.844 0.349 12.117 6.167 11.793 13.012v66.404c0.097 3.122-1.127 6.141-3.372 8.313s-5.303 3.296-8.421 3.094h-250.716c-3.143 0.208-6.231-0.905-8.52-3.070s-3.57-5.187-3.535-8.338v-54.624h-15.053c-6.86-0.401-12.118-6.249-11.793-13.112v-66.404c-0.337-6.915 4.89-12.842 11.793-13.373h15.053v-43.354h-15.053c-3.234-0.024-6.319-1.363-8.544-3.71s-3.399-5.499-3.249-8.73v-66.404c-0.124-3.186 1.071-6.283 3.302-8.562s5.303-3.537 8.491-3.482h250.753c3.214-0.063 6.316 1.185 8.591 3.457s3.525 5.373 3.463 8.587v56.079h15.053c3.149-0.141 6.214 1.041 8.453 3.259s3.45 5.272 3.339 8.423v66.467c0.149 3.26-1.016 6.444-3.232 8.84s-5.299 3.805-8.561 3.911h-15.053v43.354l15.015-0.037zM487.213 76.207v41.288h16.521v-41.288h-16.521zM499.652 142.264v43.354h16.521v-43.354h-16.521zM474.885 185.617v-43.354h-14.455v43.354h14.455zM462.444 117.496v-41.288h-16.521v41.288h16.521zM528.502 76.207v41.288h14.455v-41.288h-14.455zM540.941 142.264v43.354h16.521v-43.354h-16.521zM567.774 210.385v41.288h16.521v-41.201l-16.521-0.087zM543.006 210.385h-14.455v41.288h14.455v-41.288zM503.782 210.385h-16.521v41.288h16.521v-41.288zM462.494 210.385h-16.521v41.288h16.521v-41.288zM435.662 185.617v-43.354h-16.521v43.354h16.521zM421.206 76.145h-18.573v41.288h18.573v-41.288zM435.662 49.312v-41.288h-16.521v41.288h16.521zM460.43 49.312h14.455v-41.288h-14.455v41.288zM499.652 49.312h16.521v-41.288h-16.521v41.288zM540.941 49.312h16.521v-41.288h-16.521v41.288zM567.774 76.145v41.288h16.521v-41.288h-16.521zM582.229 185.617h18.585v-43.354h-18.585v43.354zM627.648 210.385h-18.585v41.288h18.585v-41.288zM402.633 251.673h18.573v-41.201h-18.573v41.201zM375.8 185.617h18.585v-43.354h-18.585v43.354zM375.8 49.374h18.585v-41.288h-18.585v41.288zM600.815 8.086h-18.585v41.288h18.585v-41.288zM627.648 76.207h-18.585v41.288h18.585v-41.288zM1012.157 276.516h-15.053v55.98c0.057 3.215-1.186 6.318-3.449 8.604s-5.352 3.562-8.568 3.538h-250.753c-3.204 0.026-6.278-1.262-8.506-3.563s-3.417-5.416-3.287-8.617v-66.404c-0.128-3.206 1.057-6.327 3.284-8.638s5.3-3.613 8.509-3.604h15.053v-43.354h-15.053c-6.834-0.434-12.057-6.271-11.731-13.112v-66.404c-0.337-6.915 4.89-12.842 11.793-13.373h15.053v-43.354h-15.053c-3.234-0.024-6.319-1.363-8.544-3.71s-3.399-5.499-3.249-8.73v-66.404c-0.124-3.186 1.071-6.283 3.302-8.562s5.303-3.537 8.491-3.482h250.691c3.214-0.063 6.316 1.185 8.591 3.457s3.525 5.373 3.463 8.587v56.079h15.053c3.149-0.141 6.214 1.041 8.453 3.259s3.45 5.272 3.339 8.423v66.404c0.149 3.26-1.016 6.444-3.232 8.84s-5.299 3.805-8.561 3.911h-15.053v43.354h15.053c6.844 0.349 12.117 6.167 11.793 13.012v66.404c0.097 3.122-1.127 6.141-3.372 8.313s-5.303 3.296-8.421 3.094l-0.037 0.050zM858.796 76.233v41.288h16.521v-41.288h-16.521zM871.236 142.289v43.354h16.521v-43.354h-16.521zM858.796 210.41v41.288h16.521v-41.288h-16.521zM834.028 251.699v-41.288h-16.521v41.288h16.521zM846.468 185.643v-43.354h-14.455v43.354h14.455zM834.028 117.521v-41.288h-16.521v41.288h16.521zM900.085 76.233v41.288h14.455v-41.288h-14.455zM912.524 142.289v43.354h16.521v-43.354h-16.521zM900.085 210.41v41.288h14.455v-41.288h-14.455zM912.524 278.532v41.288h16.521v-41.288h-16.521zM887.756 278.532h-16.521v41.288h16.521v-41.288zM846.468 278.532h-14.455v41.288h14.455v-41.288zM807.245 278.532h-16.521v41.288h16.471l0.050-41.288zM792.79 210.41h-18.585v41.288h18.585v-41.288zM807.245 185.643v-43.354h-16.521v43.354h16.521zM792.79 76.17h-18.585v41.288h18.585v-41.288zM807.245 49.337v-41.288h-16.521v41.388l16.521-0.099zM832.013 49.337h14.455v-41.288h-14.455v41.288zM871.236 49.337h16.521v-41.288h-16.521v41.288zM912.524 49.337h16.521v-41.288h-16.521v41.288zM939.357 76.17v41.288h16.521v-41.288h-16.521zM953.812 185.643h18.573v-43.354h-18.573v43.354zM939.357 210.41v41.288h16.521v-41.288h-16.521zM972.386 278.532h-18.573v41.288h18.573v-41.288zM747.37 319.82h18.573v-41.288h-18.573v41.288zM747.37 185.643h18.573v-43.354h-18.573v43.354zM747.37 49.399h18.573v-41.288h-18.573v41.288zM972.386 8.111h-18.573v41.325h18.573v-41.325zM999.219 76.233h-18.573v41.288h18.573v-41.288zM999.219 210.41h-18.573v41.288h18.573v-41.288zM75.959 309.483c3.195-0.005 6.268 1.231 8.571 3.446l227.938 218.558 236.784-186.513c4.49-3.488 10.774-3.488 15.264 0l347.811 270.309-14.281-185.592c-0.494-6.808 4.591-12.743 11.395-13.298h0.958c6.462 0.031 11.824 5.004 12.34 11.445l16.446 213.732c0.499 6.84-4.631 12.794-11.469 13.311l-230.141 16.446c-6.413-0.149-11.663-5.151-12.12-11.55s4.026-12.097 10.354-13.157l198.207-14.156-337.062-261.975-237.629 187.122c-4.861 3.795-11.768 3.457-16.235-0.796l-235.651-226.010c-3.593-3.522-4.71-8.862-2.831-13.529s6.383-7.743 11.415-7.794h-0.062zM459.832 581.969c91.322 0 165.353 74.031 165.353 165.353s-74.031 165.353-165.353 165.353c-91.322 0-165.353-74.031-165.353-165.353s74.031-165.353 165.353-165.353v0zM459.832 887.906c77.636 0 140.572-62.937 140.572-140.572s-62.937-140.572-140.572-140.572c-77.636 0-140.572 62.937-140.572 140.572-0.004 37.285 14.806 73.043 41.169 99.407s62.119 41.177 99.404 41.177v-0.013zM459.845 675.405c-15.036 0.007-27.225 12.195-27.231 27.231 0.448 4.705-1.81 9.258-5.827 11.75s-9.099 2.492-13.115 0c-4.016-2.492-6.274-7.045-5.827-11.75 0.034-23.349 15.601-43.823 38.092-50.096v-10.648c-0.448-4.705 1.81-9.258 5.827-11.75s9.099-2.492 13.115 0c4.016 2.492 6.274 7.045 5.827 11.75v9.952c26.023 5.552 43.656 29.853 40.863 56.315s-25.114 46.544-51.722 46.539c-11.014 0-20.943 6.635-25.158 16.81s-1.885 21.888 5.903 29.677c7.788 7.788 19.501 10.118 29.677 5.903s16.81-14.144 16.81-25.158c0.608-6.385 5.971-11.262 12.384-11.262s11.776 4.876 12.384 11.262c-0.034 23.729-16.099 44.437-39.074 50.369v9.803c0.448 4.705-1.81 9.258-5.827 11.75s-9.099 2.492-13.115 0c-4.016-2.492-6.274-7.045-5.827-11.75v-9.641c-25.714-6.019-42.833-30.356-39.806-56.591s25.239-46.034 51.649-46.039c15.039 0 27.231-12.192 27.231-27.231s-12.192-27.231-27.231-27.231v0.037z" />
<glyph unicode="&#xe912;" glyph-name="factoring" d="M179.217 561.154h211.042c7.015 0 12.7 5.687 12.7 12.7s-5.687 12.7-12.7 12.7h-211.042c-7.015 0-12.7-5.687-12.7-12.7s5.687-12.7 12.7-12.7zM590.477 446.838h-411.259c-7.015 0-12.7-5.687-12.7-12.7s5.687-12.7 12.7-12.7h411.259c7.015 0 12.7 5.687 12.7 12.7s-5.687 12.7-12.7 12.7zM590.477 307.121h-411.259c-7.015 0-12.7-5.687-12.7-12.7s5.687-12.7 12.7-12.7h411.259c7.015 0 12.7 5.687 12.7 12.7s-5.687 12.7-12.7 12.7zM790.981 940.349c-109.291 0.072-203.352-77.212-224.481-184.442h-553.376c-3.323 0.198-6.586-0.949-9.054-3.183s-3.935-5.366-4.071-8.692v-771.606c0.15-9.703 5.935-18.432 14.813-22.351 9.565-4.471 20.844-3.072 29.026 3.6l89.84 74.902c0.635 0.532 1.543 0.587 2.238 0.137l107.678-86.902c9.984-7.821 24.041-7.733 33.926 0.213l106.153 86.614c0.629 0.517 1.522 0.564 2.2 0.113l106.453-86.852c4.802-3.818 10.754-5.9 16.888-5.9 6.179 0.011 12.175 2.097 17.025 5.925l107.365 86.665c0.629 0.517 1.522 0.564 2.2 0.113l90.002-75.002c7.974-6.682 19.116-8.090 28.501-3.6 8.702 4.002 14.237 12.748 14.125 22.326v511.537c8.463-0.675 14.813-1.037 22.138-1.037 82.775-1.692 160.004 41.473 201.93 112.864s42.006 159.864 0.209 231.331c-41.797 71.466-118.949 114.771-201.726 113.229zM743.018-26.961c0-0.188-0.85-0.363-1.425 0.125l-89.902 75.164c-9.891 8.051-24.058 8.107-34.014 0.137l-107.303-86.665c-0.619-0.517-1.506-0.564-2.175-0.113l-106.44 86.852c-9.974 7.912-24.098 7.861-34.014-0.125l-106.14-86.614c-0.628-0.517-1.518-0.569-2.2-0.125l-107.653 86.889c-10.052 7.904-24.25 7.749-34.126-0.375l-90.165-75.002c-0.587-0.487-2.063-0.312-2.063-0.125v757.518h537.513c-0.55-6.35-1.25-12.5-1.25-19.063-0.075-108.079 75.597-201.422 181.355-223.706v-514.774zM790.981 508.327c-112.398 0.007-203.51 91.128-203.505 203.526s91.123 203.51 203.522 203.51c112.398 0 203.514-91.119 203.514-203.518 0-53.978-21.444-105.746-59.613-143.913s-89.939-59.605-143.917-59.605v0zM791.007 803.971c23.896-0.028 43.261-19.392 43.288-43.288 0-4.538 2.421-8.73 6.35-10.998s8.771-2.268 12.7 0c3.929 2.268 6.35 6.462 6.35 10.998-0.026 32.756-23.157 60.944-55.277 67.365v16.763c0 7.015-5.687 12.7-12.7 12.7s-12.7-5.687-12.7-12.7v-16.513c-35.067-6.203-59.578-38.175-56.461-73.649s32.826-62.685 68.436-62.679c23.908 0 43.288-19.381 43.288-43.288s-19.381-43.288-43.288-43.288c-23.908 0-43.288 19.381-43.288 43.288 0 4.538-2.421 8.73-6.35 10.998s-8.771 2.268-12.7 0c-3.929-2.268-6.35-6.462-6.35-10.998 0.044-30.048 19.577-56.594 48.251-65.577v-24.063c0-7.015 5.687-12.7 12.7-12.7s12.7 5.687 12.7 12.7v21.163c36.834 2.727 64.917 34.094 63.573 71.003s-31.637 66.149-68.573 66.187c-23.911 0-43.294 19.383-43.294 43.294s19.383 43.294 43.294 43.294l0.050-0.013z" />
<glyph unicode="&#xe913;" glyph-name="lineofcredit" d="M1016.858 598.36l-494.871 358.345c-5.969 4.315-14.033 4.315-20.002 0l-494.871-358.345c-6.028-4.325-8.569-12.051-6.285-19.11s8.867-11.833 16.287-11.809h989.768c7.42-0.024 14.003 4.75 16.287 11.809s-0.258 14.785-6.285 19.11h-0.027zM69.771 601.6l442.269 320.235 442.269-320.235h-884.538zM955.667 38.452h-887.36c-9.425 0-17.066-7.641-17.066-17.066s7.641-17.066 17.066-17.066h887.36c9.425 0 17.066 7.641 17.066 17.066s-7.641 17.066-17.066 17.066v0zM1006.924-29.81h-989.809c-9.425 0-17.066-7.641-17.066-17.066s7.641-17.066 17.066-17.066h989.809c9.425 0 17.066 7.641 17.066 17.066s-7.641 17.066-17.066 17.066v0zM341.316 106.728h-34.091v392.53h34.091c9.425 0 17.066 7.641 17.066 17.066s-7.641 17.066-17.066 17.066h-204.748c-9.425 0-17.066-7.641-17.066-17.066s7.641-17.066 17.066-17.066h34.131v-392.53h-34.131c-9.425 0-17.066-7.641-17.066-17.066s7.641-17.066 17.066-17.066h204.748c9.425 0 17.066 7.641 17.066 17.066s-7.641 17.066-17.066 17.066v0zM273.053 106.728h-68.222v392.53h68.263l-0.040-392.53zM614.353 106.728h-34.131v392.53h34.131c9.425 0 17.066 7.641 17.066 17.066s-7.641 17.066-17.066 17.066h-204.748c-9.425 0-17.066-7.641-17.066-17.066s7.641-17.066 17.066-17.066h34.131v-392.53h-34.131c-9.425 0-17.066-7.641-17.066-17.066s7.641-17.066 17.066-17.066h204.748c9.425 0 17.066 7.641 17.066 17.066s-7.641 17.066-17.066 17.066v0zM546.090 106.728h-68.263v392.53h68.263v-392.53zM887.376 106.728h-34.131v392.53h34.131c9.425 0 17.066 7.641 17.066 17.066s-7.641 17.066-17.066 17.066h-204.748c-9.425 0-17.066-7.641-17.066-17.066s7.641-17.066 17.066-17.066h34.131v-392.53h-34.131c-9.425 0-17.066-7.641-17.066-17.066s7.641-17.066 17.066-17.066h204.748c9.425 0 17.066 7.641 17.066 17.066s-7.641 17.066-17.066 17.066v0zM819.115 106.728h-68.263v392.53h68.263v-392.53zM524.797 772.242h-25.542c-6.988-1.541-14.209 1.334-18.226 7.257s-4.017 13.696 0 19.618c4.017 5.922 11.238 8.797 18.226 7.257h63.988c9.425 0 17.066 7.641 17.066 17.066s-7.641 17.066-17.066 17.066h-34.131v17.072c0 9.425-7.641 17.066-17.066 17.066s-17.066-7.641-17.066-17.066v-17.475c-27.768-0.847-50.149-23.029-51.244-50.786 1.258-29.415 26.043-52.29 55.465-51.19h25.542c6.988 1.541 14.209-1.334 18.226-7.257s4.017-13.696 0-19.618c-4.017-5.922-11.238-8.797-18.226-7.257h-63.988c-9.425 0-17.066-7.641-17.066-17.066s7.641-17.066 17.066-17.066h34.131v-17.046c0-9.425 7.641-17.066 17.066-17.066s17.066 7.641 17.066 17.066v17.475c27.752 0.874 50.103 23.056 51.19 50.801-1.281 29.378-26.025 52.219-55.411 51.15z" />
<glyph unicode="&#xe914;" glyph-name="termloan" d="M816.203 391.41c6.349 0.588 11.235 5.864 11.338 12.239v88.778c-0.103 6.38-4.997 11.656-11.351 12.239l-57.287 5.529c-6.164 24.155-15.934 47.242-28.979 68.485l36.323 43.843c4.030 4.868 3.712 11.998-0.736 16.487l-61.967 62.601c-4.479 4.535-11.682 4.893-16.589 0.824l-43.932-36.437c-21.302 12.908-44.374 22.641-68.485 28.891l-5.529 57.287c-0.574 6.363-5.838 11.279-12.226 11.414h-88.904c-6.393-0.129-11.664-5.046-12.239-11.414l-5.516-57.11c-24.194-6.125-47.325-15.865-68.613-28.891l-43.843 36.335c-4.877 4.020-12.008 3.685-16.487-0.774l-62.728-62.613c-4.501-4.484-4.842-11.66-0.786-16.55l36.399-43.907c-12.909-21.307-22.653-44.376-28.929-68.485l-57.325-5.529c-6.333-0.598-11.187-5.89-11.236-12.251v-88.778c0.056-6.356 4.909-11.641 11.236-12.239l57.223-5.529c6.157-24.154 15.918-47.241 28.954-68.485l-36.335-43.843c-4.017-4.88-3.677-12.012 0.786-16.487l62.728-62.601c4.483-4.455 11.613-4.784 16.487-0.761l43.932 36.424c21.302-12.908 44.374-22.641 68.485-28.891l5.529-57.287c0.574-6.363 5.838-11.279 12.226-11.414h88.828c6.394 0.124 11.67 5.044 12.239 11.414l5.529 57.16c24.194 6.124 47.325 15.865 68.613 28.891l43.856-36.335c4.877-4.020 12.008-3.685 16.487 0.774l62.728 62.613c4.497 4.487 4.833 11.664 0.774 16.55l-36.399 43.907c12.948 21.302 22.736 44.371 29.055 68.485l56.665 5.44zM737.571 399.933c-6.12-27.34-17.118-53.355-32.467-76.793-2.936-4.509-2.596-10.404 0.837-14.547l34.915-42.118-46.925-46.786-42.131 34.94c-4.169 3.454-10.107 3.774-14.623 0.786-23.344-15.467-49.384-26.415-76.767-32.277-5.256-1.268-9.131-5.728-9.652-11.11l-5.301-54.953h-66.545l-5.301 54.953c-0.507 5.371-4.413 9.804-9.677 10.983-27.377 6.073-53.425 17.061-76.881 32.429-4.501 2.907-10.366 2.563-14.496-0.85l-42.131-34.915-46.925 46.786 34.915 42.118c3.463 4.177 3.778 10.13 0.774 14.649-15.493 23.302-26.48 49.302-32.391 76.653-1.196 5.232-5.614 9.108-10.958 9.613l-54.941 5.301v66.419l54.941 5.301c5.314 0.509 9.701 4.369 10.882 9.576 6.131 27.343 17.141 53.357 32.505 76.793 2.939 4.506 2.605 10.401-0.824 14.547l-34.915 42.118 46.925 46.786 42.131-34.94c4.169-3.454 10.107-3.774 14.623-0.786 23.344 15.472 49.383 26.424 76.767 32.29 5.256 1.268 9.131 5.728 9.652 11.11l5.288 54.953h66.545l5.301-54.953c0.507-5.371 4.413-9.804 9.677-10.983 27.372-6.075 53.417-17.062 76.869-32.429 4.501-2.907 10.366-2.563 14.496 0.85l42.081 34.877 46.215-46.697-34.966-42.17c-3.463-4.177-3.778-10.13-0.774-14.649 15.493-23.302 26.48-49.302 32.391-76.653 1.239-5.249 5.689-9.123 11.060-9.626l55.042-5.288v-66.456l-54.294-5.301c-5.342-0.505-9.775-4.346-11.034-9.563l0.089 0.013zM511.962 641.814c-106.993-0.14-193.628-86.964-193.535-193.958s86.88-193.667 193.873-193.62c106.993 0.047 193.704 86.795 193.704 193.789 0 51.44-20.452 100.769-56.849 137.119s-85.753 56.737-137.193 56.67zM511.962 278.827c-93.412 0.148-169.031 75.967-168.931 169.379s75.882 169.070 169.295 169.015c93.413-0.054 169.107-75.798 169.101-169.21 0-44.918-17.867-87.991-49.656-119.726s-74.891-49.529-119.808-49.459v0zM512 506.821c12.791-0.014 23.157-10.379 23.171-23.171 0-6.79 5.505-12.296 12.296-12.296s12.296 5.505 12.296 12.296c-0.024 20.841-13.536 39.268-33.406 45.556v8.966c0 6.79-5.505 12.296-12.296 12.296s-12.296-5.505-12.296-12.296v-7.876c-23.829-5.213-39.898-27.549-37.265-51.799s23.12-42.618 47.513-42.597c12.797 0 23.171-10.374 23.171-23.171s-10.374-23.171-23.171-23.171c-12.797 0-23.171 10.374-23.171 23.171 0 6.79-5.505 12.296-12.296 12.296s-12.296-5.505-12.296-12.296c0.038-21.642 14.6-40.562 35.511-46.139v-12.822c0-6.79 5.505-12.296 12.296-12.296s12.296 5.505 12.296 12.296v12.796c23.092 6.23 38.012 28.585 34.907 52.301s-23.278 41.475-47.197 41.55c-12.797 0-23.171 10.374-23.171 23.171s10.374 23.171 23.171 23.171l-0.063 0.063zM942.889 489.484c-2.334 2.816-5.802 4.446-9.461 4.446s-7.127-1.63-9.461-4.446l-78.264-94.358c-3.044-3.804-3.686-8.999-1.662-13.431 1.993-4.39 6.304-7.271 11.123-7.432h61.853c-14.088-104.304-66.133-199.755-146.179-268.096-71.952-63.242-163.857-99.158-259.623-101.46-61.752 0.854-122.397 16.512-176.845 45.657-59.383 31.024-110.884 75.215-150.567 129.197-2.533 3.692-6.875 5.714-11.331 5.277s-8.322-3.262-10.092-7.375c-1.769-4.113-1.161-8.863 1.586-12.398 41.918-57.007 96.317-103.672 159.038-136.426 57.966-30.954 122.514-47.542 188.221-48.372 101.612 2.254 199.188 40.197 275.629 107.18 85.278 73.182 140.467 175.327 154.942 286.764h69.893c4.825 0.142 9.152 3.012 11.16 7.402s1.349 9.54-1.699 13.283l-78.264 94.587zM881.328 398.842l52.1 62.817 52.1-62.817h-104.2zM179.971 514.354c-1.993 4.39-6.304 7.271-11.123 7.432h-61.853c14.085 104.303 66.124 199.753 146.166 268.096 71.952 63.242 163.857 99.158 259.623 101.46 61.752-0.854 122.397-16.512 176.845-45.657 59.393-31.037 110.899-75.246 150.58-129.247 2.497-3.773 6.866-5.87 11.371-5.457s8.42 3.269 10.19 7.434c1.769 4.165 1.106 8.964-1.725 12.494-41.926 57.021-96.339 103.694-159.077 136.451-57.966 30.954-122.514 47.542-188.221 48.372-101.612-2.254-199.188-40.197-275.629-107.18-85.264-73.189-140.439-175.332-154.904-286.764h-69.906c-4.825-0.142-9.152-3.012-11.16-7.402s-1.349-9.54 1.699-13.283l78.264-94.459c2.322-2.828 5.786-4.473 9.446-4.485s7.134 1.609 9.476 4.422l78.289 94.522c3.043 3.738 3.683 8.885 1.649 13.254zM90.585 434.379l-52.087 62.817h104.187l-52.1-62.817z" />
<glyph unicode="&#xe915;" glyph-name="arrow" d="M962.815 473.748c19.601 0 35.49-15.89 35.49-35.49 0-18.201-13.701-33.201-31.351-35.251l-4.139-0.239h-927.325c-19.601 0-35.49 15.89-35.49 35.49 0 18.201 13.701 33.201 31.351 35.251l4.139 0.239h927.325zM755.958 680.281c13.017 12.566 33.162 13.196 46.892 2.127l3.291-3.011 207.902-215.355c12.624-13.076 13.194-33.331 1.996-47.054l-3.044-3.287-207.902-198.142c-14.189-13.523-36.653-12.983-50.176 1.206-12.483 13.097-12.983 33.247-1.826 46.905l3.032 3.272 182.027 173.516-183.075 189.641c-12.566 13.017-13.196 33.162-2.127 46.892l3.011 3.291z" />
<glyph unicode="&#xe916;" glyph-name="calender" d="M837.818 866.908h-651.637c-77.119 0-139.636-62.517-139.636-139.636v-651.637c0-77.119 62.517-139.636 139.636-139.636h651.637c77.119 0 139.636 62.517 139.636 139.636v651.637c0 77.119-62.517 139.636-139.636 139.636zM186.181 773.817h651.637c25.706 0 46.545-20.839 46.545-46.545v-651.637c0-25.706-20.839-46.545-46.545-46.545h-651.637c-25.706 0-46.545 20.839-46.545 46.545v651.637c0 25.706 20.839 46.545 46.545 46.545zM698.181 960c23.87 0 43.544-17.968 46.232-41.117l0.313-5.428v-186.182c0-25.706-20.839-46.545-46.545-46.545-23.87 0-43.544 17.968-46.232 41.117l-0.313 5.428v186.182c0 25.706 20.839 46.545 46.545 46.545zM325.818 960c23.87 0 43.544-17.968 46.232-41.117l0.313-5.428v-186.182c0-25.706-20.839-46.545-46.545-46.545-23.87 0-43.544 17.968-46.232 41.117l-0.313 5.428v186.182c0 25.706 20.839 46.545 46.545 46.545zM930.909 587.635c25.706 0 46.545-20.839 46.545-46.545 0-23.87-17.968-43.544-41.117-46.232l-5.428-0.313h-837.819c-25.706 0-46.545 20.839-46.545 46.545 0 23.87 17.968 43.544 41.117 46.232l5.428 0.313h837.819z" />
<glyph unicode="&#xe917;" glyph-name="faq" d="M512 960c-282.77 0-512-229.23-512-512s229.23-512 512-512c282.77 0 512 229.23 512 512s-229.23 512-512 512zM512 866.909c231.357 0 418.909-187.552 418.909-418.909s-187.552-418.909-418.909-418.909c-231.357 0-418.909 187.552-418.909 418.909s187.552 418.909 418.909 418.909zM332.645 603.082c30.127 85.641 117.629 137.067 207.107 121.719s154.841-92.994 154.707-183.71c0-59.565-35.291-106.619-90.546-143.455-30.204-20.136-59.878-33.324-80.918-40.338-24.387-8.129-50.747 5.051-58.876 29.438-7.548 22.645 3.277 46.991 24.387 56.862l13.737 5.303 8.947 3.815c14.108 6.27 28.199 13.785 41.085 22.376 32.018 21.345 49.092 44.11 49.092 66.068 0.068 45.393-32.614 84.216-77.353 91.89-42.254 7.248-83.626-15.285-100.782-53.884l-2.771-6.976c-8.53-24.25-35.104-36.993-59.354-28.462s-36.993 35.104-28.462 59.354zM512.465 261.818c25.706 0 46.545-20.839 46.545-46.545 0-23.87-17.968-43.544-41.117-46.232l-5.894-0.313c-25.706 0-46.545 20.839-46.545 46.545 0 23.87 17.968 43.544 41.117 46.232l5.894 0.313z" />
<glyph unicode="&#xe918;" glyph-name="add-file" d="M512 960c-282.77 0-512-229.23-512-512s229.23-512 512-512c282.77 0 512 229.23 512 512s-229.23 512-512 512zM512 866.909c231.357 0 418.909-187.552 418.909-418.909s-187.552-418.909-418.909-418.909c-231.357 0-418.909 187.552-418.909 418.909s187.552 418.909 418.909 418.909zM512 680.727c23.87 0 43.544-17.968 46.232-41.117l0.313-5.428v-372.364c0-25.706-20.839-46.545-46.545-46.545-23.87 0-43.544 17.968-46.232 41.117l-0.313 5.428v372.364c0 25.706 20.839 46.545 46.545 46.545zM698.182 494.545c25.706 0 46.545-20.839 46.545-46.545 0-23.87-17.968-43.544-41.117-46.232l-5.428-0.313h-372.364c-25.706 0-46.545 20.839-46.545 46.545 0 23.87 17.968 43.544 41.117 46.232l5.428 0.313h372.364z" />
<glyph unicode="&#xe919;" glyph-name="edit" d="M841.121 448c-20.196 0-36.572-16.371-36.572-36.572v-365.707c0-20.196-16.371-36.572-36.572-36.572h-658.27c-20.196 0-36.572 16.371-36.572 36.572v731.413c0 20.196 16.371 36.572 36.572 36.572h438.85c20.196 0 36.572 16.371 36.572 36.572s-16.371 36.567-36.572 36.567h-438.85c-60.593 0-109.71-49.118-109.71-109.71v-731.413c0-60.593 49.118-109.71 109.71-109.71h658.27c60.593 0 109.71 49.118 109.71 109.71v365.707c0 20.196-16.371 36.567-36.572 36.567zM982.994 918.98c-26.259 26.263-61.874 41.009-99.010 41.009-37.16 0.105-72.809-14.669-98.995-41.033l-481.709-481.671c-3.997-4.026-7.009-8.922-8.812-14.301l-73.138-219.425c-6.383-19.163 3.978-39.871 23.141-46.254 3.72-1.238 7.612-1.874 11.528-1.874 3.925 0 7.827 0.636 11.556 1.865l219.425 73.138c5.388 1.798 10.284 4.829 14.301 8.85l481.709 481.709c54.673 54.669 54.678 143.308 0.014 197.981zM931.271 772.674l-475.417-475.417-142.041-47.43 47.286 141.859 475.603 475.417c26.149 26.096 68.501 26.053 94.597-0.096 12.465-12.489 19.488-29.4 19.541-47.047 0.043-17.738-7-34.764-19.565-47.286z" />
<glyph unicode="&#xe91a;" glyph-name="checked" d="M780.19 518.949v-430.080h-682.665v682.667h608.059l107.278 97.522h-812.862v-877.714h877.714v617.326zM954.27 904.656l-529.065-480.793-165.792 165.303-64.366-64.366 234.546-234.544 594.407 546.133z" />
<glyph unicode="&#xe91b;" glyph-name="angle-left" d="M410.975 448.021l393.978 357.415c35.371 35.371 35.371 92.664 0 128.035s-92.664 35.371-128.033 0l-458.295-415.816c-19.111-19.111-27.539-44.651-25.965-69.678-1.575-25.027 6.853-50.566 25.965-69.678l458.337-415.771c35.371-35.371 92.664-35.371 128.035 0s35.371 92.664 0 128.033l-394.021 357.459z" />
<glyph unicode="&#xe91c;" glyph-name="caret-down" d="M1004.992 717.009c-12.658 12.669-27.663 18.998-45 18.998h-895.987c-17.344 0-32.339-6.329-45.007-18.998-12.669-12.683-18.998-27.677-18.998-45.011 0-17.33 6.329-32.325 18.998-44.997l447.995-447.995c12.683-12.669 27.677-19.012 45.007-19.012s32.339 6.343 44.997 19.012l447.995 447.999c12.655 12.669 19.008 27.663 19.008 44.997 0 17.33-6.354 32.325-19.008 45.007z" />
<glyph unicode="&#xe91d;" glyph-name="caret-up" d="M1004.994 269.003l-447.996 447.992c-12.655 12.669-27.652 18.998-44.997 18.998s-32.339-6.329-45.007-18.998l-447.996-447.992c-12.669-12.669-18.998-27.666-18.998-44.997s6.329-32.339 18.998-44.997c12.683-12.669 27.677-19.001 45.007-19.001h895.987c17.334 0 32.339 6.333 45 19.001 12.655 12.655 19.008 27.663 19.008 44.997s-6.354 32.328-19.008 44.997z" />
</font>
</defs>
</svg>
