<svg xmlns="http://www.w3.org/2000/svg" width="66" height="64" viewBox="0 0 66 64">
    <g>
        <path
            d="M54.749,-2.17583889e-06 L0.923,-2.17583889e-06 C0.678562453,-0.000530953717 0.443940037,0.0961309874 0.27081506,0.268693261 C0.097690083,0.441255535 -2.17583888e-06,0.67556202 -2.17583888e-06,0.92 L-2.17583888e-06,26.758 C-2.17583888e-06,27.0024375 0.0961309874,27.23706 0.268693261,27.4101849 C0.441255535,27.5833099 0.67556202,27.681 0.92,27.681 L37.52,27.681 C38.0176641,27.6646125 38.4126232,27.2564338 38.4126232,26.7585 C38.4126232,26.2605662 38.0176641,25.8523875 37.52,25.836 L1.845,25.836 L1.845,1.846 L53.824,1.846 L53.824,4.153 C53.823469,4.39743755 53.920131,4.63205996 54.0926933,4.80518494 C54.2652555,4.97830992 54.499562,5.07573517 54.744,5.076 L54.744,5.076 C55.2528168,5.07655306 55.6658966,4.66481592 55.6670006,4.156 L55.6670006,0.923 C55.6670006,0.414961347 55.2570342,0.00220376954 54.749,-2.17583889e-06 L54.749,-2.17583889e-06 Z"
            transform="translate(.419 20.796)" />
        <path
            d="M47.338,9.711 L4.279,0.022 C3.78194844,-0.0884301319 3.28947925,0.224959355 3.179,0.722 L1.026,10.41 C0.936469711,10.7382528 1.03478917,11.0891421 1.28184656,11.3230828 C1.52890394,11.5570235 1.88463003,11.6360737 2.20751571,11.528787 C2.53040139,11.4215004 2.76807918,11.1452772 2.826,10.81 L4.778,2.025 L46.933,11.511 C46.998552,11.5263802 47.0656679,11.5340985 47.133,11.534 C47.6003516,11.5294798 47.9905652,11.1763383 48.0415622,10.7117555 C48.0925593,10.2471726 47.7882426,9.81779285 47.333,9.712 L47.338,9.711 Z"
            transform="translate(1.571 6.802)" />
        <path
            d="M29.284,10.836 L3.448,0.072 C2.99902529,-0.11503792 2.48186739,0.0771491379 2.264,0.512 L0.111,4.818 C-0.128900177,5.26742389 0.0392866972,5.82622288 0.487395663,6.06857034 C0.935504628,6.31091779 1.49521248,6.14578071 1.74,5.699 C1.75,5.681 1.759,5.663 1.767,5.645 L1.767,5.645 L3.533,2.11 L28.571,12.542 C28.876609,12.672921 29.2289704,12.6297603 29.4939454,12.4289484 C29.7589205,12.2281365 29.8957431,11.9005683 29.8523269,11.5709439 C29.8089107,11.2413195 29.5919354,10.9603515 29.284,10.835 L29.284,10.836 Z"
            transform="translate(14.396 .338)" />
        <path
            d="M10.467,0 L1.923,0 C1.58617933,-0.0110910941 1.27008719,0.162270368 1.09839348,0.452257345 C0.926699772,0.742244322 0.926699772,1.10275568 1.09839348,1.39274265 C1.27008719,1.68272963 1.58617933,1.85609109 1.923,1.845 L10.467,1.845 C10.9646641,1.82861253 11.3596232,1.42043384 11.3596232,0.9225 C11.3596232,0.424566157 10.9646641,0.0163874723 10.467,0 Z"
            transform="translate(33.866 25.102)" />
        <path
            d="M9.473,0 C4.24120656,0 0,4.24120656 0,9.473 C0,14.7047934 4.24120656,18.946 9.473,18.946 C14.7047934,18.946 18.946,14.7047934 18.946,9.473 C18.946,4.24120656 14.7047934,0 9.473,0 Z M9.473,17.224 C5.1922409,17.224 1.722,13.7537591 1.722,9.473 C1.722,5.1922409 5.1922409,1.722 9.473,1.722 C13.7537591,1.722 17.2240006,5.1922409 17.2240006,9.473 C17.2247959,11.5292127 16.4085263,13.5014807 14.9548456,14.9557241 C13.5011649,16.4099675 11.5292129,17.227 9.473,17.227 L9.473,17.224 Z"
            transform="translate(17.704 25.163)" />
        <path
            d="M11.844,0 C6.139,0 0.003,1.348 0.003,4.306 L0.003,30.142 C0.003,33.1 6.139,34.448 11.844,34.448 C17.549,34.448 23.685,33.1 23.685,30.142 L23.685,4.306 C23.683,1.348 17.544,0 11.844,0 Z M21.53,30.127 C21.367,30.727 18.139,32.296 11.842,32.296 C5.545,32.296 2.316,30.724 2.154,30.143 L2.154,28.451 C4.445,29.605 8.229,30.143 11.842,30.143 C15.455,30.143 19.242,29.599 21.53,28.45 L21.53,30.127 Z M21.53,25.821 C21.367,26.421 18.139,27.99 11.842,27.99 C5.545,27.99 2.316,26.418 2.154,25.837 L2.154,24.145 C4.445,25.299 8.229,25.837 11.842,25.837 C15.455,25.837 19.242,25.293 21.53,24.144 L21.53,25.821 Z M21.53,21.515 C21.367,22.115 18.139,23.684 11.842,23.684 C5.545,23.684 2.316,22.112 2.154,21.531 L2.154,19.837 C4.445,20.991 8.229,21.529 11.842,21.529 C15.455,21.529 19.242,20.985 21.53,19.836 L21.53,21.515 Z M21.53,17.209 C21.367,17.809 18.139,19.378 11.842,19.378 C5.545,19.378 2.316,17.806 2.154,17.225 L2.154,15.527 C4.445,16.681 8.229,17.219 11.842,17.219 C15.455,17.219 19.242,16.675 21.53,15.526 L21.53,17.209 Z M21.53,12.903 C21.367,13.503 18.139,15.072 11.842,15.072 C5.545,15.072 2.316,13.5 2.154,12.919 L2.154,11.227 C4.445,12.376 8.229,12.919 11.842,12.919 C15.455,12.919 19.242,12.375 21.53,11.226 L21.53,12.903 Z M21.53,8.597 C21.367,9.197 18.139,10.766 11.842,10.766 C5.545,10.766 2.316,9.194 2.154,8.613 L2.154,6.921 C4.445,8.07 8.229,8.613 11.842,8.613 C15.455,8.613 19.242,8.069 21.53,6.92 L21.53,8.597 Z M11.842,6.46 C5.554,6.46 2.327,4.893 2.154,4.326 L2.154,4.32 C2.327,3.72 5.554,2.154 11.842,2.154 C18.086,2.154 21.315,3.698 21.53,4.307 C21.314,4.915 18.085,6.459 11.844,6.459 L11.842,6.46 Z"
            transform="translate(41.171 28.177)" />
        <path
            d="M13.841,17.223 L5.708,17.223 L1.85,13.003 L1.85,6.003 L6.111,1.842 L13.846,1.842 C14.3436641,1.82561253 14.7386232,1.41743384 14.7386232,0.9195 C14.7386232,0.421566157 14.3436641,0.0133874723 13.846,-0.00300173238 L5.732,-0.00300173238 C5.49069748,-0.00346720213 5.25880699,0.0905812625 5.086,0.259 L0.277,4.949 C0.0971443755,5.15899965 -0.00148613082,5.42650829 -0.00100178848,5.703 L-0.00100178848,13.359 C-0.00100178848,13.5891273 0.0849354908,13.8109601 0.24,13.981 L4.614,18.765 C4.78877143,18.9562337 5.03593366,19.0650001 5.295,19.0650001 L13.84,19.0650001 C14.3376641,19.0486125 14.7326232,18.6404338 14.7326232,18.1425 C14.7326232,17.6445662 14.3376641,17.2363875 13.84,17.22 L13.841,17.223 Z"
            transform="translate(4.724 25.102)" />
        <path
            d="M3.768,3.768 L2.692,3.768 C2.357,3.768 2.154,3.581 2.154,3.499 C2.154,3.417 2.354,3.23 2.692,3.23 L5.383,3.23 C5.97753453,3.23 6.4595,2.74803453 6.4595,2.1535 C6.4595,1.55896547 5.97753453,1.077 5.383,1.077 L4.307,1.077 C4.307,0.482465467 3.82503453,0.0005 3.2305,0.0005 C2.63596547,0.0005 2.154,0.482465467 2.154,1.077 L2.154,1.127 C0.960117968,1.29560671 0.055549878,2.29050557 0.001,3.495 C0.0785125669,4.90609729 1.28041661,5.99008878 2.692,5.922 L3.768,5.922 C4.103,5.922 4.306,6.109 4.306,6.191 C4.306,6.273 4.106,6.46 3.768,6.46 L1.077,6.46 C0.482465467,6.46 0.0005,6.94196547 0.0005,7.5365 C0.0005,8.13103453 0.482465467,8.613 1.077,8.613 L2.153,8.613 C2.153,9.20753453 2.63496547,9.6895 3.2295,9.6895 C3.82403453,9.6895 4.306,9.20753453 4.306,8.613 L4.306,8.565 C5.49988203,8.39639329 6.40445012,7.40149443 6.459,6.197 C6.38254407,4.78510733 5.18032208,3.69993556 3.768,3.768 L3.768,3.768 Z"
            transform="translate(23.948 29.792)" />
    </g>
</svg>