<svg xmlns="http://www.w3.org/2000/svg" width="65" height="64" viewBox="0 0 65 64">
    <g>
        <path
            d="M36.306,59.799 C49.2802733,59.799 59.798,49.2812733 59.798,36.307 C59.798,23.3327267 49.2802733,12.815 36.306,12.815 C23.3317267,12.815 12.814,23.3327267 12.814,36.307 C12.814,42.5374658 15.2890429,48.5127479 19.6946475,52.9183525 C24.1002521,57.3239571 30.0755342,59.799 36.306,59.799 L36.306,59.799 Z M18.153,35.239 L15.004,35.239 C15.560311,24.3022324 24.3022324,15.560311 35.239,15.004 L35.239,18.153 C35.239,18.7428401 35.7171599,19.221 36.307,19.221 C36.8968401,19.221 37.375,18.7428401 37.375,18.153 L37.375,15.004 C48.3110145,15.5607621 57.0522379,24.3019855 57.609,35.238 L53.392,35.238 C53.0104403,35.238 52.6578646,35.4415596 52.4670848,35.772 C52.2763049,36.1024403 52.2763049,36.5095597 52.4670848,36.84 C52.6578646,37.1704404 53.0104403,37.374 53.392,37.374 L57.609,37.374 C57.0522379,48.3100145 48.3110145,57.0512379 37.375,57.608 L37.375,54.459 C37.375,53.8691599 36.8968401,53.391 36.307,53.391 C35.7171599,53.391 35.239,53.8691599 35.239,54.459 L35.239,57.608 C24.3025952,57.0517337 15.5608068,48.3103773 15.004,37.374 L18.153,37.374 C18.5345597,37.374 18.8871354,37.1704404 19.0779152,36.84 C19.2686951,36.5095597 19.2686951,36.1024403 19.0779152,35.772 C18.8871354,35.4415596 18.5345597,35.238 18.153,35.238 L18.153,35.239 Z" />
        <path
            d="M60.349,22.443 C60.0303333,21.8916667 59.6933333,21.3516667 59.338,20.823 L61.974,18.187 C62.3908266,17.7699636 62.3908266,17.0940364 61.974,16.677 L55.941,10.644 C55.5239636,10.2271734 54.8480364,10.2271734 54.431,10.644 L51.79,13.276 C47.5184341,10.3917214 42.5245739,8.76116508 37.374,8.569 L37.374,2.136 L44.849,2.136 C45.4388401,2.136 45.917,1.65784011 45.917,1.068 C45.917,0.478159887 45.4388401,0 44.849,0 L27.764,0 C27.1741599,0 26.696,0.478159887 26.696,1.068 C26.696,1.65784011 27.1741599,2.136 27.764,2.136 L35.239,2.136 L35.239,8.579 C25.7151986,8.94250951 17.0453068,14.1711049 12.28,22.425 L6.407,22.425 C5.81715989,22.425 5.339,22.9031599 5.339,23.493 C5.339,24.0828401 5.81715989,24.561 6.407,24.561 L12.814,24.561 C12.842,24.561 12.865,24.547 12.893,24.545 C13.2776985,24.5498807 13.6346681,24.345351 13.825,24.011 C19.444703,13.7386285 31.3120044,8.5813616 42.6562265,11.4815861 C54.0004486,14.3818106 61.9364247,24.6019148 61.9364247,36.311 C61.9364247,48.0200852 54.0004486,58.2401894 42.6562265,61.1404139 C31.3120044,64.0406384 19.444703,58.8833715 13.825,48.611 C13.6363142,48.275353 13.2800343,48.0688639 12.895,48.072 C12.867,48.072 12.843,48.056 12.814,48.056 L6.407,48.056 C5.81715989,48.056 5.339,48.5341599 5.339,49.124 C5.339,49.7138401 5.81715989,50.192 6.407,50.192 L12.28,50.192 C19.9766682,63.3918719 36.8955815,67.8869084 50.1287975,60.2477124 C63.3620135,52.6085165 67.9305792,35.7093098 60.349,22.443 Z M53.535,14.559 L55.186,12.908 L59.709,17.431 L58.056,19.084 C56.7264326,17.4082467 55.2095769,15.8900488 53.535,14.559 L53.535,14.559 Z" />
        <path
            d="M10.678 36.307C10.678 35.7175502 10.2004496 35.2395519 9.611 35.239L1.068 35.239C.478159887 35.239-1.19904087e-14 35.7171599-1.19904087e-14 36.307-1.19904087e-14 36.8968401.478159887 37.375 1.068 37.375L9.611 37.375C10.2004496 37.3744481 10.678 36.8964498 10.678 36.307zM3.204 30.968L10.679 30.968C11.2688401 30.968 11.747 30.4898401 11.747 29.9 11.747 29.3101599 11.2688401 28.832 10.679 28.832L3.204 28.832C2.61415989 28.832 2.136 29.3101599 2.136 29.9 2.136 30.4898401 2.61415989 30.968 3.204 30.968zM11.747 42.714C11.747 42.1241599 11.2688401 41.646 10.679 41.646L3.204 41.646C2.61415989 41.646 2.136 42.1241599 2.136 42.714 2.136 43.3038401 2.61415989 43.782 3.204 43.782L10.679 43.782C11.2688401 43.782 11.747 43.3038401 11.747 42.714zM33.416 43.468C33.8330364 43.8848266 34.5089636 43.8848266 34.926 43.468L49.769 28.625C50.1701672 28.2054163 50.1627277 27.5422298 49.752249 27.131751 49.3417702 26.7212723 48.6785837 26.7138328 48.259 27.115L34.171 41.203 27.817 34.849C27.3974163 34.4478328 26.7342298 34.4552723 26.323751 34.865751 25.9132723 35.2762298 25.9058328 35.9394163 26.307 36.359L33.416 43.468z" />
    </g>
</svg>