<svg xmlns="http://www.w3.org/2000/svg" width="46" height="58" viewBox="0 0 46 58">
    <g>
        <path
            d="M44.51,11.722 L22.745,0.127 C22.4227194,-0.0452120395 22.0352525,-0.0429549506 21.715,0.133 L0.562,11.728 C0.21524227,11.9182801 -1.42269588e-07,12.2824657 -1.42269588e-07,12.678 L-1.42269588e-07,27.824 C0.0138697511,40.2744155 7.3917697,51.5374862 18.8,56.524 L21.737,57.804 C22.0119301,57.923396 22.3240699,57.923396 22.599,57.804 L25.908,56.375 C37.5240583,51.4940662 45.0809478,40.123854 45.083,27.524 L45.083,12.679 C45.083,12.2788094 44.8621326,11.9112815 44.509,11.723 L44.51,11.722 Z M42.917,27.522 C42.9151295,39.2555499 35.8752718,49.8431239 25.056,54.384 L25.049,54.384 L22.167,55.628 L19.667,54.536 C9.04736042,49.8943158 2.17955579,39.409729 2.167,27.82 L2.167,13.32 L22.245,2.314 L42.917,13.328 L42.917,27.522 Z" />
        <path
            d="M14.255,27.121 C13.8664677,26.6659174 13.1825827,26.6119678 12.7275001,27.0005001 C12.2724175,27.3890324 12.2184677,28.0729174 12.607,28.528 L18.329,35.228 C18.7108281,35.6752364 19.3797822,35.7360504 19.836,35.365 L33.163,24.522 C33.4632817,24.277809 33.6104791,23.8919688 33.5491444,23.5098216 C33.4878096,23.1276745 33.2272609,22.8072777 32.8656444,22.6693216 C32.5040279,22.5313655 32.0962817,22.596809 31.796,22.841 L19.29,33.017 L14.255,27.121 Z" />
    </g>
</svg>