<?xml version="1.0" encoding="utf-8"?>
<!-- Generator: Adobe Illustrator 19.2.1, SVG Export Plug-In . SVG Version: 6.00 Build 0)  -->
<svg version="1.1" id="Layer_1" xmlns="http://www.w3.org/2000/svg" xmlns:xlink="http://www.w3.org/1999/xlink" x="0px" y="0px"
	 viewBox="0 0 183.3 144.5" style="enable-background:new 0 0 183.3 144.5;" xml:space="preserve">
<style type="text/css">
	.st0{fill:none;stroke:#8CCA49;stroke-width:4;stroke-linecap:round;stroke-miterlimit:10;}
	.st1{fill:#8CCA49;}
</style>
<g>
	<g>
		<path class="st0" d="M24.7,142.6H11.4c-4.7,0-8.4-3.7-8.4-8.4v-30c0-4.7,3.7-8.4,8.4-8.4h13.3c4.7,0,8.4,3.7,8.4,8.4v30
			C33.1,138.9,29.3,142.6,24.7,142.6z"/>
		<path class="st0" d="M33.1,133.1l0.7,0.1c11.7,2,23.7,2.2,35.5,0.6l40.8-5.4c11.8-1.6,23.3-5.5,33.6-11.6L180.3,95l0,0
			c-2.8-4.8-8.6-6.9-13.7-4.9l-25.9,10.1c-10.2,4-21.1,6.1-32,6.1l-26.9,0.1l24-9.9c4-1.6,7.1-5.1,8.2-9.3l0,0
			c0.3-1-0.6-1.9-1.5-1.7l-46.6,6.6c-10.7,0.8-22.1,5.8-31.4,13.7l-1.3,1.1L33.1,133.1L33.1,133.1z"/>
		<path class="st0" d="M141.5,99.8l17.5-6.9l10.5-8.5l0,0c-3.5-4.6-9.9-5.8-15-3L129.2,96c-8,4.6-16.6,7.9-25.6,9.9h6
			C120.4,105.9,131.3,103.8,141.5,99.8z"/>
		<path class="st0" d="M138.3,90.7l6.8-10.4l0,0c-4.8-3.2-11.3-2.6-15.2,1.7l-19.8,21.5c-0.3,0.3-0.6,0.7-0.9,1
			c6.9-2,13.5-4.9,19.8-8.4L138.3,90.7z"/>
		<g>
			<path class="st1" d="M18.1,131c0.9,0,1.5,0.7,1.5,1.5s-0.7,1.5-1.5,1.5c-0.9,0-1.5-0.7-1.5-1.5C16.4,131.7,17.2,131,18.1,131
				 M18.1,127.2c-3,0-5.3,2.4-5.3,5.3s2.4,5.3,5.3,5.3s5.3-2.4,5.3-5.3C23.4,129.6,21,127.2,18.1,127.2L18.1,127.2z"/>
		</g>
	</g>
	<g>
		<rect x="44.5" y="18" class="st0" width="103.5" height="48.6"/>
		<path class="st0" d="M131.7,59.2H60.8c0-4.8-3.8-8.6-8.6-8.6V34.2c4.8,0,8.6-3.8,8.6-8.6h70.9c0,4.8,3.8,8.6,8.6,8.6v16.4
			C135.5,50.6,131.7,54.4,131.7,59.2z"/>
		<circle class="st0" cx="96.2" cy="42.4" r="10.4"/>
		<circle class="st1" cx="70.6" cy="42.4" r="4.3"/>
		<circle class="st1" cx="123" cy="42.4" r="4.3"/>
	</g>
	<line class="st0" x1="52.2" y1="10" x2="140.3" y2="10"/>
	<line class="st0" x1="61.6" y1="2.6" x2="130.9" y2="2.6"/>
</g>
</svg>
