<?xml version="1.0" encoding="utf-8"?>
<!-- Generator: Adobe Illustrator 19.2.1, SVG Export Plug-In . SVG Version: 6.00 Build 0)  -->
<svg version="1.1" id="Layer_1" xmlns="http://www.w3.org/2000/svg" xmlns:xlink="http://www.w3.org/1999/xlink" x="0px" y="0px"
	 viewBox="0 0 140 140" style="enable-background:new 0 0 140 140;" xml:space="preserve">
<style type="text/css">
	.st0{fill:none;stroke:#8CCA49;stroke-width:4;stroke-miterlimit:10;}
	.st1{fill:none;stroke:#8CCA49;stroke-width:4;stroke-linecap:round;stroke-miterlimit:10;}
</style>
<g>
	<path class="st0" d="M91.7,138H75v-27.4c0-1.3-1.1-2.5-2.5-2.5H64c-1.3,0-2.5,1.1-2.5,2.5V138H44.8V17.5c0-1.8,1.4-3.2,3.2-3.2
		h40.5c1.8,0,3.2,1.4,3.2,3.2C91.7,17.5,91.7,138,91.7,138z"/>
	<line class="st1" x1="55.3" y1="23.9" x2="55.3" y2="95.3"/>
	<line class="st1" x1="64" y1="23.9" x2="64" y2="95.3"/>
	<path class="st0" d="M44.8,138H15.6l0-80.1c0-1.8,1.4-3.2,3.2-3.2h23c1.8,0,3.2,1.4,3.2,3.2C44.8,57.9,44.8,138,44.8,138z"/>
	<line class="st1" x1="26" y1="64.2" x2="26" y2="126.9"/>
	<line class="st1" x1="34.8" y1="64.2" x2="34.8" y2="126.9"/>
	<path class="st0" d="M120.9,138H91.7V49.1c0-1.8,1.4-3.2,3.2-3.2h23c1.8,0,3.2,1.4,3.2,3.2V138z"/>
	<line class="st1" x1="102.1" y1="55.4" x2="102.1" y2="118.1"/>
	<line class="st1" x1="110.9" y1="55.4" x2="110.9" y2="118.1"/>
	<line class="st1" x1="72.8" y1="23.9" x2="72.8" y2="95.3"/>
	<line class="st1" x1="81.6" y1="23.9" x2="81.6" y2="95.3"/>
	<path class="st0" d="M77.5,6.3h-18c-3.8,0-6.8,3.1-6.8,6.8v1.2h31.6v-1.2C84.4,9.4,81.3,6.3,77.5,6.3z"/>
	<line class="st1" x1="68.5" y1="-2" x2="68.5" y2="6.3"/>
	<line class="st1" x1="30.2" y1="38.2" x2="30.2" y2="54.3"/>
</g>
</svg>
