<?xml version="1.0" encoding="utf-8"?>
<!-- Generator: Adobe Illustrator 19.2.1, SVG Export Plug-In . SVG Version: 6.00 Build 0)  -->
<svg version="1.1" id="Layer_1" xmlns="http://www.w3.org/2000/svg" xmlns:xlink="http://www.w3.org/1999/xlink" x="0px" y="0px"
	 viewBox="0 0 60 50" style="enable-background:new 0 0 60 50;" xml:space="preserve">
<style type="text/css">
	.st0{fill:none;stroke:#8CCA49;stroke-width:4;stroke-linecap:round;stroke-miterlimit:10;}
</style>
<g>
	<path class="st0" d="M-1.2,4.9L-1.2,4.9C-1.2,2.2,0.9,0,3.7,0h51.4C57.8,0,60,2.1,60,4.9l0,0c0,2.7-2.1,4.9-4.9,4.9H3.7
		C0.9,9.7-1.2,7.6-1.2,4.9z"/>
	<path class="st0" d="M-1.2,25L-1.2,25c0-2.7,2.1-4.9,4.9-4.9h51.4c2.7,0,4.9,2.1,4.9,4.9l0,0c0,2.7-2.1,4.9-4.9,4.9H3.7
		C0.9,29.8-1.2,27.7-1.2,25z"/>
	<path class="st0" d="M-1.2,45.2L-1.2,45.2c0-2.7,2.1-4.9,4.9-4.9h51.4c2.7,0,4.9,2.1,4.9,4.9l0,0c0,2.7-2.1,4.9-4.9,4.9H3.7
		C0.9,50-1.2,47.9-1.2,45.2z"/>
</g>

</svg>
