<?xml version="1.0" encoding="utf-8"?>
<!-- Generator: Adobe Illustrator 19.2.1, SVG Export Plug-In . SVG Version: 6.00 Build 0)  -->
<svg version="1.1" id="Layer_1" xmlns="http://www.w3.org/2000/svg" xmlns:xlink="http://www.w3.org/1999/xlink" x="0px" y="0px"
	 viewBox="0 0 140 140" style="enable-background:new 0 0 140 140;" xml:space="preserve">
<style type="text/css">
	.st0{fill:#8CCA49;}
	.st1{fill:none;stroke:#FFFFFF;stroke-width:4;stroke-miterlimit:10;}
</style>
<g>
	<g>
		<circle class="st0" cx="70" cy="70" r="70"/>
	</g>
	<path class="st1" d="M86.3,46.9L70,63.2L53.7,46.9c-1.8-1.8-4.9-1.8-6.8,0l0,0c-1.8,1.8-1.8,4.9,0,6.8L63.2,70L46.9,86.3
		c-1.8,1.8-1.8,4.9,0,6.8l0,0c1.8,1.8,4.9,1.8,6.8,0L70,76.8l16.3,16.3c1.8,1.8,4.9,1.8,6.8,0l0,0c1.8-1.8,1.8-4.9,0-6.8L76.8,70
		l16.3-16.3c1.8-1.8,1.8-4.9,0-6.8l0,0C91.2,45,88.2,45,86.3,46.9z"/>
</g>
</svg>
