<svg id="assembly-line" xmlns="http://www.w3.org/2000/svg" width="129.299" height="129.299" viewBox="0 0 129.299 129.299">
  <path id="Path_663" data-name="Path 663" d="M13.465,48.93A6.465,6.465,0,1,0,7,42.465,6.465,6.465,0,0,0,13.465,48.93Zm0-8.62a2.155,2.155,0,1,1-2.155,2.155A2.155,2.155,0,0,1,13.465,40.31Z" transform="translate(8.085 41.579)" fill="#016d53"/>
  <path id="Path_664" data-name="Path 664" d="M21.465,48.93A6.465,6.465,0,1,0,15,42.465,6.465,6.465,0,0,0,21.465,48.93Zm0-8.62a2.155,2.155,0,1,1-2.155,2.155A2.155,2.155,0,0,1,21.465,40.31Z" transform="translate(17.325 41.579)" fill="#016d53"/>
  <path id="Path_665" data-name="Path 665" d="M29.465,48.93A6.465,6.465,0,1,0,23,42.465,6.465,6.465,0,0,0,29.465,48.93Zm0-8.62a2.155,2.155,0,1,1-2.155,2.155A2.155,2.155,0,0,1,29.465,40.31Z" transform="translate(26.565 41.579)" fill="#016d53"/>
  <path id="Path_666" data-name="Path 666" d="M37.465,48.93A6.465,6.465,0,1,0,31,42.465,6.465,6.465,0,0,0,37.465,48.93Zm0-8.62a2.155,2.155,0,1,1-2.155,2.155A2.155,2.155,0,0,1,37.465,40.31Z" transform="translate(35.804 41.579)" fill="#016d53"/>
  <path id="Path_667" data-name="Path 667" d="M45.465,48.93A6.465,6.465,0,1,0,39,42.465,6.465,6.465,0,0,0,45.465,48.93Zm0-8.62a2.155,2.155,0,1,1-2.155,2.155A2.155,2.155,0,0,1,45.465,40.31Z" transform="translate(45.044 41.579)" fill="#016d53"/>
  <path id="Path_668" data-name="Path 668" d="M53.465,48.93A6.465,6.465,0,1,0,47,42.465a6.465,6.465,0,0,0,6.465,6.465Zm0-8.62a2.155,2.155,0,1,1-2.155,2.155A2.155,2.155,0,0,1,53.465,40.31Z" transform="translate(54.284 41.579)" fill="#016d53"/>
  <path id="Path_669" data-name="Path 669" d="M23.155,52.31h34.48a2.155,2.155,0,0,0,0-4.31H23.155a2.155,2.155,0,1,0,0,4.31Z" transform="translate(24.255 55.439)" fill="#016d53"/>
  <path id="Path_670" data-name="Path 670" d="M33.464,28.775a2.155,2.155,0,1,1,1.868-3.232,2.155,2.155,0,0,0,3.73-2.155,6.45,6.45,0,0,0-3.444-2.8v-.431a2.155,2.155,0,0,0-4.31,0v.4a6.45,6.45,0,0,0,2.155,12.533A2.155,2.155,0,1,1,31.6,36.317a2.155,2.155,0,0,0-3.73,2.155,6.45,6.45,0,0,0,3.448,2.8V41.7a2.155,2.155,0,0,0,4.31,0v-.4a6.45,6.45,0,0,0-2.159-12.533Z" transform="translate(31.186 20.79)" fill="#016d53"/>
  <path id="Path_671" data-name="Path 671" d="M31.155,12.62a2.155,2.155,0,0,0,2.155-2.155V6.155a2.155,2.155,0,1,0-4.31,0v4.31A2.155,2.155,0,0,0,31.155,12.62Z" transform="translate(33.494 4.62)" fill="#016d53"/>
  <path id="Path_672" data-name="Path 672" d="M127.144,8.62a2.155,2.155,0,1,0,0-4.31H75.028A6.465,6.465,0,0,0,68.959,0h-8.62a6.465,6.465,0,0,0-6.068,4.31H2.155a2.155,2.155,0,1,0,0,4.31h51.72v9.555l-6.592,3.954A8.661,8.661,0,0,0,43.1,29.523v22.2a21.507,21.507,0,0,0,8.676,17.24H15.085a15.085,15.085,0,0,0,0,30.17h17.24v12.93H23.7a6.465,6.465,0,0,0-6.465,6.465v6.465a4.31,4.31,0,0,0,4.31,4.31h86.2a4.31,4.31,0,0,0,4.31-4.31v-6.465a6.465,6.465,0,0,0-6.465-6.465h-8.62V99.129h17.24a15.085,15.085,0,0,0,0-30.17H77.523A21.507,21.507,0,0,0,86.2,51.72v-22.2a8.661,8.661,0,0,0-4.183-7.389l-6.592-3.959V8.62Zm-66.8-4.31h8.62a2.155,2.155,0,0,1,2.155,2.155v12.93a2.155,2.155,0,0,1-2.155,2.155h-8.62a2.155,2.155,0,0,1-2.155-2.155V6.465A2.155,2.155,0,0,1,60.339,4.31Zm47.41,114.214v6.465H21.55v-6.465a2.155,2.155,0,0,1,2.155-2.155h81.889A2.155,2.155,0,0,1,107.749,118.524Zm-15.085-6.465H36.635V99.129H92.664Zm21.55-38.79a10.775,10.775,0,0,1,0,21.55H15.085a10.775,10.775,0,1,1,0-21.55Zm-49.565-4.31a17.24,17.24,0,1,1,17.24-17.24,17.24,17.24,0,0,1-17.24,17.24Zm17.24-39.436V38.85a21.466,21.466,0,0,0-34.48,0V29.523a4.334,4.334,0,0,1,2.092-3.7l5.286-3.17a6.441,6.441,0,0,0,5.551,3.2h8.62a6.441,6.441,0,0,0,5.551-3.207l5.286,3.17a4.334,4.334,0,0,1,2.092,3.7Z" fill="#016d53"/>
</svg>
