<svg xmlns="http://www.w3.org/2000/svg" width="100.447" height="125.559" viewBox="0 0 100.447 125.559">
  <g id="business-report" transform="translate(-6)">
    <path id="Path_652" data-name="Path 652" d="M95.984,125.559A10.476,10.476,0,0,0,106.447,115.1V18.834A10.476,10.476,0,0,0,95.984,8.371h-29.3A8.371,8.371,0,0,0,58.316,0H54.131A8.371,8.371,0,0,0,45.76,8.371h-29.3A10.476,10.476,0,0,0,6,18.834V115.1a10.476,10.476,0,0,0,10.463,10.463Zm-50.224-113a4.185,4.185,0,0,0,4.185-4.185,4.185,4.185,0,0,1,4.185-4.185h4.185A4.185,4.185,0,0,1,62.5,8.371a4.185,4.185,0,0,0,4.185,4.185H68.78a2.105,2.105,0,0,1,1.6.747,2.076,2.076,0,0,1,.462,1.714,2.3,2.3,0,0,1-2.3,1.724H45.415c-3,0-3.421-.816-3.587-1.124a1.973,1.973,0,0,1,.044-2,2.128,2.128,0,0,1,1.8-1.059ZM93.891,94.169H83.428a8.371,8.371,0,0,0-8.371,8.371V113h-56.5V20.927H43.668v-.088a16.52,16.52,0,0,0,1.747.088H68.531c.084,0,.165-.019.249-.021v.021H93.891Zm-.136,4.185a10.438,10.438,0,0,1-3.52,6.355L83.5,110.492a10.44,10.44,0,0,1-4.259,2.155V102.54a4.185,4.185,0,0,1,4.185-4.185ZM10.185,115.1V18.834a6.278,6.278,0,0,1,6.278-6.278H37.808a6.1,6.1,0,0,0,0,4.185H18.556a4.185,4.185,0,0,0-4.185,4.185V113a4.185,4.185,0,0,0,4.185,4.185H76.69a14.676,14.676,0,0,0,9.536-3.528l6.734-5.772a14.649,14.649,0,0,0,5.117-11.125V20.927a4.185,4.185,0,0,0-4.185-4.185h-19.2a5.882,5.882,0,0,0,.278-1.03,6.253,6.253,0,0,0-.31-3.156H95.984a6.278,6.278,0,0,1,6.278,6.278V115.1a6.278,6.278,0,0,1-6.278,6.278H16.463A6.278,6.278,0,0,1,10.185,115.1Z" transform="translate(0)" fill="#016d53"/>
    <path id="Path_653" data-name="Path 653" d="M28,32.834A18.834,18.834,0,1,0,46.834,14,18.834,18.834,0,0,0,28,32.834ZM46.834,47.482a14.55,14.55,0,0,1-8.755-2.929L47.7,34.927H61.315A14.661,14.661,0,0,1,46.834,47.482ZM61.315,30.741H48.927V18.353A14.649,14.649,0,0,1,61.315,30.741ZM44.741,18.353V31.968l-9.626,9.626a14.6,14.6,0,0,1,9.626-23.241Z" transform="translate(24.038 15.297)" fill="#016d53"/>
    <path id="Path_654" data-name="Path 654" d="M27.561,51.551a10.463,10.463,0,0,0,0-20.508V18.663a6.278,6.278,0,0,1,4.185,5.893,2.093,2.093,0,1,0,4.185,0A10.482,10.482,0,0,0,27.561,14.3v-.209a2.093,2.093,0,0,0-4.185,0V14.3a10.463,10.463,0,0,0,0,20.508V47.192a6.278,6.278,0,0,1-4.185-5.9,2.093,2.093,0,0,0-4.185,0,10.482,10.482,0,0,0,8.371,10.254v.209a2.093,2.093,0,0,0,4.185,0ZM31.747,41.3a6.278,6.278,0,0,1-4.185,5.893V35.4A6.278,6.278,0,0,1,31.747,41.3ZM19.191,24.556a6.278,6.278,0,0,1,4.185-5.893V30.449A6.278,6.278,0,0,1,19.191,24.556Z" transform="translate(9.828 13.112)" fill="#016d53"/>
    <path id="Path_655" data-name="Path 655" d="M20.185,34H18.093a2.093,2.093,0,1,0,0,4.185h2.093a2.093,2.093,0,0,0,0-4.185Z" transform="translate(10.927 37.15)" fill="#016d53"/>
    <path id="Path_656" data-name="Path 656" d="M67.038,34H23.093a2.093,2.093,0,1,0,0,4.185H67.038a2.093,2.093,0,0,0,0-4.185Z" transform="translate(16.39 37.15)" fill="#016d53"/>
    <path id="Path_657" data-name="Path 657" d="M20.185,38H18.093a2.093,2.093,0,1,0,0,4.185h2.093a2.093,2.093,0,0,0,0-4.185Z" transform="translate(10.927 41.521)" fill="#016d53"/>
    <path id="Path_658" data-name="Path 658" d="M67.038,38H23.093a2.093,2.093,0,1,0,0,4.185H67.038a2.093,2.093,0,0,0,0-4.185Z" transform="translate(16.39 41.521)" fill="#016d53"/>
    <path id="Path_659" data-name="Path 659" d="M20.185,42H18.093a2.093,2.093,0,1,0,0,4.185h2.093a2.093,2.093,0,0,0,0-4.185Z" transform="translate(10.927 45.891)" fill="#016d53"/>
    <path id="Path_660" data-name="Path 660" d="M67.038,42H23.093a2.093,2.093,0,1,0,0,4.185H67.038a2.093,2.093,0,0,0,0-4.185Z" transform="translate(16.39 45.891)" fill="#016d53"/>
    <path id="Path_661" data-name="Path 661" d="M20.185,46H18.093a2.093,2.093,0,1,0,0,4.185h2.093a2.093,2.093,0,0,0,0-4.185Z" transform="translate(10.927 50.262)" fill="#016d53"/>
    <path id="Path_662" data-name="Path 662" d="M52.39,46h-29.3a2.093,2.093,0,1,0,0,4.185h29.3a2.093,2.093,0,0,0,0-4.185Z" transform="translate(16.39 50.262)" fill="#016d53"/>
  </g>
</svg>
