<svg xmlns="http://www.w3.org/2000/svg" width="104.89" height="121.798" viewBox="0 0 104.89 121.798">
  <g id="fireworks" transform="translate(-0.5)">
    <path id="Path_166" data-name="Path 166" d="M96.289,477.865a1.759,1.759,0,0,1-1.261-2.984l2.186-2.252a1.759,1.759,0,0,1,2.524,2.449l-2.187,2.252A1.751,1.751,0,0,1,96.289,477.865Zm0,0" transform="translate(-71.661 -359.791)" fill="#016d53"/>
    <path id="Path_167" data-name="Path 167" d="M196.017,114.779a1.759,1.759,0,0,1-1.261-2.983l2.187-2.252a1.758,1.758,0,1,1,2.523,2.449l-2.187,2.252A1.753,1.753,0,0,1,196.017,114.779Zm0,0" transform="translate(-147.667 -83.078)" fill="#016d53"/>
    <path id="Path_168" data-name="Path 168" d="M408.171,81.911a1.758,1.758,0,0,1-1.262-2.983l2.187-2.252a1.759,1.759,0,0,1,2.524,2.449l-2.186,2.252a1.754,1.754,0,0,1-1.262.533Zm0,0" transform="translate(-309.351 -58.029)" fill="#5c73bc"/>
    <path id="Path_169" data-name="Path 169" d="M408.171,445.291a1.758,1.758,0,0,1-1.262-2.983l2.187-2.252a1.759,1.759,0,1,1,2.524,2.449l-2.186,2.252a1.753,1.753,0,0,1-1.262.533Zm0,0" transform="translate(-309.351 -334.966)" fill="#ffa200"/>
    <path id="Path_170" data-name="Path 170" d="M57.439,94.43a1.758,1.758,0,0,1-1.261-2.983l2.187-2.252a1.758,1.758,0,0,1,2.523,2.449L58.7,93.9a1.753,1.753,0,0,1-1.262.533Zm0,0" transform="translate(-42.055 -67.57)" fill="#ffa200"/>
    <path id="Path_171" data-name="Path 171" d="M6.678,260.341a1.758,1.758,0,0,1-1.261-2.983L7.6,255.106a1.759,1.759,0,1,1,2.524,2.449L7.94,259.808a1.752,1.752,0,0,1-1.262.533Zm0,0" transform="translate(-3.368 -194.013)" fill="#2dc471"/>
    <path id="Path_172" data-name="Path 172" d="M173.5,198.784l-5.708,3.092a2.031,2.031,0,0,1-2.928-2.192l1.09-6.547a2.116,2.116,0,0,0-.58-1.84l-4.618-4.638a2.1,2.1,0,0,1,1.119-3.546l6.381-.955a2.021,2.021,0,0,0,1.519-1.137l2.855-5.957a1.993,1.993,0,0,1,3.619,0l2.854,5.957a2.024,2.024,0,0,0,1.519,1.137l6.382.955a2.1,2.1,0,0,1,1.118,3.546l-4.617,4.638a2.117,2.117,0,0,0-.581,1.84l1.09,6.547a2.031,2.031,0,0,1-2.927,2.192l-5.708-3.092a1.964,1.964,0,0,0-1.878,0Zm0,0" transform="translate(-121.669 -132.535)" fill="#ffd02f"/>
    <path id="Path_173" data-name="Path 173" d="M214.606,412.636a1.758,1.758,0,0,1-1.758-1.758v-27.5a1.758,1.758,0,1,1,3.516,0v27.5A1.758,1.758,0,0,1,214.606,412.636Zm0,0" transform="translate(-161.833 -290.839)" fill="#5c73bc"/>
    <path id="Path_174" data-name="Path 174" d="M214.575,346.154h-.027a1.759,1.759,0,1,1,0-3.517h.027a1.759,1.759,0,0,1,0,3.517Zm0,0" transform="translate(-161.788 -261.128)" fill="#5c73bc"/>
    <path id="Path_175" data-name="Path 175" d="M214.575,320.731h-.035a1.758,1.758,0,0,1,.007-3.516h.035a1.758,1.758,0,0,1-.007,3.516Zm0,0" transform="translate(-161.788 -241.754)" fill="#ffa200"/>
    <path id="Path_176" data-name="Path 176" d="M21.133,157.337a1.753,1.753,0,0,1-1.262-.533L1,137.36A1.758,1.758,0,1,1,3.52,134.91L22.4,154.354a1.759,1.759,0,0,1-1.262,2.983Zm0,0" transform="translate(0 -102.411)" fill="#016d53"/>
    <path id="Path_177" data-name="Path 177" d="M108.319,247.174a1.759,1.759,0,0,1-1.258-2.988l.02-.02a1.758,1.758,0,1,1,2.515,2.458l-.019.02a1.756,1.756,0,0,1-1.258.53Zm0,0" transform="translate(-80.83 -185.679)" fill="#ffa200"/>
    <path id="Path_178" data-name="Path 178" d="M125.771,265.15a1.758,1.758,0,0,1-1.261-2.983l.019-.02a1.759,1.759,0,0,1,2.524,2.45l-.02.02A1.753,1.753,0,0,1,125.771,265.15Zm0,0" transform="translate(-94.131 -199.379)" fill="#5c73bc"/>
    <path id="Path_179" data-name="Path 179" d="M347.611,154.431a1.758,1.758,0,0,1-1.261-2.983L365.224,132a1.759,1.759,0,1,1,2.524,2.449L348.873,153.9a1.753,1.753,0,0,1-1.262.533Zm0,0" transform="translate(-263.199 -100.196)" fill="#ffa200"/>
    <path id="Path_180" data-name="Path 180" d="M320.828,244.272a1.75,1.75,0,0,1-1.254-.526l-.02-.02a1.758,1.758,0,1,1,2.508-2.465l.02.02a1.759,1.759,0,0,1-1.254,2.991Zm0,0" transform="translate(-242.772 -183.468)" fill="#016d53"/>
    <path id="Path_181" data-name="Path 181" d="M303.379,262.249a1.753,1.753,0,0,1-1.262-.533l-.02-.02a1.759,1.759,0,0,1,2.524-2.45l.019.02a1.759,1.759,0,0,1-1.262,2.984Zm0,0" transform="translate(-229.473 -197.168)" fill="#ffa200"/>
    <path id="Path_182" data-name="Path 182" d="M295.025,29.479a1.759,1.759,0,0,1-1.525-2.63L307.027,3.144a1.758,1.758,0,0,1,3.054,1.743L296.555,28.593a1.759,1.759,0,0,1-1.53.886Zm0,0" transform="translate(-223.123 -1.72)" fill="#62d38f"/>
    <path id="Path_183" data-name="Path 183" d="M275.82,139.017a1.752,1.752,0,0,1-.9-.249l-.023-.014a1.759,1.759,0,0,1,1.806-3.018l.023.014a1.758,1.758,0,0,1-.9,3.267Zm0,0" transform="translate(-208.468 -103.256)" fill="#ffa200"/>
    <path id="Path_184" data-name="Path 184" d="M263.313,160.934a1.75,1.75,0,0,1-.906-.253l-.023-.014a1.758,1.758,0,1,1,1.816-3.012l.023.014a1.759,1.759,0,0,1-.91,3.264Zm0,0" transform="translate(-198.937 -119.959)" fill="#2dc471"/>
    <path id="Path_185" data-name="Path 185" d="M90.987,29.479a1.758,1.758,0,0,1-1.53-.887L75.93,4.886a1.758,1.758,0,0,1,3.054-1.743l13.527,23.7a1.759,1.759,0,0,1-1.525,2.631Zm0,0" transform="translate(-57.31 -1.719)" fill="#5c73bc"/>
    <path id="Path_186" data-name="Path 186" d="M153.454,139.017a1.758,1.758,0,0,1-.908-3.265l.024-.014a1.758,1.758,0,0,1,1.811,3.014l-.023.014A1.752,1.752,0,0,1,153.454,139.017Zm0,0" transform="translate(-115.227 -103.256)" fill="#ff4e61"/>
    <path id="Path_187" data-name="Path 187" d="M165.962,160.934a1.759,1.759,0,0,1-.913-3.263l.023-.014a1.759,1.759,0,1,1,1.823,3.008l-.023.014a1.749,1.749,0,0,1-.91.255Zm0,0" transform="translate(-124.759 -119.959)" fill="#ffa200"/>
    <path id="Path_188" data-name="Path 188" d="M367.855,301.106l-3.693,2.76a1.427,1.427,0,0,1-2.266-1.228l.12-4.7a1.488,1.488,0,0,0-.587-1.228l-3.689-2.764a1.489,1.489,0,0,1,.434-2.6l4.375-1.334a1.449,1.449,0,0,0,.952-.955l1.412-4.469a1.411,1.411,0,0,1,2.534-.378l2.584,3.874a1.417,1.417,0,0,0,1.175.637l4.563,0a1.475,1.475,0,0,1,1.132,2.367l-2.777,3.728a1.507,1.507,0,0,0-.226,1.349l1.408,4.472a1.449,1.449,0,0,1-1.835,1.84l-4.3-1.569a1.393,1.393,0,0,0-1.315.2Zm0,0" transform="translate(-271.809 -216.114)" fill="#ffd02f"/>
    <path id="Path_189" data-name="Path 189" d="M255.875,388.564a1.758,1.758,0,0,1-1.758-1.758c0-13.614,5.431-22.818,9.987-28.143a36.576,36.576,0,0,1,10.107-8.438,1.759,1.759,0,0,1,1.592,3.136,33.815,33.815,0,0,0-9.127,7.706c-6,7.07-9.043,15.729-9.043,25.738a1.758,1.758,0,0,1-1.758,1.758Zm0,0" transform="translate(-193.285 -266.766)" fill="#016d53"/>
    <path id="Path_190" data-name="Path 190" d="M79.541,344.672l2.8,3.712a1.413,1.413,0,0,0,2.509-.53l1.157-4.547a1.456,1.456,0,0,1,.9-1.01l4.291-1.6a1.489,1.489,0,0,0,.287-2.62l-3.84-2.539a1.486,1.486,0,0,1-.656-1.19l-.147-4.7a1.423,1.423,0,0,0-2.331-1.091l-3.53,2.977a1.4,1.4,0,0,1-1.3.275l-4.382-1.308a1.453,1.453,0,0,0-1.727,1.947l1.658,4.38a1.508,1.508,0,0,1-.149,1.36l-2.562,3.889a1.471,1.471,0,0,0,1.264,2.294l4.554-.271a1.411,1.411,0,0,1,1.21.566Zm0,0" transform="translate(-54.692 -250.147)" fill="#ffd02f"/>
    <path id="Path_191" data-name="Path 191" d="M157.574,435.747a1.758,1.758,0,0,1-1.758-1.758,40.151,40.151,0,0,0-4.722-19.443,1.759,1.759,0,0,1,3.089-1.683,43.641,43.641,0,0,1,5.15,21.126,1.758,1.758,0,0,1-1.758,1.758Zm0,0" transform="translate(-114.606 -313.95)" fill="#fa0"/>
    <path id="Path_192" data-name="Path 192" d="M238.692,40.326a4.721,4.721,0,1,0-4.719,4.862A4.792,4.792,0,0,0,238.692,40.326Zm0,0" transform="translate(-174.337 -27.028)" fill="#ffd02f"/>
    <path id="Path_193" data-name="Path 193" d="M342.847,431.24a4.72,4.72,0,1,0-4.718,4.861A4.791,4.791,0,0,0,342.847,431.24Zm0,0" transform="translate(-253.715 -324.95)" fill="#5c73bc"/>
    <path id="Path_194" data-name="Path 194" d="M19.881,438.366a3.786,3.786,0,1,0-3.785,3.9A3.842,3.842,0,0,0,19.881,438.366Zm0,0" transform="translate(-9.002 -331.114)" fill="#62d38f"/>
    <path id="Path_195" data-name="Path 195" d="M63.924,275.863a3.786,3.786,0,1,0-3.785,3.9A3.842,3.842,0,0,0,63.924,275.863Zm0,0" transform="translate(-42.568 -207.269)" fill="#5c73bc"/>
    <g id="Group_290" data-name="Group 290" transform="translate(31.917)">
      <path id="Path_196" data-name="Path 196" d="M186.592,3.9a3.786,3.786,0,1,0-7.569,0,3.786,3.786,0,1,0,7.569,0Zm0,0" transform="translate(-167.972)" fill="#ff4e61"/>
      <path id="Path_197" data-name="Path 197" d="M340.976,140.391a3.786,3.786,0,1,0-3.785,3.9A3.844,3.844,0,0,0,340.976,140.391Zm0,0" transform="translate(-285.629 -104.023)" fill="#ff4e61"/>
      <path id="Path_198" data-name="Path 198" d="M134.323,14.263a1.759,1.759,0,0,1-1.262-2.983l2.186-2.252a1.758,1.758,0,1,1,2.523,2.449l-2.186,2.252A1.755,1.755,0,0,1,134.323,14.263Zm0,0" transform="translate(-132.565 -6.474)" fill="#ff4e61"/>
    </g>
  </g>
</svg>
