<svg xmlns="http://www.w3.org/2000/svg" width="125.575" height="125.559" viewBox="0 0 125.575 125.559">
  <g id="fraud" transform="translate(0.002 -0.024)">
    <path id="Path_647" data-name="Path 647" d="M54.411,108.791a54.1,54.1,0,0,0,30.394-9.3l23.107,23.03a10.323,10.323,0,1,0,13.447-15.582L96.605,88.685a54.382,54.382,0,1,0-42.194,20.106Zm64.47,1.521a6.1,6.1,0,0,1,.7,9.241,6.343,6.343,0,0,1-8.716,0L88.207,96.976a55.384,55.384,0,0,0,5.617-5.135ZM54.411,4.159A50.223,50.223,0,1,1,4.188,54.382,50.223,50.223,0,0,1,54.411,4.159Z" transform="translate(0 0)" fill="#016d53"/>
    <path id="Path_648" data-name="Path 648" d="M12,23.754V55.5A18.848,18.848,0,0,0,21.911,72.1L40.305,82a2.093,2.093,0,0,0,1.984,0l18.4-9.9A18.846,18.846,0,0,0,70.594,55.5V23.754a6.259,6.259,0,0,0-5.663-6.247c-4.8-.475-13.724-2.015-19.633-7.038a6.169,6.169,0,0,0-8,0c-5.908,5.022-14.835,6.563-19.631,7.038A6.259,6.259,0,0,0,12,23.754ZM40,13.663a2.021,2.021,0,0,1,2.589,0c6.776,5.751,16.647,7.487,21.929,8.011a2.093,2.093,0,0,1,1.883,2.08V55.5a14.665,14.665,0,0,1-7.708,12.909L41.3,77.778,23.9,68.415A14.667,14.667,0,0,1,16.185,55.5V23.754a2.093,2.093,0,0,1,1.883-2.08C23.357,21.142,33.228,19.414,40,13.663Z" transform="translate(13.114 9.802)" fill="#016d53"/>
    <path id="Path_649" data-name="Path 649" d="M21.506,59.579h0l13.437,7.232a4.185,4.185,0,0,0,3.963,0l13.426-7.228a10.478,10.478,0,0,0,5.52-9.226v-26.3a4.2,4.2,0,0,0-3.444-4.118,44.205,44.205,0,0,1-15.276-5.6,4.185,4.185,0,0,0-4.43,0,44.2,44.2,0,0,1-15.264,5.6A4.2,4.2,0,0,0,16,24.054v26.3a10.463,10.463,0,0,0,5.506,9.222ZM20.215,24.05A48.564,48.564,0,0,0,36.926,17.9a48.365,48.365,0,0,0,16.741,6.159v26.3A6.3,6.3,0,0,1,50.351,55.9L36.926,63.126,23.492,55.9a6.278,6.278,0,0,1-3.306-5.539Z" transform="translate(17.485 14.949)" fill="#016d53"/>
    <path id="Path_650" data-name="Path 650" d="M29.277,34.649a2.093,2.093,0,1,1-1.814,3.139A2.093,2.093,0,0,0,23.84,39.88a6.263,6.263,0,0,0,3.348,2.72v.419a2.093,2.093,0,1,0,4.185,0v-.385a6.263,6.263,0,0,0-2.1-12.171,2.093,2.093,0,1,1,1.814-3.139,2.093,2.093,0,0,0,3.622-2.093,6.263,6.263,0,0,0-3.344-2.72v-.419a2.093,2.093,0,0,0-4.185,0v.385a6.263,6.263,0,0,0,2.093,12.171Z" transform="translate(25.134 21.826)" fill="#016d53"/>
    <path id="Path_651" data-name="Path 651" d="M50.048,96.076A46.038,46.038,0,1,0,50.048,4a2.093,2.093,0,1,0,0,4.185,41.838,41.838,0,1,1-12.556,1.923,2.093,2.093,0,0,0-1.256-3.993A46.038,46.038,0,0,0,50.048,96.076Z" transform="translate(4.363 4.344)" fill="#016d53"/>
  </g>
</svg>
