<svg xmlns="http://www.w3.org/2000/svg" width="24" height="28.094" viewBox="0 0 24 28.094">
  <g id="_x31_7_Secured" transform="translate(-4 -1.936)">
    <g id="Group_362" data-name="Group 362">
      <path id="Path_675" data-name="Path 675" d="M16,1.936,4,6.3V16C4,26.961,15.644,29.942,15.762,29.972l.238.058.238-.058C16.355,29.942,28,26.961,28,16V6.3ZM26,16c0,8.679-8.409,11.507-10,11.963C14.474,27.51,6,24.6,6,16V7.7L16,4.064,26,7.7Z" fill="#ffa200"/>
      <path id="Path_676" data-name="Path 676" d="M12.4,10.6v2.467H10.667V22H21.333V13.066H19.6V10.6a3.6,3.6,0,0,0-7.2,0ZM19.333,20H12.667V15.066h6.667ZM17.6,10.6v2.467H14.4V10.6a1.6,1.6,0,0,1,3.2,0Z" fill="#ffa200"/>
      <path id="Path_677" data-name="Path 677" d="M16,18.4a.867.867,0,1,0-.867-.867A.867.867,0,0,0,16,18.4Z" fill="#ffa200"/>
    </g>
  </g>
</svg>
