<svg xmlns="http://www.w3.org/2000/svg" width="294.454" height="29.445" viewBox="0 0 294.454 29.445"><defs><style>.a,.b{fill:#e31837;}.a{fill-rule:evenodd;}.c{fill:#012169;}</style></defs><g transform="translate(240.068)"><g transform="translate(31.722 27.045)"><path class="a" d="M202.143,21.305a1.233,1.233,0,1,1,1.238,1.21,1.216,1.216,0,0,1-1.238-1.21m.233,0a1,1,0,1,0,1-.955.98.98,0,0,0-1,.955" transform="translate(-202.143 -20.115)"/><path class="a" d="M203.79,21.852h-.231l-.4-.622h-.24v.622h-.2V20.507h.594a.65.65,0,0,1,.336.067.32.32,0,0,1,.153.285c0,.265-.189.362-.436.37Zm-.642-.786c.2,0,.463.036.463-.21,0-.175-.155-.193-.335-.193h-.352v.4Z" transform="translate(-201.944 -19.979)"/></g><path class="b" d="M199.891,26.949c8.588-7.353,20.654-14.518,27.269-17.082-1.03-.657-2.627-1.6-4.412-2.622-8.532,2.815-18.506,9.088-27.434,16.174C196.834,24.522,198.4,25.734,199.891,26.949Z" transform="translate(-172.774 2.496)"/><path class="c" d="M200.018,7.461c-1.277-.593-2.644-1.186-3.741-1.674a93.989,93.989,0,0,0-12.76,7.813c1.161.611,2.384,1.341,3.7,2.081A89.212,89.212,0,0,1,200.018,7.461Z" transform="translate(-176.839 1.994)"/><path class="b" d="M205.165,5.346A57.744,57.744,0,0,0,194.48,1.639c-1.1.422-2.652,1.018-3.717,1.466a60.484,60.484,0,0,1,10.668,3.882C202.574,6.469,204.089,5.8,205.165,5.346Z" transform="translate(-174.343 0.565)"/><path class="c" d="M191.092,4a115.353,115.353,0,0,0-12.541,6.982c.971.436,1.954.817,3.309,1.482a91.915,91.915,0,0,1,12.68-7.406C193.2,4.61,191.906,4.247,191.092,4Z" transform="translate(-178.55 1.379)"/><path class="b" d="M206.913,4.676C208,4.324,209.3,3.971,210.4,3.663A79.242,79.242,0,0,0,199.613,0c-.558.153-2.273.625-3.492,1A60.385,60.385,0,0,1,206.913,4.676Z" transform="translate(-172.497)"/><path class="b" d="M189.149,18.646c1.3.788,2.71,1.857,4.056,2.743,8.953-6.939,17.782-12.321,27.5-15.356-1.351-.681-2.535-1.293-4.034-2.026C210.835,5.492,200.922,9.47,189.149,18.646Z" transform="translate(-174.898 1.381)"/></g><path class="c" d="M0,24.242H6.541c3.314,0,4.874-1.71,4.874-4.125a3.511,3.511,0,0,0-3.164-3.7,3.157,3.157,0,0,0,2.736-3.292c0-2.138-1.561-3.848-4.874-3.848H0Zm5.686-6.349c1.24,0,2.074.6,2.074,1.86,0,1.326-.834,1.86-2.074,1.86H3.57v-3.72H5.686ZM5.28,11.908c1.24,0,2.073.534,2.073,1.753S6.52,15.414,5.28,15.414H3.57V11.908Zm19.328-2.63h-3.7l-5.6,14.964h3.72l1-3.1h5.409l1,3.1h3.762Zm-1.839,3.57,1.774,5.516H20.952Zm26.123-3.57H45.515v10l-6.37-10H35.339V24.242h3.378V14.259l6.37,9.983h3.805ZM64.581,24.242l-4.917-7.611v7.611H56.03V9.278h3.634v7.2l4.682-7.2h4.062l-4.9,7.183,5.366,7.781h-4.3Zm17.14-7.482c0,2.992,1.8,4.831,4.126,4.831s4.126-1.839,4.126-4.831-1.8-4.831-4.126-4.831-4.126,1.838-4.126,4.831Zm-3.848,0a7.976,7.976,0,0,1,15.947,0,7.976,7.976,0,0,1-15.947,0ZM98.82,24.242h3.634v-5.9h4.724V15.478h-4.724V12.143h5.729l.641-2.864h-10V24.242ZM125.779,9.278h-3.7l-5.6,14.964h3.72l1-3.1h5.409l1,3.1h3.762Zm-1.839,3.57,1.774,5.516h-3.591Zm29.1-3.57h-4.254L144.9,17.359l-3.869-8.081h-4.254V24.242h3.271v-10l4.81,10,4.81-10v10h3.378Zm7.055,14.964h10.218V21.378h-6.584V18.043h5.195V15.264h-5.195V12.143h6.028l.641-2.864h-10.3Zm24.092,0h3.955L184.4,17.893a3.856,3.856,0,0,0,3.014-4.1c0-2.715-1.625-4.511-5.3-4.511h-5.75V24.242h3.57v-5.9h.962Zm-2.715-12.206c1.5,0,2.288.663,2.288,1.9,0,1.283-.791,1.924-2.288,1.924h-1.539V12.036Zm12.121,12.206h3.634V9.278h-3.634Zm21.57-4.019a6.6,6.6,0,0,1-3.869,1.3,4.5,4.5,0,0,1-4.724-4.767,4.479,4.479,0,0,1,4.639-4.767,6.235,6.235,0,0,1,3.784,1.3V9.92a8.614,8.614,0,0,0-4.254-.962c-4.959,0-8.059,3.42-8.081,7.8.022,4.425,3.078,7.8,8.1,7.8a9.152,9.152,0,0,0,4.4-.962ZM228.48,9.278h-3.7l-5.6,14.964h3.72l1-3.1h5.408l1,3.1h3.762Zm-1.838,3.57,1.774,5.516h-3.591Z" transform="translate(0 3.086)"/></svg>