<svg xmlns="http://www.w3.org/2000/svg" width="38" height="47" viewBox="0 0 38 47">
    <path
        d="M29.584,26.33 L29.584,15.917 C29.584,12.597 26.602,7.954 25.32,6.112 C24.328296,4.66692344 23.2249213,3.30174805 22.02,2.029 C20.656,0.626 19.658,0 18.785,0 C17.912,0 16.914,0.626 15.549,2.029 C14.3440262,3.30170213 13.2406481,4.66688176 12.249,6.112 C10.967,7.954 7.985,12.6 7.985,15.917 L7.985,26.33 C3.55086459,26.4272408 0.00545304051,30.0468018 7.10542736e-15,34.482 L7.10542736e-15,44.9 C7.10542736e-15,45.6483458 0.606654164,46.255 1.355,46.255 L2.455,46.255 C5.38459638,46.2572709 8.21102881,45.1734429 10.388,43.213 L11.544,45.513 C11.7740544,45.9702498 12.2421383,46.259 12.754,46.259 L24.814,46.259 C25.3258617,46.259 25.7939456,45.9702498 26.024,45.513 L27.181,43.213 C29.3580217,45.1733605 32.1844212,46.2571758 35.114,46.255 L36.214,46.255 C36.5735416,46.2552653 36.9184481,46.112624 37.1727762,45.8584834 C37.4271043,45.6043429 37.57,45.2595417 37.57,44.9 L37.57,34.482 C37.5650776,30.0465849 34.0193633,26.4267147 29.585,26.33 L29.584,26.33 Z M10.695,17.272 L26.874,17.272 L26.874,36.762 L10.695,36.762 L10.695,17.272 Z M14.195,8.058 C15.4322371,6.06432763 16.9820208,4.28258288 18.785,2.781 C20.5858787,4.2830203 22.1336194,6.06474544 23.369,8.058 C24.7941482,10.0427336 25.9051676,12.2350913 26.663,14.558 L10.906,14.558 C11.6638324,12.2350913 12.7748518,10.0427336 14.2,8.058 L14.195,8.058 Z M2.71,43.54 L2.71,34.482 C2.71335582,31.5427546 5.04725152,29.1358555 7.985,29.042 L7.985,38.116 C7.98494035,38.3278776 8.03460516,38.5368124 8.13,38.726 L9.113,40.678 C7.44306701,42.4439485 5.13957522,43.4735586 2.71,43.54 L2.71,43.54 Z M23.979,43.54 L13.591,43.54 L11.54,39.468 L26.03,39.468 L23.979,43.54 Z M34.86,43.54 C32.4312784,43.4727263 30.1289076,42.4427751 28.46,40.677 L29.443,38.726 C29.5383948,38.5368124 29.5880596,38.3278776 29.588,38.116 L29.588,29.042 C32.5257485,29.1358555 34.8596442,31.5427546 34.863,34.482 L34.863,43.54 L34.86,43.54 Z" />
    <path
        d="M20.205,25.686 C19.4038247,25.4434005 18.6399548,25.0914146 17.935,24.64 C17.8726718,24.5226911 17.8579862,24.3858639 17.894,24.258 C17.930602,24.003302 18.1025089,23.7885141 18.343,23.697 C18.8136642,23.5310006 19.3356132,23.6037006 19.743,23.892 C20.3425051,24.340179 21.1918208,24.217505 21.6399999,23.6179999 C22.0881789,23.0184949 21.965505,22.1691791 21.366,21.721 C20.9950149,21.4505932 20.5822068,21.2428379 20.144,21.106 L20.144,20.995 C20.144,20.2466542 19.5373458,19.64 18.789,19.64 C18.0406542,19.64 17.434,20.2466542 17.434,20.995 L17.434,21.147 C16.2859749,21.5588147 15.4464797,22.5539981 15.234,23.755 C14.9872719,24.8741989 15.3853462,26.0375631 16.266,26.771 C17.1974539,27.413748 18.2225164,27.9089082 19.305,28.239 C19.5275377,28.2883279 19.7210756,28.4246708 19.8424399,28.6176137 C19.9638042,28.8105567 20.0028979,29.0440476 19.951,29.266 C19.8587943,29.8733433 19.3332633,30.3199594 18.719,30.313 C18.1077675,30.3987948 17.4874517,30.2387713 16.994,29.868 C16.3677091,29.4582047 15.5277953,29.6337091 15.118,30.26 C14.7082047,30.8862909 14.8837091,31.7262047 15.51,32.136 C16.0838711,32.5426437 16.7399549,32.8184583 17.432,32.944 L17.432,33.037 C17.432,33.7853458 18.0386542,34.392 18.787,34.392 C19.5353458,34.392 20.142,33.7853458 20.142,33.037 L20.142,32.758 C21.4489947,32.2544157 22.3925061,31.0975589 22.623,29.716 C22.9441945,27.955912 21.9091692,26.2308698 20.205,25.686 L20.205,25.686 Z" />
</svg>