<svg xmlns="http://www.w3.org/2000/svg" width="47" height="47" viewBox="0 0 47 47">
    <path
        d="M25.016,21.858 C24.1209168,21.5867662 23.2677861,21.1926771 22.481,20.687 C22.3712843,20.5319318 22.3388432,20.3350735 22.393,20.153 C22.4422186,19.8299269 22.6626982,19.5589207 22.969,19.445 C23.5218434,19.2529351 24.133413,19.3397169 24.611,19.678 C25.2201701,20.1333588 26.0831412,20.0086701 26.5385,19.3995 C26.9938588,18.7903299 26.8691701,17.9273588 26.26,17.472 C25.8194777,17.1532321 25.3253063,16.9161382 24.801,16.772 L24.801,16.582 C24.801,15.8215039 24.1844961,15.205 23.424,15.205 C22.6635039,15.205 22.047,15.8215039 22.047,16.582 L22.047,16.855 C20.8148057,17.2919953 19.9131495,18.3583183 19.687,19.646 C19.4229243,20.8366749 19.8449041,22.0752282 20.781,22.857 C21.7980195,23.5573722 22.9167857,24.0970243 24.098,24.457 C24.6633373,24.5883972 25.0160577,25.152124 24.887,25.718 C24.7720654,26.4409947 24.1470665,26.9721589 23.415,26.969 C22.7181616,27.0630925 22.0122271,26.879966 21.449,26.459 C20.8162185,26.0896126 20.0049928,26.2804421 19.6032445,26.8931882 C19.2014962,27.5059342 19.3499427,28.3259749 19.941,28.759 C20.5676478,29.2067444 21.2871341,29.5075273 22.046,29.639 L22.046,29.849 C22.0460001,30.609496 22.662504,31.2259998 23.423,31.2259998 C24.183496,31.2259998 24.7999999,30.609496 24.8,29.849 L24.8,29.49 C26.2646992,28.9706154 27.3351801,27.7013309 27.6,26.17 C27.9435948,24.2877334 26.8378781,22.4425899 25.016,21.858 L25.016,21.858 Z" />
    <path
        d="M45.623,17.707 L42.568,17.707 C42.1792061,16.4695902 41.6666127,15.2745439 41.038,14.14 L43.954,11.24 C44.2127359,10.9816965 44.3581286,10.6311022 44.3581286,10.2655 C44.3581286,9.89989782 44.2127359,9.54930349 43.954,9.291 L37.728,3.05 C37.1905205,2.51382751 36.3204795,2.51382751 35.783,3.05 L32.711,6.1 C31.6127992,5.5372757 30.4649116,5.0773172 29.282,4.726 L29.282,1.377 C29.282,0.616503899 28.6654961,0 27.905,0 L19.094,0 C18.3335039,0 17.717,0.616503899 17.717,1.377 L17.717,4.723 C16.5343266,5.07534036 15.3867732,5.53630333 14.289,6.1 L11.217,3.045 C10.6795205,2.50882751 9.8094795,2.50882751 9.272,3.045 L3.041,9.294 C2.78226411,9.55230349 2.63687139,9.90289782 2.63687139,10.2685 C2.63687139,10.6341022 2.78226411,10.9846965 3.041,11.243 L5.957,14.143 C5.32838734,15.2775439 4.81579386,16.4725902 4.427,17.71 L1.377,17.71 C0.617673933,17.7099982 0.00165430515,18.3246757 0,19.084 L0,27.915 C0,28.6754961 0.616503899,29.292 1.377,29.292 L4.432,29.292 C4.82076833,30.5294192 5.33336289,31.7244681 5.962,32.859 L3.046,35.759 C2.78726411,36.0173035 2.64187139,36.3678978 2.64187139,36.7335 C2.64187139,37.0991022 2.78726411,37.4496965 3.046,37.708 L9.276,43.953 C9.8134795,44.4891725 10.6835205,44.4891725 11.221,43.953 L14.289,40.9 C15.3872055,41.4627139 16.5350922,41.922672 17.718,42.274 L17.718,45.62 C17.7172035,45.9855494 17.8617909,46.3364142 18.1198985,46.5952722 C18.3780062,46.8541301 18.7284498,47 19.094,47 L27.905,47 C28.6654961,47 29.282,46.3834961 29.282,45.623 L29.282,42.277 C30.4650136,41.9247122 31.6129037,41.4637485 32.711,40.9 L35.783,43.952 C36.3204795,44.4881725 37.1905205,44.4881725 37.728,43.952 L43.958,37.707 C44.2167359,37.4486965 44.3621286,37.0981022 44.3621286,36.7325 C44.3621286,36.3668978 44.2167359,36.0163035 43.958,35.758 L41.042,32.858 C41.6706188,31.7234591 42.1832125,30.5284121 42.572,29.291 L45.627,29.291 C46.3851536,29.2887985 46.998902,28.674156 47,27.916 L47,19.084 C47,18.3235039 46.3834961,17.707 45.623,17.707 Z M44.246,26.538 L41.528,26.538 C40.8976401,26.5379417 40.3477289,26.965925 40.193,27.577 C39.7650096,29.2648304 39.0735154,30.8746046 38.144,32.347 C37.8003614,32.8926392 37.8813973,33.603677 38.339,34.058 L41.039,36.737 L36.754,41.037 L33.928,38.229 C33.4859952,37.7894951 32.8038758,37.7017178 32.265,38.015 C30.806346,38.8632839 29.2312901,39.4933063 27.59,39.885 C26.9703273,40.0330587 26.5331396,40.5868849 26.533,41.224 L26.533,44.25 L20.471,44.25 L20.471,41.22 C20.4708604,40.5828849 20.0336727,40.0290587 19.414,39.881 C17.7727143,39.4892926 16.1976603,38.859271 14.739,38.011 C14.2001242,37.6977178 13.5180048,37.7854951 13.076,38.225 L10.25,41.033 L5.965,36.738 L8.665,34.059 C9.12260273,33.604677 9.2036386,32.8936392 8.86,32.348 C7.93051418,30.875589 7.23902207,29.2658197 6.811,27.578 C6.65627113,26.966925 6.10635993,26.5389417 5.476,26.539 L2.754,26.539 L2.754,20.461 L5.472,20.461 C6.10235993,20.4610583 6.65227113,20.033075 6.807,19.422 C7.23495867,17.7341588 7.92645493,16.1243798 8.856,14.652 C9.1996386,14.1063608 9.11860273,13.395323 8.661,12.941 L5.961,10.262 L10.246,5.967 L13.072,8.775 C13.5140048,9.21450495 14.1961242,9.30228219 14.735,8.989 C16.1936603,8.14072902 17.7687143,7.51070745 19.41,7.119 C20.0296727,6.97094131 20.4668604,6.41711508 20.467,5.78 L20.467,2.754 L26.524,2.754 L26.524,5.78 C26.5241396,6.41711508 26.9613273,6.97094131 27.581,7.119 C29.2222857,7.51070745 30.7973397,8.14072902 32.256,8.989 C32.7948758,9.30228219 33.4769952,9.21450495 33.919,8.775 L36.745,5.967 L41.03,10.262 L38.33,12.941 C37.8723973,13.395323 37.7913614,14.1063608 38.135,14.652 C39.0645006,16.1244032 39.7559938,17.734175 40.184,19.422 C40.3387289,20.033075 40.8886401,20.4610583 41.519,20.461 L44.237,20.461 L44.246,26.538 Z" />
    <path
        d="M23.58,10.115 C18.0963881,10.0716451 13.1285921,13.3415765 11.0000887,18.3954218 C8.87158533,23.4492671 10.0031197,29.2880236 13.8654643,33.1808597 C17.727809,37.0736958 23.5574873,38.2511075 28.6279136,36.1624102 C33.6983399,34.073713 37.0070417,29.1317833 37.0070417,23.648 C37.0252961,16.2077018 31.020212,10.1552103 23.58,10.115 L23.58,10.115 Z M23.58,34.428 C19.2104214,34.4713736 15.2469221,31.8725896 13.5446169,27.8480083 C11.8423118,23.8234269 12.7380041,19.1693168 15.8124653,16.0640332 C18.8869265,12.9587496 23.5318705,12.0166768 27.5732322,13.6787519 C31.6145939,15.340827 34.2527847,19.2782062 34.2530658,23.648 C34.2735075,29.5677324 29.4996563,34.3876537 23.58,34.424 L23.58,34.428 Z" />
</svg>