<svg xmlns="http://www.w3.org/2000/svg" width="53" height="46" viewBox="0 0 53 46">
    <path
        d="M34.65 0L28.339 0C27.493452 0 26.808.685452048 26.808 1.531L26.808 4.165C21.0776649 4.85187331 15.3132214 5.21578177 9.542 5.255 4.641687 5.25480576.537844066 8.96649241.0475107638 13.8422119-.442822538 18.7179314 2.83977542 23.1724455 7.642 24.148L7.642 43.754C7.642 44.1600464 7.80330132 44.5494623 8.09041952 44.8365805 8.37753771 45.1236987 8.76695355 45.2850029 9.173 45.2850029L18.066 45.2850029C18.472566 45.2857967 18.862753 45.1248471 19.1505203 44.8376425 19.4382877 44.5504379 19.6000008 44.1605668 19.6 43.754L19.6 33.613 19.855 33.613C20.6850361 33.5917814 21.3468752 32.9128072 21.3468752 32.0825 21.3468752 31.2521928 20.6850361 30.5732186 19.855 30.552L19.6 30.552 19.6 24.733C22.181 24.91 24.74 25.144 26.812 25.433L26.812 28.065C26.812 28.910548 27.497452 29.596 28.343 29.596L34.65 29.596C35.495548 29.596 36.181 28.910548 36.181 28.065L36.181 1.531C36.181.685452048 35.495548 0 34.65 0zM16.535 42.224L10.7 42.224 10.7 24.348C12.331 24.371 14.372 24.439 16.532 24.548L16.535 42.224zM9.542 21.278C7.20755667 21.3069993 5.03792514 20.0782046 3.86225186 18.061212 2.68657857 16.0442194 2.68657857 13.5507806 3.86225186 11.533788 5.03792514 9.51679545 7.20755667 8.2880007 9.542 8.317 15.3123347 8.27212238 21.0760454 7.91593801 26.808 7.25L26.808 22.344C21.0764116 21.6740813 15.3124661 21.3182163 9.542 21.278L9.542 21.278zM33.119 26.533L29.869 26.533 29.869 3.065 33.119 3.065 33.119 26.533zM48.646 12.946C47.3116097 12.541332 46.0408133 11.9508745 44.871 11.192 44.5707149 10.8680448 44.4604928 10.4112483 44.58 9.986 44.6793958 9.35512596 45.1179066 8.83014276 45.721 8.62 46.6527964 8.30188638 47.6808173 8.45268263 48.482 9.025 48.9192276 9.36550446 49.5063308 9.44315118 50.017044 9.22801562 50.5277572 9.01288006 50.8823433 8.53855109 50.9441471 7.98783197 51.0059509 7.43711284 50.7653231 6.89598671 50.315 6.573 49.6336573 6.07866617 48.8573754 5.73070124 48.035 5.551L48.035 4.928C48.0137814 4.09796393 47.3348072 3.4361248 46.5045 3.4361248 45.6741928 3.4361248 44.9952186 4.09796393 44.974 4.928L44.974 5.651 44.838 5.689C43.1363959 6.22238713 41.8755238 7.66195035 41.571 9.419 41.2229521 10.9669396 41.7667447 12.5798054 42.981 13.601 44.3997945 14.5883614 45.9676827 15.3419201 47.625 15.833 48.6413812 16.1008293 49.2693571 17.1184316 49.053 18.147 48.8540608 19.4045575 47.7671828 20.3287648 46.494 20.323 45.4027802 20.4587813 44.301124 20.1698516 43.417 19.516 42.9593007 19.2047049 42.3692147 19.1647066 41.8736936 19.4113889 41.3781725 19.6580712 41.0543928 20.1530137 41.0268826 20.7058577 40.9993725 21.2587017 41.2724166 21.7833428 41.741 22.078 42.693372 22.7648388 43.8070086 23.1940349 44.974 23.324L44.974 24.024C44.9952186 24.8540361 45.6741928 25.5158752 46.5045 25.5158752 47.3348072 25.5158752 48.0137814 24.8540361 48.035 24.024L48.035 23.177C48.8812701 22.9446366 49.6594013 22.5125321 50.304 21.917 51.2383246 21.0553302 51.8604716 19.9081038 52.073 18.655 52.5279308 16.1611442 51.060864 13.7171746 48.646 12.946L48.646 12.946z" />
</svg>