<svg xmlns="http://www.w3.org/2000/svg" width="46" height="30" viewBox="0 0 46 30">
    <path
        d="M44.16,0 L1.333,0 C0.596804428,0 0,0.596804428 0,1.333 L0,27.818 C0,28.5541956 0.596804428,29.151 1.333,29.151 L44.16,29.151 C44.8961956,29.151 45.493,28.5541956 45.493,27.818 L45.493,1.333 C45.493,0.596804428 44.8961956,0 44.16,0 Z M2.666,11.242 C7.12730891,10.6347337 10.6357337,7.12630891 11.243,2.665 L34.25,2.665 C34.8572663,7.12630891 38.3656911,10.6347337 42.827,11.242 L42.827,17.905 C38.3656911,18.5122663 34.8572663,22.0206911 34.25,26.482 L11.242,26.482 C10.6347337,22.0206911 7.12630891,18.5122663 2.665,17.905 L2.666,11.242 Z M42.827,8.542 C39.842413,7.98514168 37.5073662,5.65049216 36.95,2.666 L42.827,2.666 L42.827,8.542 Z M8.542,2.666 C7.98477117,5.65019922 5.65019922,7.98477117 2.666,8.542 L2.666,2.666 L8.542,2.666 Z M2.666,20.605 C5.65019922,21.1622288 7.98477117,23.4968008 8.542,26.481 L2.666,26.481 L2.666,20.605 Z M36.951,26.481 C37.5083662,23.4965078 39.843413,21.1618583 42.828,20.605 L42.828,26.481 L36.951,26.481 Z" />
    <path
        d="M24.297,13.255 C23.360313,12.9711299 22.4677356,12.5581614 21.645,12.028 C21.5016579,11.8461711 21.4550895,11.6062506 21.52,11.384 C21.5761851,11.0148196 21.8298078,10.7059448 22.181,10.579 C22.7817826,10.3712005 23.4459527,10.4665609 23.964,10.835 C24.553564,11.2768278 25.3896722,11.1570639 25.8314999,10.5675 C26.2733277,9.97793601 26.1535639,9.14182781 25.564,8.7 C25.0979806,8.36106346 24.5725832,8.11244095 24.015,7.967 L24.015,7.7 C24.015,6.96380443 23.4181956,6.367 22.682,6.367 C21.9458044,6.367 21.349,6.96380443 21.349,7.7 L21.349,8.049 C20.0737405,8.47485417 19.134631,9.56561876 18.903,10.89 C18.6363493,12.0891638 19.0606318,13.33694 20.003,14.125 C21.0484834,14.8440219 22.1982286,15.3981526 23.412,15.768 C24.0385289,15.9222422 24.4279941,16.5476931 24.29,17.178 C24.1641643,17.9720072 23.4779091,18.555494 22.674,18.552 C21.9340513,18.6515552 21.1845988,18.4565611 20.587,18.009 C19.9714548,17.6191599 19.156946,17.7957805 18.7581636,18.4055704 C18.3593812,19.0153604 18.5240952,19.8323602 19.128,20.24 C19.7876285,20.712836 20.5490608,21.024191 21.351,21.149 L21.351,21.449 C21.351,22.1851956 21.9478044,22.782 22.684,22.782 C23.4201956,22.782 24.017,22.1851956 24.017,21.449 L24.017,21.009 C25.5313976,20.4968772 26.6442018,19.1971987 26.917,17.622 C27.2658633,15.7146419 26.1440942,13.8448841 24.297,13.255 Z" />
</svg>