<svg xmlns="http://www.w3.org/2000/svg" width="47" height="48" viewBox="0 0 47 48">
    <path
        d="M44.9,25.216 L43.34,25.216 L38.327,15.644 C38.0450788,7.45277216 31.3230779,0.958145295 23.127,0.958145295 C14.9309221,0.958145295 8.2089212,7.45277216 7.927,15.644 L2.916,25.216 L1.355,25.216 C0.606654164,25.216 0,25.8226542 0,26.571 C0,27.3193458 0.606654164,27.926 1.355,27.926 L2.381,27.926 L2.381,45.9 C2.381,46.6483458 2.98765416,47.2550004 3.736,47.2550004 L42.518,47.2550004 C42.8775416,47.2550004 43.2224481,47.112624 43.4767762,46.8584834 C43.7311043,46.6043429 43.8740001,46.2595417 43.874,45.9 L43.874,27.926 L44.9,27.926 C45.6483458,27.926 46.255,27.3193458 46.255,26.571 C46.255,25.8226542 45.6483458,25.216 44.9,25.216 L44.9,25.216 Z M40.28,25.216 L35.335,25.216 C36.4224328,23.75987 37.2384805,22.1196445 37.744,20.374 L40.28,25.216 Z M23.127,3.71 C30.0066402,3.72931716 35.5698473,9.31861254 35.5570005,16.1982678 C35.5441091,23.0779231 29.9600304,28.6463664 23.0803661,28.639951 C16.2007017,28.6335245 10.627,23.0546673 10.627,16.175 C10.6462918,9.28511292 16.2370859,3.71 23.127,3.71 Z M8.511,20.373 C9.01649903,22.1186525 9.83254852,23.7588815 10.92,25.215 L5.975,25.215 L8.511,20.373 Z M17.111,44.543 L17.111,36.6 L29.145,36.6 L29.145,44.541 L17.111,44.543 Z M41.165,44.543 L31.855,44.543 L31.855,35.243 C31.8522458,34.4966075 31.2463976,33.8929949 30.5,33.893 L15.754,33.893 C15.0060447,33.893552 14.3999998,34.5000445 14.4,35.248 L14.4,44.548 L5.091,44.548 L5.091,27.926 L13.515,27.926 C19.1093667,32.4927329 27.1446333,32.4927329 32.739,27.926 L41.163,27.926 L41.165,44.543 Z" />
    <path
        d="M19.274,22.35 C19.9860275,22.8638765 20.8118871,23.19772 21.681,23.323 L21.681,23.708 C21.681,24.4563458 22.2876542,25.063 23.036,25.063 C23.7843458,25.063 24.391,24.4563458 24.391,23.708 L24.391,23.183 C25.0195211,22.9888721 25.5963943,22.656008 26.079,22.209 C26.8255275,21.5181253 27.3226637,20.5997945 27.493,19.597 C27.8614906,17.5909613 26.6852508,15.6227172 24.744,14.997 C23.7364123,14.6902935 22.7767547,14.2439568 21.893,13.671 C21.7152607,13.4583268 21.6552527,13.1710385 21.733,12.905 C21.7974886,12.4837934 22.0871629,12.1315801 22.488,11.987 C23.1490615,11.7582384 23.8799982,11.8640957 24.449,12.271 C25.0479528,12.721112 25.8983879,12.6004527 26.3484999,12.0014999 C26.798612,11.4025472 26.6779528,10.5521121 26.079,10.102 C25.5739341,9.73348058 25.0024805,9.46591944 24.396,9.314 L24.396,8.969 C24.396,8.22065416 23.7893458,7.614 23.041,7.614 C22.2926542,7.614 21.686,8.22065416 21.686,8.969 L21.686,9.397 C20.3255247,9.83396132 19.3195789,10.9893356 19.074,12.397 C18.7916963,13.6553837 19.2335402,14.9662642 20.22,15.797 C21.3303924,16.5629602 22.5520143,17.1535344 23.842,17.548 C24.5493654,17.7264803 24.9854827,18.4363356 24.825,19.148 C24.6868548,20.0307723 23.9255142,20.6808629 23.032,20.679 C22.2285926,20.7837137 21.4160211,20.5709743 20.767,20.086 C20.1412614,19.6753763 19.3011237,19.8497614 18.8905,20.4755 C18.4798763,21.1012386 18.6542614,21.9413763 19.28,22.352 L19.274,22.35 Z" />
</svg>