<svg xmlns="http://www.w3.org/2000/svg" width="52" height="48" viewBox="0 0 52 48">
    <path
        d="M45.371 32.981C44.6295394 32.5926713 43.7136633 32.8787147 43.325 33.62 39.2013448 41.5049889 30.2311726 45.5605295 21.587435 43.447858 12.9436973 41.3351864 6.85557972 33.5991524 6.834 24.701L8.051 25.918C8.64304925 26.5100493 9.60295075 26.5100493 10.195 25.918 10.7870493 25.3259507 10.7870493 24.3660493 10.195 23.774L6.395 19.974C6.11069273 19.6896789 5.725081 19.5299478 5.323 19.5299478 4.920919 19.5299478 4.53530727 19.6896789 4.251 19.974L.451 23.774C-.141049252 24.3660493-.141049252 25.3259507.451 25.918 1.04304925 26.5100493 2.00295075 26.5100493 2.595 25.918L3.8 24.704C3.82047477 34.9981614 10.8608169 43.9505346 20.8600147 46.3972098 30.8592126 48.843885 41.2377183 44.1536801 46.009 35.032 46.1971473 34.6755624 46.2356127 34.2588747 46.115896 33.8740175 45.9961793 33.4891603 45.7281364 33.1678174 45.371 32.981zM51.302 22.121C51.0176927 21.8366789 50.632081 21.6769478 50.23 21.6769478 49.827919 21.6769478 49.4423073 21.8366789 49.158 22.121L47.944 23.335C47.9252753 13.0393226 40.8844342 4.08484681 30.8837402 1.63792142 20.8830463-.809003963 10.5032297 3.88306269 5.733 13.007 5.48166362 13.4868077 5.5053936 14.0642546 5.79525107 14.5218222 6.08510855 14.9793897 6.59705728 15.2475624 7.13825112 15.2253222 7.67944495 15.203082 8.16766367 14.8938077 8.419 14.414 12.5430934 6.52819773 21.5146216 2.47274943 30.1589835 4.58675795 38.8033453 6.70076648 44.8907078 14.4389185 44.91 23.338L43.694 22.122C43.316209 21.7155577 42.7465444 21.5479998 42.2088586 21.6851689 41.6711728 21.8223379 41.2513938 22.2423129 41.1144757 22.7800627 40.9775576 23.3178124 41.1453814 23.8873987 41.552 24.265L45.352 28.065C45.6363073 28.3493211 46.021919 28.5090522 46.424 28.5090522 46.826081 28.5090522 47.2116927 28.3493211 47.496 28.065L51.296 24.265C51.5803211 23.9806927 51.7400522 23.595081 51.7400522 23.193 51.7400522 22.790919 51.5803211 22.4053073 51.296 22.121L51.302 22.121z" />
    <path
        d="M27.946,22.279 C26.6243437,21.8782925 25.3656646,21.2935571 24.207,20.542 C23.9095003,20.2209721 23.8004064,19.7683081 23.919,19.347 C24.0175255,18.72221 24.4517641,18.2022765 25.049,17.994 C25.971517,17.6786745 26.9894832,17.8276088 27.783,18.394 C28.4537498,18.8951983 29.4038015,18.7577497 29.9049999,18.0869999 C30.4061982,17.4162501 30.2687497,16.4661984 29.598,15.965 C28.9232475,15.4752273 28.1544724,15.130334 27.34,14.952 L27.34,14.335 C27.34,13.4977363 26.6612637,12.819 25.824,12.819 C24.9867363,12.819 24.308,13.4977363 24.308,14.335 L24.308,15.051 L24.173,15.089 C22.4877139,15.6175395 21.2391517,17.0436406 20.938,18.784 C20.5940099,20.3178031 21.134005,21.9154173 22.338,22.926 C23.743375,23.9037628 25.2964145,24.6498971 26.938,25.136 C27.9445627,25.4009175 28.5667886,26.4083517 28.353,27.427 C28.1559845,28.6727076 27.0791762,29.5881009 25.818,29.582 C24.7369605,29.7167059 23.6455408,29.4302441 22.77,28.782 C22.3167699,28.4784609 21.7354099,28.4418179 21.2476541,28.6860468 C20.7598983,28.9302757 20.4409576,29.417717 20.4124778,29.9624577 C20.3839981,30.5071984 20.6503709,31.0252406 21.11,31.319 C22.0526559,31.9989402 23.1548917,32.4239899 24.31,32.553 L24.31,33.246 C24.31,34.0832637 24.9887363,34.762 25.826,34.762 C26.6632637,34.762 27.342,34.0832637 27.342,33.246 L27.342,32.407 C28.1800682,32.1767842 28.950647,31.7487992 29.589,31.159 C30.5144008,30.3055109 31.1305722,29.169181 31.341,27.928 C31.7860943,25.4600593 30.3341685,23.0441744 27.946,22.279 L27.946,22.279 Z" />
</svg>