<svg xmlns="http://www.w3.org/2000/svg" width="69" height="69" viewBox="0 0 69 69">
    <g>
        <path
            d="M30.767,0 C13.7823945,0.0181880636 0.0181880636,13.7823945 4.4408921e-16,30.767 C4.4408921e-16,31.4203529 0.529647141,31.95 1.183,31.95 L30.767,31.95 C31.0807511,31.95 31.3816518,31.8253629 31.6035073,31.6035073 C31.8253629,31.3816518 31.95,31.0807511 31.95,30.767 L31.95,1.183 C31.95,0.869248893 31.8253629,0.568348214 31.6035073,0.346492678 C31.3816518,0.124637142 31.0807511,0 30.767,0 Z M29.583,29.583 L2.392,29.583 C3.02470129,14.834188 14.837188,3.02170129 29.586,2.389 L29.583,29.583 Z" />
        <path
            d="M65.36,30.627 C64.2595402,13.4045272 49.9695949,-0.000831628432 32.712,7.10542736e-15 C32.0835,7.10542736e-15 31.574,0.509499955 31.574,1.138 L31.574,31.575 L1.138,31.575 C0.836183635,31.575 0.546728882,31.6948961 0.333312483,31.9083125 C0.119896084,32.1217289 0,32.4111836 0,32.713 C0.0139042286,39.1134227 1.89890777,45.3701189 5.423,50.713 C5.31289517,51.3279098 5.71905776,51.9166223 6.333,52.032 C12.3120375,60.2527102 21.7930132,65.2024433 31.956,65.409 C32.3854052,65.8127359 33.0558542,65.8092188 33.481,65.401 C33.919,65.391 34.357,65.387 34.799,65.36 C52.8293283,64.2077061 66.5118257,48.6573582 65.36,30.627 L65.36,30.627 Z M2.296,33.85 L29.084,33.85 L7.084,49.157 C4.13231578,44.5819187 2.47751009,39.2915864 2.296,33.85 L2.296,33.85 Z M31.575,63.126 C24.2247471,62.8788842 17.2183747,59.9532791 11.875,54.9 C10.6060291,53.7058476 9.43990633,52.4069219 8.389,51.017 L31.575,34.89 L31.575,63.126 Z M63.133,33.851 C63.123,34.1176667 63.1093333,34.3843333 63.092,34.651 C62.1269795,49.9390801 49.9439102,62.1242916 34.656,63.092 C34.387,63.108 34.119,63.111 33.85,63.122 L33.85,2.296 C41.9176391,2.59723232 49.5351775,6.09101186 55.0268166,12.0087345 C60.5184557,17.9264571 63.4343408,25.783365 63.133,33.851 Z"
            transform="translate(2.606 2.606)" />
        <path
            d="M11.378,-1.42108547e-14 L1.138,-1.42108547e-14 C0.731431726,-1.42108547e-14 0.355747128,0.216901516 0.152462977,0.568999961 C-0.0508211734,0.921098406 -0.0508211734,1.35490159 0.152462977,1.70700004 C0.355747128,2.05909848 0.731431726,2.276 1.138,2.276 L11.378,2.276 C11.7845683,2.276 12.1602529,2.05909848 12.363537,1.70700004 C12.5668212,1.35490159 12.5668212,0.921098406 12.363537,0.568999961 C12.1602529,0.216901516 11.7845683,-1.42108547e-14 11.378,-1.42108547e-14 L11.378,-1.42108547e-14 Z"
            transform="translate(38.731 12.562)" />
        <path
            d="M14.789,0 L1.138,0 C0.509499955,0 5.68434189e-14,0.509499955 5.68434189e-14,1.138 C5.68434189e-14,1.76650005 0.509499955,2.276 1.138,2.276 L14.789,2.276 C15.4175,2.276 15.927,1.76650005 15.927,1.138 C15.927,0.509499955 15.4175,0 14.789,0 Z"
            transform="translate(38.731 17.113)" />
        <path
            d="M14.789,0 L1.138,0 C0.509499955,0 0,0.509499955 0,1.138 C0,1.76650005 0.509499955,2.276 1.138,2.276 L14.789,2.276 C15.4175,2.276 15.927,1.76650005 15.927,1.138 C15.927,0.509499955 15.4175,0 14.789,0 Z"
            transform="translate(38.731 21.664)" />
        <path
            d="M9.103,0 L1.138,0 C0.509499955,0 -2.84217094e-14,0.509499955 -2.84217094e-14,1.138 C-2.84217094e-14,1.76650005 0.509499955,2.276 1.138,2.276 L9.103,2.276 C9.73150005,2.276 10.241,1.76650005 10.241,1.138 C10.241,0.509499955 9.73150005,0 9.103,0 Z"
            transform="translate(21.664 58.074)" />
        <path
            d="M9.103,0 L1.138,0 C0.509499955,0 -2.84217094e-14,0.509499955 -2.84217094e-14,1.138 C-2.84217094e-14,1.76650005 0.509499955,2.276 1.138,2.276 L9.103,2.276 C9.73150005,2.276 10.241,1.76650005 10.241,1.138 C10.241,0.509499955 9.73150005,0 9.103,0 Z"
            transform="translate(21.664 53.523)" />
        <path
            d="M6.827,0 L1.138,0 C0.509499955,0 0,0.509499955 0,1.138 C0,1.76650005 0.509499955,2.276 1.138,2.276 L6.827,2.276 C7.45550005,2.276 7.965,1.76650005 7.965,1.138 C7.965,0.509499955 7.45550005,0 6.827,0 Z"
            transform="translate(23.94 48.972)" />
    </g>
</svg>