<svg xmlns="http://www.w3.org/2000/svg" width="83" height="75" viewBox="0 0 83 75">
    <g>
        <path
            d="M21.105 74.703C21.3633842 74.7082161 21.612742 74.6079398 21.7955788 74.4252917 21.9784155 74.2426436 22.0789493 73.9933895 22.074 73.735L22.074 69.227 23.284 69.227C23.5371482 69.2383195 23.7835099 69.1433393 23.9635442 68.9650143 24.1435784 68.7866892 24.2409043 68.5412447 24.232 68.288L24.232 62.949C24.2439065 62.6869192 24.1503409 62.430989 23.9722061 62.2383854 23.7940714 62.0457819 23.5462116 61.9325549 23.284 61.924L22.074 61.924 22.074 57.502C22.0900041 56.9463009 21.6601117 56.4791423 21.105 56.449L.948 56.449C.398584562 56.4838747-.0212287316 56.953104.005 57.503L.005 62.841C-.0220810407 63.3968683.398109125 63.8733497.953 63.916L2.163 63.916 2.163 67.401.948 67.401C.688033493 67.4028997.440051915 67.5105908.26119378 67.6992597.0823356443 67.8879286-.011972246 68.1413024-4.99600361e-15 68.401L-4.99600361e-15 73.739C-.00994323412 73.9951607.0860648277 74.2441069.26543226 74.4272585.444799692 74.61041.691687564 74.7115938.948 74.7071499L21.105 74.703zM12.283 63.917L12.283 67.236 10.953 67.236 10.953 63.917 12.283 63.917zM14.274 67.236L14.274 63.917 15.436 63.917 15.436 67.236 14.274 67.236zM8.964 63.917L8.964 67.236 7.634 67.236 7.634 63.917 8.964 63.917zM16.598 69.393L16.598 72.712 15.268 72.712 15.268 69.393 16.598 69.393zM17.428 67.236L17.428 63.917 18.756 63.917 18.756 67.236 17.428 67.236zM15.271 61.926L15.271 58.441 16.595 58.441 16.595 61.926 15.271 61.926zM13.28 61.926L11.949 61.926 11.949 58.441 13.277 58.441 13.28 61.926zM9.961 61.926L8.796 61.926 8.796 58.441 9.958 58.441 9.961 61.926zM6.808 61.926L5.477 61.926 5.477 58.441 6.805 58.441 6.808 61.926zM5.646 67.236L4.149 67.236 4.149 63.917 5.643 63.917 5.646 67.236zM6.808 69.393L6.808 72.712 5.477 72.712 5.477 69.393 6.808 69.393zM8.799 69.393L9.961 69.393 9.961 72.712 8.796 72.712 8.799 69.393zM11.952 69.393L13.28 69.393 13.28 72.712 11.949 72.712 11.952 69.393zM20.083 72.712L18.587 72.712 18.587 69.393 20.081 69.393 20.083 72.712zM22.24 67.236L20.744 67.236 20.744 63.917 22.238 63.917 22.24 67.236zM20.083 61.926L18.587 61.926 18.587 58.441 20.081 58.441 20.083 61.926zM1.992 58.44L3.486 58.44 3.486 61.925 1.992 61.925 1.992 58.44zM1.992 69.392L3.486 69.392 3.486 72.711 1.992 72.711 1.992 69.392zM51.492 58.441C52.0421697 58.4129705 52.4660542 57.9452668 52.44 57.395L52.44 52.057C52.4478504 51.805994 52.3494112 51.5633299 52.1689096 51.3887308 51.9884081 51.2141317 51.7426065 51.1238118 51.492 51.14L31.338 51.14C31.0853048 51.1232686 30.8370856 51.2127127 30.6531444 51.3867829 30.4692033 51.5608531 30.3662179 51.8037668 30.369 52.057L30.369 56.448 29.159 56.448C28.607595 56.4802585 28.1848509 56.9502715 28.211 57.502L28.211 62.84C28.183919 63.3958683 28.6041091 63.8723497 29.159 63.915L30.369 63.915 30.369 67.4 29.159 67.4C28.8990335 67.4018997 28.6510519 67.5095908 28.4721938 67.6982597 28.2933356 67.8869286 28.1990278 68.1403024 28.211 68.4L28.211 73.738C28.2010568 73.9941607 28.2970648 74.2431069 28.4764323 74.4262585 28.6557997 74.60941 28.9026876 74.7105938 29.159 74.7061938L49.316 74.7061938C49.5743842 74.7112161 49.823742 74.6109398 50.0065788 74.4282917 50.1894155 74.2456436 50.2899493 73.9963895 50.285 73.738L50.285 69.23 51.495 69.23C51.7481482 69.2413195 51.9945099 69.1463393 52.1745442 68.9680143 52.3545784 68.7896892 52.4519043 68.5442447 52.443 68.291L52.443 62.948C52.4549065 62.6859192 52.3613409 62.429989 52.1832061 62.2373854 52.0050714 62.0447819 51.7572116 61.9315549 51.495 61.923L50.285 61.923 50.285 58.438 51.492 58.441zM39.164 67.241L39.164 63.922 40.492 63.922 40.492 67.241 39.164 67.241zM40.164 61.931L40.164 58.446 41.492 58.446 41.492 61.931 40.164 61.931zM38.173 58.446L38.173 61.931 37.011 61.931 37.011 58.446 38.173 58.446zM37.173 63.922L37.173 67.241 35.845 67.241 35.845 63.922 37.173 63.922zM42.483 67.241L42.483 63.922 43.645 63.922 43.645 67.241 42.483 67.241zM43.483 61.931L43.483 58.446 44.811 58.446 44.811 61.931 43.483 61.931zM45.64 56.455L45.64 53.136 46.968 53.136 46.968 56.448 45.64 56.455zM43.649 56.455L42.487 56.455 42.487 53.136 43.649 53.136 43.649 56.455zM40.496 56.455L39.168 56.455 39.168 53.136 40.496 53.136 40.496 56.455zM37.177 56.455L35.849 56.455 35.849 53.136 37.177 53.136 37.177 56.455zM35.02 58.446L35.02 61.931 33.692 61.931 33.692 58.446 35.02 58.446zM33.858 67.246L32.365 67.246 32.365 63.927 33.858 63.927 33.858 67.246zM35.02 69.403L35.02 72.722 33.692 72.722 33.692 69.403 35.02 69.403zM37.011 69.403L38.173 69.403 38.173 72.722 37.011 72.722 37.011 69.403zM40.164 69.403L41.492 69.403 41.492 72.722 40.164 72.722 40.164 69.403zM43.483 69.403L44.811 69.403 44.811 72.722 43.483 72.722 43.483 69.403zM45.64 67.246L45.64 63.927 46.968 63.927 46.968 67.246 45.64 67.246zM46.802 58.446L48.296 58.446 48.296 61.931 46.802 61.931 46.802 58.446zM50.453 56.455L48.959 56.455 48.959 53.136 50.453 53.136 50.453 56.455zM32.365 53.136L33.858 53.136 33.858 56.448 32.365 56.448 32.365 53.136zM30.208 58.446L31.702 58.446 31.702 61.931 30.208 61.931 30.208 58.446zM30.208 69.398L31.702 69.398 31.702 72.717 30.208 72.717 30.208 69.398zM48.296 72.717L46.802 72.717 46.802 69.398 48.296 69.398 48.296 72.717zM50.453 67.241L48.959 67.241 48.959 63.922 50.453 63.922 50.453 67.241zM81.362 51.139L80.152 51.139 80.152 46.639C80.1565902 46.3805063 80.0566171 46.1311091 79.8747494 45.9473587 79.6928816 45.7636083 79.4445273 45.6610721 79.186 45.6629679L59.029 45.6629679C58.771493 45.660874 58.5243655 45.7643728 58.3452269 45.9493694 58.1660883 46.1343659 58.0705921 46.3846946 58.081 46.642L58.081 51.98C58.0706366 52.2377594 58.1659865 52.4885713 58.3449672 52.6743487 58.5239478 52.8601261 58.7710334 52.9647536 59.029 52.964L60.239 52.964 60.239 56.449 59.029 56.449C58.4795846 56.4838747 58.0597713 56.953104 58.086 57.503L58.086 62.841C58.058919 63.3968683 58.4791091 63.8733497 59.034 63.916L60.244 63.916 60.244 67.401 59.034 67.401C58.7740335 67.4028997 58.5260519 67.5105908 58.3471938 67.6992597 58.1683356 67.8879286 58.0740278 68.1413024 58.086 68.401L58.086 73.739C58.0760568 73.9951607 58.1720648 74.2441069 58.3514323 74.4272585 58.5307997 74.61041 58.7776876 74.7115938 59.034 74.7071938L79.186 74.7071938C79.4443842 74.7122161 79.693742 74.6119398 79.8765788 74.4292917 80.0594155 74.2466436 80.1599493 73.9973895 80.155 73.739L80.155 69.231 81.365 69.231C81.6181482 69.2423195 81.8645099 69.1473393 82.0445442 68.9690143 82.2245784 68.7906892 82.3219043 68.5452447 82.313 68.292L82.313 62.954C82.3249065 62.6919192 82.2313409 62.435989 82.0532061 62.2433854 81.8750714 62.0507819 81.6272116 61.9375549 81.365 61.929L80.155 61.929 80.155 58.444 81.365 58.444C81.9151697 58.4159705 82.3390542 57.9482668 82.313 57.398L82.313 52.06C82.3208504 51.808994 82.2224112 51.5663299 82.0419096 51.3917308 81.8614081 51.2171317 81.6156065 51.1268118 81.365 51.143L81.362 51.139zM69.034 67.239L69.034 63.92 70.362 63.92 70.362 67.239 69.034 67.239zM70.034 61.929L70.034 58.444 71.362 58.444 71.362 61.929 70.034 61.929zM69.034 56.453L69.034 53.134 70.362 53.134 70.362 56.453 69.034 56.453zM67.043 53.134L67.043 56.453 65.715 56.453 65.715 53.134 67.043 53.134zM68.043 58.444L68.043 61.929 66.881 61.929 66.881 58.444 68.043 58.444zM67.043 63.92L67.043 67.239 65.715 67.239 65.715 63.92 67.043 63.92zM72.353 67.239L72.353 63.92 73.515 63.92 73.515 67.239 72.353 67.239zM73.353 61.929L73.353 58.444 74.681 58.444 74.681 61.929 73.353 61.929zM72.353 56.453L72.353 53.134 73.515 53.134 73.515 56.453 72.353 56.453zM73.353 50.977L73.353 47.658 74.681 47.658 74.681 50.977 73.353 50.977zM71.362 50.977L70.034 50.977 70.034 47.658 71.362 47.658 71.362 50.977zM68.043 50.977L66.881 50.977 66.881 47.658 68.043 47.658 68.043 50.977zM64.89 50.977L63.562 50.977 63.562 47.658 64.886 47.658 64.89 50.977zM63.728 56.453L62.234 56.453 62.234 53.134 63.728 53.134 63.728 56.453zM64.89 58.444L64.89 61.929 63.562 61.929 63.562 58.444 64.89 58.444zM63.728 67.244L62.234 67.244 62.234 63.925 63.728 63.925 63.728 67.244zM64.89 69.401L64.89 72.72 63.562 72.72 63.562 69.393 64.89 69.401zM66.881 69.401L68.043 69.401 68.043 72.72 66.881 72.72 66.881 69.401zM70.034 69.401L71.362 69.401 71.362 72.72 70.034 72.72 70.034 69.401zM73.353 69.401L74.681 69.401 74.681 72.72 73.353 72.72 73.353 69.401zM75.51 67.244L75.51 63.925 76.838 63.925 76.838 67.244 75.51 67.244zM76.672 58.444L78.165 58.444 78.165 61.929 76.672 61.929 76.672 58.444zM75.51 56.453L75.51 53.134 76.838 53.134 76.838 56.453 75.51 56.453zM78.165 50.977L76.672 50.977 76.672 47.658 78.165 47.658 78.165 50.977zM60.077 47.658L61.57 47.658 61.57 50.977 60.077 50.977 60.077 47.658zM60.077 58.444L61.57 58.444 61.57 61.929 60.077 61.929 60.077 58.444zM60.077 69.396L61.57 69.396 61.57 72.715 60.077 72.715 60.077 69.396zM78.165 72.715L76.672 72.715 76.672 69.393 78.165 69.393 78.165 72.715zM80.322 67.239L78.829 67.239 78.829 63.92 80.322 63.92 80.322 67.239zM80.322 56.453L78.829 56.453 78.829 53.134 80.322 53.134 80.322 56.453zM6.105 48.4890009C6.36186781 48.4893537 6.60885845 48.3900556 6.794 48.212L25.117 30.643 44.151 45.636C44.5119388 45.916407 45.0170612 45.916407 45.378 45.636L73.337 23.907 72.189 38.826C72.1493169 39.3733008 72.5580826 39.8503428 73.105 39.895L73.182 39.895C73.7014189 39.8925089 74.132452 39.4927605 74.174 38.975L75.496 21.794C75.5361584 21.244159 75.1237386 20.7655373 74.574 20.724L56.074 19.402C55.55842 19.4139401 55.1364791 19.8160085 55.0996988 20.3304135 55.0629186 20.8448185 55.4233636 21.3028279 55.932 21.388L71.865 22.526 44.77 43.585 25.668 28.543C25.2772672 28.2379235 24.7220064 28.2651547 24.363 28.607L5.42 46.775C5.13122253 47.0581329 5.04141228 47.4873308 5.19244049 47.8624936 5.34346869 48.2376564 5.70559922 48.4849179 6.11 48.4890009L6.105 48.4890009z" />
        <path
            d="M36.963,26.585 C44.3039689,26.585 50.255,20.6339689 50.255,13.293 C50.255,5.95203111 44.3039689,0.001 36.963,0.001 C29.6220311,0.001 23.671,5.95203111 23.671,13.293 C23.671,20.6339689 29.6220311,26.585 36.963,26.585 L36.963,26.585 Z M36.963,1.992 C43.2038177,1.992 48.263,7.05118233 48.263,13.292 C48.263,19.5328177 43.2038177,24.592 36.963,24.592 C30.7221823,24.592 25.663,19.5328177 25.663,13.292 C25.6627348,10.2948804 26.85315,7.42042428 28.9723398,5.30104692 C31.0915296,3.18166955 33.9658804,1.991 36.963,1.991 L36.963,1.992 Z" />
        <path
            d="M36.964,19.074 C35.7552773,19.0734482 34.7755518,18.0937227 34.775,16.885 C34.8110063,16.5067422 34.6295296,16.1407578 34.3066417,15.940461 C33.9837538,15.7401643 33.5752462,15.7401643 33.2523583,15.940461 C32.9294704,16.1407578 32.7479937,16.5067422 32.784,16.885 C32.7867043,18.7619088 34.0381083,20.4076971 35.846,20.912 L35.846,21.768 C35.8099937,22.1462578 35.9914704,22.5122422 36.3143583,22.712539 C36.6372462,22.9128357 37.0457538,22.9128357 37.3686417,22.712539 C37.6915296,22.5122422 37.8730063,22.1462578 37.837,21.768 L37.837,20.968 C39.9288831,20.5217066 41.3463362,18.5682188 41.1217365,16.4410828 C40.8971369,14.3139468 39.1029606,12.6995679 36.964,12.7 C36.0786321,12.7 35.2804433,12.1666673 34.9416277,11.348694 C34.6028121,10.5307208 34.7900936,9.58919287 35.4161433,8.96314326 C36.0421929,8.33709364 36.9837208,8.14981209 37.801694,8.4886277 C38.6196673,8.82744331 39.153,9.62563215 39.153,10.511 C39.2018568,11.0242562 39.6329237,11.4162385 40.1485,11.4162385 C40.6640763,11.4162385 41.0951432,11.0242562 41.144,10.511 C41.1412605,8.60351861 39.8499133,6.93886887 38.003,6.462 L38.003,5.674 C38.0390063,5.29574221 37.8575296,4.92975782 37.5346417,4.72946104 C37.2117538,4.52916426 36.8032462,4.52916426 36.4803583,4.72946104 C36.1574704,4.92975782 35.9759937,5.29574221 36.012,5.674 L36.012,6.449 C33.9449399,6.93281787 32.5688248,8.88923509 32.8121828,10.998167 C33.0555408,13.107099 34.8410735,14.6986812 36.964,14.699 C38.1729513,14.699 39.153,15.6790487 39.153,16.888 C39.153,18.0969513 38.1729513,19.077 36.964,19.077 L36.964,19.074 Z" />
    </g>
</svg>