<svg xmlns="http://www.w3.org/2000/svg" width="82" height="81" viewBox="0 0 82 81">
    <g>
        <path
            d="M14.337 30.335L31.22 30.335C31.7811213 30.335 32.236 29.8801213 32.236 29.319 32.236 28.7578787 31.7811213 28.303 31.22 28.303L14.337 28.303C13.7758787 28.303 13.321 28.7578787 13.321 29.319 13.321 29.8801213 13.7758787 30.335 14.337 30.335zM47.237 39.48L14.337 39.48C13.7758787 39.48 13.321 39.9348787 13.321 40.496 13.321 41.0571213 13.7758787 41.512 14.337 41.512L47.237 41.512C47.7981213 41.512 48.253 41.0571213 48.253 40.496 48.253 39.9348787 47.7981213 39.48 47.237 39.48zM47.237 50.657L14.337 50.657C13.7758787 50.657 13.321 51.1118787 13.321 51.673 13.321 52.2341213 13.7758787 52.689 14.337 52.689L47.237 52.689C47.7981213 52.689 48.253 52.2341213 48.253 51.673 48.253 51.1118787 47.7981213 50.657 47.237 50.657z" />
        <path
            d="M63.277,7.10542736e-15 C54.5338849,-0.00575602867 47.0092098,6.17681334 45.319,14.755 L1.05,14.755 C0.784152073,14.7392097 0.523120067,14.830976 0.325636888,15.0096513 C0.128153709,15.1883266 0.0108069687,15.4389029 0,15.705 L0,77.432 C0.0119938296,78.2082544 0.474762453,78.9065078 1.185,79.22 C1.95011559,79.5776713 2.85244879,79.465754 3.507,78.932 L10.694,72.94 C10.7447924,72.8974615 10.8173812,72.8930008 10.873,72.929 L19.487,79.881 C20.2856901,80.5067278 21.4102112,80.499684 22.201,79.864 L30.693,72.935 C30.7432921,72.8935918 30.8147464,72.8899379 30.869,72.926 L39.385,79.874 C39.7690832,80.1794325 40.2452772,80.346 40.736,80.346 C41.2302952,80.3451263 41.7099616,80.1781939 42.098,79.872 L50.687,72.939 C50.7372921,72.8975918 50.8087464,72.8939379 50.863,72.93 L58.063,78.93 C58.7008508,79.4646046 59.5922473,79.577202 60.343,79.218 C61.039174,78.8978963 61.4818779,78.1981891 61.473,77.432 L61.473,36.51 C62.15,36.564 62.658,36.593 63.244,36.593 C69.8658083,36.7283638 76.04397,33.2752154 79.3980018,27.5640736 C82.7520336,21.8529319 82.7584164,14.7752292 79.4146908,9.05804738 C76.0709652,3.34086555 69.8990417,-0.123420389 63.277,7.10542736e-15 Z M59.44,77.383 C59.44,77.398 59.372,77.412 59.326,77.373 L52.134,71.36 C51.3427718,70.7159931 50.2094092,70.7114113 49.413,71.349 L40.829,78.282 C40.7794694,78.3233969 40.7085373,78.3270658 40.655,78.291 L32.14,71.343 C31.3421198,70.7100266 30.2122062,70.7141792 29.419,71.353 L20.928,78.282 C20.8778092,78.3234028 20.8065575,78.3274512 20.752,78.292 L12.14,71.341 C11.335879,70.7086314 10.2000303,70.7211133 9.41,71.371 L2.197,77.371 C2.15,77.41 2.032,77.396 2.032,77.381 L2.032,16.781 L45.032,16.781 C44.988,17.289 44.932,17.781 44.932,18.306 C44.9260178,26.9520994 50.979653,34.4194178 59.44,36.202 L59.44,77.383 Z M63.277,34.561 C54.2853822,34.5604477 46.9966318,27.2709512 46.997,18.2793334 C46.9973682,9.28771555 54.2867155,1.99900003 63.2783333,1.99900003 C72.2699511,1.99900003 79.559,9.28838217 79.559,18.28 C79.559,22.5981629 77.843548,26.7394505 74.790052,29.7927591 C71.7365559,32.8460676 67.5951629,34.561 63.277,34.561 L63.277,34.561 Z" />
        <path
            d="M63.279,10.91 C65.1906483,10.9122043 66.7397957,12.4613517 66.742,14.373 C66.7419999,14.7359819 66.9356484,15.071391 67.2499999,15.252882 C67.5643515,15.434373 67.9516485,15.434373 68.2660001,15.252882 C68.5803516,15.071391 68.774,14.7359819 68.774,14.373 C68.771941,11.7526343 66.9215418,9.49759103 64.352,8.984 L64.352,7.643 C64.3519999,7.08187879 63.8971212,6.62700024 63.336,6.62700024 C62.7748788,6.62700024 62.3200001,7.08187879 62.32,7.643 L62.32,8.964 C59.514769,9.46020747 57.5539297,12.0179863 57.803211,14.8558379 C58.0524923,17.6936894 60.4292209,19.8704496 63.278,19.87 C65.1905621,19.87 66.741,21.4204379 66.741,23.333 C66.741,25.2455621 65.1905621,26.796 63.278,26.796 C61.3654379,26.796 59.815,25.2455621 59.815,23.333 C59.8150001,22.9700181 59.6213516,22.634609 59.3070001,22.453118 C58.9926485,22.271627 58.6053515,22.271627 58.2909999,22.453118 C57.9766484,22.634609 57.7829999,22.9700181 57.783,23.333 C57.786585,25.7367798 59.349142,27.8604001 61.643,28.579 L61.643,30.504 C61.643,31.0651213 62.0978787,31.52 62.659,31.52 C63.2201213,31.52 63.675,31.0651213 63.675,30.504 L63.675,28.811 C66.621646,28.5928515 68.8682712,26.0836062 68.7606539,23.1308566 C68.6530366,20.178107 66.2297085,17.839065 63.275,17.836 C61.3621618,17.836 59.8115,16.2853382 59.8115,14.3725 C59.8115,12.4596618 61.3621618,10.909 63.275,10.909 L63.279,10.91 Z" />
    </g>
</svg>