<svg xmlns="http://www.w3.org/2000/svg" width="77" height="77" viewBox="0 0 77 77">
    <g>
        <path
            d="M75.639,26.898 L38.826,0.241 C38.3819342,-0.0799945349 37.7820658,-0.0799945349 37.338,0.241 L0.525,26.898 C0.0766036305,27.2197714 -0.112408164,27.7944625 0.0574542405,28.3195748 C0.227316645,28.8446871 0.717100657,29.1998025 1.269,29.1980068 L74.897,29.1980068 C75.4488993,29.1998025 75.9386834,28.8446871 76.1085458,28.3195748 C76.2784082,27.7944625 76.0893964,27.2197714 75.641,26.898 L75.639,26.898 Z M5.186,26.657 L38.086,2.835 L70.986,26.657 L5.186,26.657 Z" />
        <path
            d="M67.279,0.001 L1.269,0.001 C0.56787451,0.001 -0.0005,0.56937451 -0.0005,1.2705 C-0.0005,1.97162549 0.56787451,2.54 1.269,2.54 L67.279,2.54 C67.9801255,2.54 68.5485,1.97162549 68.5485,1.2705 C68.5485,0.56937451 67.9801255,0.001 67.279,0.001 L67.279,0.001 Z"
            transform="translate(3.808 68.548)" />
        <path
            d="M74.9,0.001 L1.269,0.001 C0.56787451,0.001 -0.0005,0.56937451 -0.0005,1.2705 C-0.0005,1.97162549 0.56787451,2.54 1.269,2.54 L74.9,2.54 C75.6011255,2.54 76.1695,1.97162549 76.1695,1.2705 C76.1695,0.56937451 75.6011255,0.001 74.9,0.001 L74.9,0.001 Z"
            transform="translate(0 73.626)" />
        <path
            d="M16.5,31.735 L13.964,31.735 L13.964,2.535 L16.5,2.535 C17.2011255,2.535 17.7695,1.96662549 17.7695,1.2655 C17.7695,0.56437451 17.2011255,-0.004 16.5,-0.004 L1.269,-0.004 C0.56787451,-0.004 -0.0005,0.56437451 -0.0005,1.2655 C-0.0005,1.96662549 0.56787451,2.535 1.269,2.535 L3.808,2.535 L3.808,31.735 L1.269,31.735 C0.56787451,31.735 -0.0005,32.3033745 -0.0005,33.0045 C-0.0005,33.7056255 0.56787451,34.274 1.269,34.274 L16.5,34.274 C17.2011255,34.274 17.7695,33.7056255 17.7695,33.0045 C17.7695,32.3033745 17.2011255,31.735 16.5,31.735 L16.5,31.735 Z M11.422,31.735 L6.347,31.735 L6.347,2.535 L11.425,2.535 L11.422,31.735 Z"
            transform="translate(8.886 31.735)" />
        <path
            d="M16.5,31.735 L13.961,31.735 L13.961,2.535 L16.5,2.535 C17.2011255,2.535 17.7695,1.96662549 17.7695,1.2655 C17.7695,0.56437451 17.2011255,-0.004 16.5,-0.004 L1.269,-0.004 C0.56787451,-0.004 -0.0005,0.56437451 -0.0005,1.2655 C-0.0005,1.96662549 0.56787451,2.535 1.269,2.535 L3.808,2.535 L3.808,31.735 L1.269,31.735 C0.56787451,31.735 -0.0005,32.3033745 -0.0005,33.0045 C-0.0005,33.7056255 0.56787451,34.274 1.269,34.274 L16.5,34.274 C17.2011255,34.274 17.7695,33.7056255 17.7695,33.0045 C17.7695,32.3033745 17.2011255,31.735 16.5,31.735 L16.5,31.735 Z M11.422,31.735 L6.344,31.735 L6.344,2.535 L11.422,2.535 L11.422,31.735 Z"
            transform="translate(29.197 31.735)" />
        <path
            d="M16.5,31.735 L13.961,31.735 L13.961,2.535 L16.5,2.535 C17.2011255,2.535 17.7695,1.96662549 17.7695,1.2655 C17.7695,0.56437451 17.2011255,-0.004 16.5,-0.004 L1.269,-0.004 C0.56787451,-0.004 -0.0005,0.56437451 -0.0005,1.2655 C-0.0005,1.96662549 0.56787451,2.535 1.269,2.535 L3.808,2.535 L3.808,31.735 L1.269,31.735 C0.56787451,31.735 -0.0005,32.3033745 -0.0005,33.0045 C-0.0005,33.7056255 0.56787451,34.274 1.269,34.274 L16.5,34.274 C17.2011255,34.274 17.7695,33.7056255 17.7695,33.0045 C17.7695,32.3033745 17.2011255,31.735 16.5,31.735 L16.5,31.735 Z M11.422,31.735 L6.344,31.735 L6.344,2.535 L11.422,2.535 L11.422,31.735 Z"
            transform="translate(49.507 31.735)" />
        <path
            d="M6.03,7.617 L4.13,7.617 C3.61015339,7.73163487 3.07294725,7.51775071 2.77415112,7.07718003 C2.47535499,6.63660935 2.47535499,6.05839065 2.77415112,5.61781997 C3.07294725,5.17724929 3.61015339,4.96336513 4.13,5.078 L8.89,5.078 C9.59112549,5.078 10.1595,4.50962549 10.1595,3.8085 C10.1595,3.10737451 9.59112549,2.539 8.89,2.539 L6.351,2.539 L6.351,1.269 C6.351,0.56787451 5.78262549,-0.0005 5.0815,-0.0005 C4.38037451,-0.0005 3.812,0.56787451 3.812,1.269 L3.812,2.569 C1.74641841,2.63198846 0.0814914314,4.28206562 -2.84217094e-14,6.347 C0.0936516729,8.53521167 1.9373124,10.2367774 4.126,10.155 L6.026,10.155 C6.54584661,10.0403651 7.08305275,10.2542493 7.38184888,10.69482 C7.68064501,11.1353906 7.68064501,11.7136094 7.38184888,12.15418 C7.08305275,12.5947507 6.54584661,12.8086349 6.026,12.694 L1.266,12.694 C0.56487451,12.694 -0.0035,13.2623745 -0.0035,13.9635 C-0.0035,14.6646255 0.56487451,15.233 1.266,15.233 L3.805,15.233 L3.805,16.501 C3.805,17.2021255 4.37337451,17.7705 5.0745,17.7705 C5.77562549,17.7705 6.344,17.2021255 6.344,16.501 L6.344,15.201 C8.40839207,15.135923 10.0711436,13.4858343 10.152,11.422 C10.0567385,9.23659533 8.21603289,7.53744809 6.03,7.617 Z"
            transform="translate(33.005 6.346)" />
    </g>
</svg>