<svg xmlns="http://www.w3.org/2000/svg" width="81" height="74" viewBox="0 0 81 74">
    <g>
        <path
            d="M64.353,41.342 C64.8536005,41.2956182 65.2389361,40.8796799 65.247,40.377 L65.247,33.377 C65.2388834,32.8739717 64.8529953,32.4579025 64.352,32.412 L59.835,31.976 C59.3489299,30.0714325 58.5786136,28.2509913 57.55,26.576 L60.414,23.119 C60.7317873,22.7352079 60.7067027,22.1729672 60.356,21.819 L55.47,16.883 C55.1168356,16.5253973 54.5488784,16.4971731 54.162,16.818 L50.698,19.691 C49.0183136,18.6731899 47.1991708,17.9057812 45.298,17.413 L44.862,12.896 C44.8167798,12.3942673 44.4016527,12.0067006 43.898,11.996 L36.888,11.996 C36.383962,12.0061978 35.9682645,12.393895 35.923,12.896 L35.488,17.399 C33.5803597,17.8819192 31.7564993,18.6498959 30.078,19.677 L26.621,16.812 C26.2364527,16.4950155 25.6741753,16.5213993 25.321,16.873 L20.375,21.81 C20.0201037,22.1635732 19.9932228,22.7293733 20.313,23.115 L23.183,26.577 C22.1651713,28.2570392 21.3968138,30.0760354 20.902,31.977 L16.382,32.413 C15.8826526,32.4601671 15.4999315,32.8774453 15.496,33.379 L15.496,40.379 C15.5004414,40.8801707 15.8830302,41.2968729 16.382,41.344 L20.894,41.78 C21.3794448,43.6844544 22.1490846,45.5048901 23.177,47.18 L20.312,50.637 C19.9952826,51.0217989 20.0220995,51.584089 20.374,51.937 L25.32,56.873 C25.6734394,57.2243011 26.2357043,57.2502518 26.62,56.933 L30.084,54.061 C31.7636864,55.0788101 33.5828292,55.8462188 35.484,56.339 L35.92,60.856 C35.9652202,61.3577327 36.3803473,61.7452994 36.884,61.756 L43.888,61.756 C44.392222,61.7462559 44.8081753,61.3583201 44.853,60.856 L45.289,56.349 C47.1966452,55.8660953 49.0205077,55.0981177 50.699,54.071 L54.157,56.936 C54.5415473,57.2529845 55.1038247,57.2266007 55.457,56.875 L60.403,51.938 C60.7575969,51.5841611 60.7840437,51.0183738 60.464,50.633 L57.594,47.171 C58.6149488,45.4913447 59.3866624,43.6723779 59.885,41.771 L64.353,41.342 Z M58.153,40.67 C57.6705011,42.8257843 56.8032981,44.8769227 55.593,46.725 C55.3615299,47.0805547 55.3882745,47.5453424 55.659,47.872 L58.412,51.193 L54.712,54.882 L51.39,52.127 C51.0612865,51.8546017 50.5930287,51.8294222 50.237,52.065 C48.396308,53.2845238 46.3431093,54.1477966 44.184,54.61 C43.769531,54.7099208 43.4639921,55.0616318 43.423,55.486 L43.005,59.819 L37.758,59.819 L37.34,55.486 C37.3000441,55.0625589 36.9920362,54.7129719 36.577,54.62 C34.4183718,54.1411372 32.3644749,53.2747871 30.515,52.063 C30.16013,51.8337862 29.6976597,51.8608952 29.372,52.13 L26.05,54.883 L22.35,51.194 L25.103,47.873 C25.3760663,47.5436771 25.4008584,47.074254 25.164,46.718 C23.9423985,44.8806657 23.0761002,42.8305849 22.61,40.674 C22.5156683,40.2614078 22.16736,39.9558317 21.746,39.916 L17.414,39.498 L17.414,34.261 L21.746,33.843 C22.1649826,33.8029086 22.5109423,33.4984802 22.604,33.088 C23.0873807,30.9320001 23.955608,28.8808426 25.167,27.033 C25.3987517,26.67766 25.372413,26.2128825 25.102,25.886 L22.349,22.565 L26.049,18.876 L29.371,21.631 C29.6997135,21.9033983 30.1679713,21.9285778 30.524,21.693 C32.3646065,20.473103 34.4178135,19.6094874 36.577,19.147 C36.991469,19.0470792 37.2970079,18.6953682 37.338,18.271 L37.755,13.938 L43.002,13.938 L43.42,18.271 C43.4599559,18.6944411 43.7679638,19.0440281 44.183,19.137 C46.3412803,19.6159774 48.394829,20.4823236 50.244,21.694 C50.59887,21.9232138 51.0613403,21.8961048 51.387,21.627 L54.705,18.877 L58.349,22.559 L55.592,25.884 C55.3189337,26.2133229 55.2941416,26.682746 55.531,27.039 C56.7526015,28.8763343 57.6188998,30.9264151 58.085,33.083 C58.1827022,33.4968939 58.5335871,33.8023086 58.957,33.842 L63.297,34.259 L63.297,39.499 L59.016,39.917 C58.5947762,39.9568414 58.2453063,40.2597153 58.146,40.671 L58.153,40.67 Z" />
        <path
            d="M40.364,21.5979869 C31.9277013,21.6090423 25.0966467,28.4550132 25.1039999,36.8913159 C25.1113649,45.3276186 31.9543528,52.1616614 40.3906579,52.1579869 C48.826963,52.1543095 55.664,45.3143059 55.664,36.878 C55.664,32.8220244 54.0514058,28.9324626 51.1815229,26.0663312 C48.3116399,23.2001997 44.4199721,21.5926911 40.364,21.5979869 Z M40.364,50.2190166 C32.9985838,50.2074061 27.0360975,44.2291098 27.0439999,36.8636887 C27.051918,29.4982676 33.0272316,23.5327921 40.3926557,23.5370165 C47.7580798,23.5412453 53.726543,29.5135747 53.726,36.879 C53.726,40.4207214 52.3171738,43.8169862 49.8107361,46.3192972 C47.3042983,48.8216082 43.905717,50.224575 40.364,50.2190166 L40.364,50.2190166 Z" />
        <path
            d="M40.367 32.242C41.3755673 32.2431023 42.1928977 33.0604327 42.194 34.069 42.194 34.6044401 42.6280599 35.0385 43.1635 35.0385 43.6989401 35.0385 44.133 34.6044401 44.133 34.069 44.1311527 32.4257423 43.0656897 30.9727647 41.499 30.477L41.499 29.77C41.499 29.2345599 41.0649401 28.8005 40.5295 28.8005 39.9940599 28.8005 39.56 29.2345599 39.56 29.77L39.56 30.391C37.6810975 30.8020763 36.4141079 32.5632248 36.6216836 34.4753364 36.8292593 36.387448 38.4446551 37.8356895 40.368 37.834 41.3770242 37.834 42.195 38.6519758 42.195 39.661 42.195 40.6700242 41.3770242 41.488 40.368 41.488 39.3589758 41.488 38.541 40.6700242 38.541 39.661 38.541 39.1255599 38.1069401 38.6915 37.5715 38.6915 37.0360599 38.6915 36.602 39.1255599 36.602 39.661 36.6049921 41.3674109 37.7532146 42.8592799 39.402 43.299L39.402 44.31C39.402 44.8454401 39.8360599 45.2795 40.3715 45.2795 40.9069401 45.2795 41.341 44.8454401 41.341 44.31L41.341 43.301C43.1618105 42.8097352 44.3382454 41.047099 44.0933823 39.1771434 43.8485192 37.3071877 42.2579102 35.9068847 40.372 35.901 39.3629758 35.901 38.545 35.0830242 38.545 34.074 38.545 33.0649758 39.3629758 32.247 40.372 32.247L40.367 32.242zM74.342 33.609C74.1579083 33.3869307 73.884452 33.2584214 73.596 33.2584214 73.307548 33.2584214 73.0340917 33.3869307 72.85 33.609L66.679 41.049C66.4390018 41.3490003 66.3883385 41.7585612 66.548 42.108 66.705177 42.4541581 67.0450427 42.6812519 67.425 42.694L72.302 42.694C71.1911822 50.9182715 67.0875616 58.4444242 60.776 63.833 55.1027192 68.8195686 47.8560958 71.6515253 40.305 71.833 35.4359542 71.765628 30.6541319 70.5310784 26.361 68.233 21.6787807 65.7868401 17.6179426 62.3023592 14.489 58.046 14.2892302 57.7549164 13.9469589 57.5955147 13.5955996 57.6299281 13.2442403 57.6643415 12.9394013 57.8871234 12.7999056 58.2114359 12.6604099 58.5357484 12.7083349 58.9102638 12.925 59.189 16.2301159 63.6839182 20.5194741 67.3633939 25.465 69.946 30.0354991 72.3866766 35.1250644 73.6946479 40.306 73.76 48.3179158 73.5822676 56.0117101 70.5904922 62.039 65.309 68.7630418 59.5386468 73.1146585 51.4847545 74.256 42.698L79.767 42.698C80.1474927 42.6867971 80.4886275 42.4605436 80.6469598 42.1143774 80.8052921 41.7682112 80.7533598 41.3621734 80.513 41.067L74.342 33.609zM69.488 40.756L73.596 35.803 77.704 40.756 69.488 40.756zM14.187 31.648C14.029823 31.3018419 13.6899573 31.0747481 13.31 31.062L8.433 31.062C9.54355676 22.8378714 13.6468102 15.3117392 19.958 9.923 25.6312808 4.93643145 32.8779042 2.10447466 40.429 1.923 45.2980458 1.99037195 50.0798681 3.22492162 54.373 5.523 59.0560019 7.97018013 63.1172277 11.4560685 66.246 15.714 66.4428625 16.0115502 66.7873089 16.1768514 67.1425977 16.144281 67.4978865 16.1117105 67.8065369 15.8865378 67.9460181 15.5581539 68.0854993 15.2297701 68.0332452 14.851303 67.81 14.573 64.5042303 10.0770275 60.2138035 6.39683119 55.267 3.814 50.6965009 1.37332339 45.6069356.0653520703 40.426 0 32.4140842.177732363 24.7202899 3.16950783 18.693 8.451 11.9700731 14.2218438 7.6195583 22.2756748 6.479 31.062L.967 31.062C.586507317 31.0732029.245372498 31.2994564.0870401795 31.6456226-.0712921395 31.9917888-.0193598148 32.3978266.221 32.693L6.392 40.141C6.5751478 40.364013 6.84824574 40.4936827 7.13682322 40.4946552 7.42540071 40.4956169 7.69936161 40.3677804 7.884 40.146L14.057 32.693C14.2969027 32.3983153 14.3473892 31.9924818 14.187 31.648zM7.139 37.954L3.032 33.001 11.247 33.001 7.139 37.954z" />
    </g>
</svg>